<?xml version="1.0" encoding="UTF-8" standalone="no"?><!DOCTYPE svg PUBLIC "-//W3C//DTD SVG 1.1//EN" "http://www.w3.org/Graphics/SVG/1.1/DTD/svg11.dtd"><svg width="100%" height="100%" viewBox="0 0 4500 2100" version="1.1" xmlns="http://www.w3.org/2000/svg" xmlns:xlink="http://www.w3.org/1999/xlink" xml:space="preserve" xmlns:serif="http://www.serif.com/" style="fill-rule:evenodd;clip-rule:evenodd;stroke-linecap:round;stroke-linejoin:round;stroke-miterlimit:10;"><rect x="0" y="0" width="4500" height="2100" style="fill:#fff;stroke:#fff;stroke-width:4.46px;"/><rect x="22.833" y="22.833" width="2186.62" height="2054.33" style="fill:#fff;stroke:#fff;stroke-width:4.46px;"/><g><clipPath id="_clip1"><rect x="224.458" y="182.875" width="1925.96" height="1670.38" clip-rule="nonzero"/></clipPath><g clip-path="url(#_clip1)"><rect x="224.458" y="182.875" width="1925.96" height="1670.38" style="fill:#fff;"/><path d="M577.417,429.208c-0,-4.5 3.666,-8.166 8.166,-8.166c4.459,-0 8.125,3.666 8.125,8.166c0,4.459 -3.666,8.125 -8.125,8.125c-4.5,0 -8.166,-3.666 -8.166,-8.125" style="fill:#333;fill-rule:nonzero;stroke:#333;stroke-width:2.96px;"/><path d="M585.583,568.958l0,10.834" style="fill:none;fill-rule:nonzero;stroke:#333;stroke-width:4.46px;stroke-linecap:butt;"/><path d="M359.875,568.958l451.375,0l-0,-10.708l-451.375,0l0,10.708Z" style="fill:#2b5b6c;stroke:#333;stroke-width:4.46px;"/><path d="M359.875,566.458l451.375,0" style="fill:none;fill-rule:nonzero;stroke:#333;stroke-width:8.88px;stroke-linecap:butt;"/><path d="M1187.42,625.167l-0,-18.125" style="fill:none;fill-rule:nonzero;stroke:#333;stroke-width:4.46px;stroke-linecap:butt;"/><path d="M1187.42,657.958l-0,12.542" style="fill:none;fill-rule:nonzero;stroke:#333;stroke-width:4.46px;stroke-linecap:butt;"/><path d="M961.708,657.958l451.417,0l0,-32.791l-451.417,-0l0,32.791Z" style="fill:#e34f33;stroke:#333;stroke-width:4.46px;"/><path d="M961.708,642.5l451.417,0" style="fill:none;fill-rule:nonzero;stroke:#333;stroke-width:8.88px;stroke-linecap:butt;"/><path d="M1789.29,651.167l-0,-43.334" style="fill:none;fill-rule:nonzero;stroke:#333;stroke-width:4.46px;stroke-linecap:butt;"/><path d="M1789.29,721l-0,26.417" style="fill:none;fill-rule:nonzero;stroke:#333;stroke-width:4.46px;stroke-linecap:butt;"/><path d="M1563.58,721l451.417,0l0,-69.833l-451.417,-0l0,69.833Z" style="fill:#ffc87e;stroke:#333;stroke-width:4.46px;"/><path d="M1563.58,694.542l451.417,-0" style="fill:none;fill-rule:nonzero;stroke:#333;stroke-width:8.88px;stroke-linecap:butt;"/><rect x="224.458" y="182.875" width="1925.96" height="1670.38" style="fill:none;stroke:#333;stroke-width:4.46px;"/></g></g><text x="171.458px" y="1798.29px" style="font-family:'ArialMT', 'Arial', sans-serif;font-size:58.333px;">0</text><text x="171.458px" y="1364.42px" style="font-family:'ArialMT', 'Arial', sans-serif;font-size:58.333px;">2</text><text x="171.458px" y="930.542px" style="font-family:'ArialMT', 'Arial', sans-serif;font-size:58.333px;">4</text><text x="171.458px" y="496.667px" style="font-family:'ArialMT', 'Arial', sans-serif;font-size:58.333px;">6</text><g transform="matrix(58.3333,0,0,58.3333,630.489,1915.71)"></g><text x="549.417px" y="1915.71px" style="font-family:'ArialMT', 'Arial', sans-serif;font-size:58.333px;">0.1</text><g transform="matrix(58.3333,0,0,58.3333,1227.28,1915.71)"></g><text x="1146.21px" y="1915.71px" style="font-family:'ArialMT', 'Arial', sans-serif;font-size:58.333px;">1.0</text><g transform="matrix(58.3333,0,0,58.3333,1830.03,1915.71)"></g><text x="1748.96px" y="1915.71px" style="font-family:'ArialMT', 'Arial', sans-serif;font-size:58.333px;">10.</text><g transform="matrix(4.16667,0,0,4.16667,-87.5,0)"><text x="227.74px" y="479.95px" style="font-family:'ArialMT', 'Arial', sans-serif;font-size:20px;">Dilution Rate (d</text><text x="365.554px" y="473.29px" style="font-family:'ArialMT', 'Arial', sans-serif;font-size:11.66px;">-1</text><g transform="matrix(20,0,0,20,382.579,479.95)"></g><text x="375.919px" y="479.95px" style="font-family:'ArialMT', 'Arial', sans-serif;font-size:20px;">)</text></g><g transform="matrix(0,-1,1,0,0,0)"><text x="-1355.12px" y="141.708px" style="font-family:'ArialMT', 'Arial', sans-serif;font-size:83.333px;">S<tspan x="-1299.69px -1253.49px -1207.29px -1161.09px -1114.89px -1068.69px -1022.49px -999.341px -939.307px -920.939px -879.42px -833.22px -805.616px -764.096px -745.729px -722.723px " y="141.708px 141.708px 141.708px 141.708px 141.708px 141.708px 141.708px 141.708px 141.708px 141.708px 141.708px 141.708px 141.708px 141.708px 141.708px 141.708px ">hannon Diversity</tspan></text></g><text x="224.458px" y="141.708px" style="font-family:'ArialMT', 'Arial', sans-serif;font-size:83.333px;">A.<tspan x="303.004px 326.397px 381.884px 400.304px 446.555px 492.806px 539.057px " y="141.708px 141.708px 141.708px 141.708px 141.708px 141.708px 141.708px "> Alpha </tspan>Di<tspan x="640.728px 682.3px 728.551px 756.207px 797.779px 816.198px 839.256px " y="141.708px 141.708px 141.708px 141.708px 141.708px 141.708px 141.708px ">versity</tspan> −<tspan x="952.564px " y="141.708px "> </tspan>Un<tspan x="1082.07px 1100.49px 1123.54px 1169.8px 1197.45px " y="141.708px 141.708px 141.708px 141.708px 141.708px ">iform</tspan> M<tspan x="1359.26px 1405.51px 1451.76px " y="141.708px 141.708px 141.708px ">ode</tspan>l</text><path d="M213.042,1777.33l11.416,0" style="fill:none;fill-rule:nonzero;stroke:#333;stroke-width:4.46px;stroke-linecap:butt;"/><path d="M213.042,1343.46l11.416,0" style="fill:none;fill-rule:nonzero;stroke:#333;stroke-width:4.46px;stroke-linecap:butt;"/><path d="M213.042,909.625l11.416,0" style="fill:none;fill-rule:nonzero;stroke:#333;stroke-width:4.46px;stroke-linecap:butt;"/><path d="M213.042,475.75l11.416,0" style="fill:none;fill-rule:nonzero;stroke:#333;stroke-width:4.46px;stroke-linecap:butt;"/><path d="M585.583,1864.67l0,-11.417" style="fill:none;fill-rule:nonzero;stroke:#333;stroke-width:4.46px;stroke-linecap:butt;"/><path d="M1187.42,1864.67l-0,-11.417" style="fill:none;fill-rule:nonzero;stroke:#333;stroke-width:4.46px;stroke-linecap:butt;"/><path d="M1789.29,1864.67l-0,-11.417" style="fill:none;fill-rule:nonzero;stroke:#333;stroke-width:4.46px;stroke-linecap:butt;"/><rect x="2209.46" y="22.833" width="2267.71" height="2054.33" style="fill:#fff;stroke:#fff;stroke-width:4.46px;"/><g><clipPath id="_clip2"><rect x="2492.17" y="182.875" width="1925.96" height="1670.38" clip-rule="nonzero"/></clipPath><g clip-path="url(#_clip2)"><rect x="2492.17" y="182.875" width="1925.96" height="1670.38" style="fill:#fff;"/><path d="M2845.12,1777.33c0,-4.458 3.667,-8.125 8.167,-8.125c4.458,0 8.125,3.667 8.125,8.125c-0,4.5 -3.667,8.167 -8.125,8.167c-4.5,0 -8.167,-3.667 -8.167,-8.167" style="fill:#333;fill-rule:nonzero;stroke:#333;stroke-width:2.96px;"/><path d="M2853.29,342.958l-0,-84.166" style="fill:none;fill-rule:nonzero;stroke:#333;stroke-width:4.46px;stroke-linecap:butt;"/><path d="M2627.58,736.708l451.375,0l0,-393.75l-451.375,0l0,393.75Z" style="fill:#2b5b6c;stroke:#333;stroke-width:4.46px;"/><path d="M2627.58,380.417l451.375,-0" style="fill:none;fill-rule:nonzero;stroke:#333;stroke-width:8.88px;stroke-linecap:butt;"/><path d="M3455.12,289l0,-12.083" style="fill:none;fill-rule:nonzero;stroke:#333;stroke-width:4.46px;stroke-linecap:butt;"/><path d="M3455.12,309.25l0,8.125" style="fill:none;fill-rule:nonzero;stroke:#333;stroke-width:4.46px;stroke-linecap:butt;"/><path d="M3229.46,309.25l451.375,0l0,-20.25l-451.375,-0l0,20.25Z" style="fill:#e34f33;stroke:#333;stroke-width:4.46px;"/><path d="M3229.46,301.125l451.375,0" style="fill:none;fill-rule:nonzero;stroke:#333;stroke-width:8.88px;stroke-linecap:butt;"/><path d="M4057,480.583l0,-78.833" style="fill:none;fill-rule:nonzero;stroke:#333;stroke-width:4.46px;stroke-linecap:butt;"/><path d="M4057,638.292l0,78.875" style="fill:none;fill-rule:nonzero;stroke:#333;stroke-width:4.46px;stroke-linecap:butt;"/><path d="M3831.29,638.292l451.416,-0l0,-157.709l-451.416,0l-0,157.709Z" style="fill:#ffc87e;stroke:#333;stroke-width:4.46px;"/><path d="M3831.29,559.458l451.416,0" style="fill:none;fill-rule:nonzero;stroke:#333;stroke-width:8.88px;stroke-linecap:butt;"/><rect x="2492.17" y="182.875" width="1925.96" height="1670.38" style="fill:none;stroke:#333;stroke-width:4.46px;"/></g></g><text x="2358.08px" y="1835.38px" style="font-family:'ArialMT', 'Arial', sans-serif;font-size:58.333px;">0.00</text><text x="2358.08px" y="1434.83px" style="font-family:'ArialMT', 'Arial', sans-serif;font-size:58.333px;">0.25</text><text x="2358.08px" y="1034.25px" style="font-family:'ArialMT', 'Arial', sans-serif;font-size:58.333px;">0.50</text><text x="2358.08px" y="633.708px" style="font-family:'ArialMT', 'Arial', sans-serif;font-size:58.333px;">0.75</text><text x="2358.08px" y="233.167px" style="font-family:'ArialMT', 'Arial', sans-serif;font-size:58.333px;">1.00</text><g transform="matrix(58.3333,0,0,58.3333,2898.2,1915.71)"></g><text x="2817.12px" y="1915.71px" style="font-family:'ArialMT', 'Arial', sans-serif;font-size:58.333px;">0.1</text><g transform="matrix(58.3333,0,0,58.3333,3494.99,1915.71)"></g><text x="3413.92px" y="1915.71px" style="font-family:'ArialMT', 'Arial', sans-serif;font-size:58.333px;">1.0</text><g transform="matrix(58.3333,0,0,58.3333,4097.74,1915.71)"></g><text x="4016.67px" y="1915.71px" style="font-family:'ArialMT', 'Arial', sans-serif;font-size:58.333px;">10.</text><g transform="matrix(4.16667,0,0,4.16667,-83.3333,0)"><text x="771.99px" y="479.95px" style="font-family:'ArialMT', 'Arial', sans-serif;font-size:20px;">Dilution Rate (d</text><text x="909.804px" y="473.29px" style="font-family:'ArialMT', 'Arial', sans-serif;font-size:11.66px;">-1</text><g transform="matrix(20,0,0,20,926.829,479.95)"></g><text x="920.169px" y="479.95px" style="font-family:'ArialMT', 'Arial', sans-serif;font-size:20px;">)</text></g><g transform="matrix(0,-1,1,0,0,0)"><text x="-1313.29px" y="2328.33px" style="font-family:'ArialMT', 'Arial', sans-serif;font-size:83.333px;">S<tspan x="-1257.55px -1238.87px -1169.29px -1150.62px -1131.94px -1085.43px -1057.52px -1038.84px -1015.53px -973.699px -950.385px -880.805px -834.297px -810.982px -783.07px -764.394px " y="2328.33px 2328.33px 2328.33px 2328.33px 2328.33px 2328.33px 2328.33px 2328.33px 2328.33px 2328.33px 2328.33px 2328.33px 2328.33px 2328.33px 2328.33px 2328.33px ">imilarity Metric</tspan></text></g><text x="2492.17px" y="141.708px" style="font-family:'ArialMT', 'Arial', sans-serif;font-size:83.333px;">B. C<tspan x="2654.12px " y="141.708px ">o</tspan>mm<tspan x="2839.17px " y="141.708px ">u</tspan>ni<tspan x="2950.24px " y="141.708px ">t</tspan>y S<tspan x="3093.68px " y="141.708px ">t</tspan>ab<tspan x="3209.4px " y="141.708px ">i</tspan>li<tspan x="3264.81px " y="141.708px ">t</tspan>y −<tspan x="3401.33px " y="141.708px "> </tspan>Uni<tspan x="3549.41px " y="141.708px ">f</tspan>or<tspan x="3646.52px " y="141.708px ">m</tspan> Mo<tspan x="3854.74px " y="141.708px ">d</tspan>el</text><path d="M2480.75,1814.42l11.417,-0" style="fill:none;fill-rule:nonzero;stroke:#333;stroke-width:4.46px;stroke-linecap:butt;"/><path d="M2480.75,1413.88l11.417,0" style="fill:none;fill-rule:nonzero;stroke:#333;stroke-width:4.46px;stroke-linecap:butt;"/><path d="M2480.75,1013.33l11.417,0" style="fill:none;fill-rule:nonzero;stroke:#333;stroke-width:4.46px;stroke-linecap:butt;"/><path d="M2480.75,612.75l11.417,0" style="fill:none;fill-rule:nonzero;stroke:#333;stroke-width:4.46px;stroke-linecap:butt;"/><path d="M2480.75,212.208l11.417,0" style="fill:none;fill-rule:nonzero;stroke:#333;stroke-width:4.46px;stroke-linecap:butt;"/><path d="M2853.29,1864.67l-0,-11.417" style="fill:none;fill-rule:nonzero;stroke:#333;stroke-width:4.46px;stroke-linecap:butt;"/><path d="M3455.12,1864.67l0,-11.417" style="fill:none;fill-rule:nonzero;stroke:#333;stroke-width:4.46px;stroke-linecap:butt;"/><path d="M4057,1864.67l0,-11.417" style="fill:none;fill-rule:nonzero;stroke:#333;stroke-width:4.46px;stroke-linecap:butt;"/></svg>