<?xml version="1.0" encoding="UTF-8"?>
<svg xmlns="http://www.w3.org/2000/svg" xmlns:xlink="http://www.w3.org/1999/xlink" width="550pt" height="360pt" viewBox="0 0 550 360" version="1.1">
<defs>
<g>
<symbol overflow="visible" id="glyph0-0">
<path style="stroke:none;" d="M 2.25 0 L 2.25 -11.25 L 11.25 -11.25 L 11.25 0 Z M 2.53125 -0.28125 L 10.96875 -0.28125 L 10.96875 -10.96875 L 2.53125 -10.96875 Z M 2.53125 -0.28125 "/>
</symbol>
<symbol overflow="visible" id="glyph0-1">
<path style="stroke:none;" d="M 4.9375 -12.9375 C 6.183594 -12.9375 7.160156 -12.492188 7.867188 -11.601563 C 8.703125 -10.546875 9.121094 -8.796875 9.125 -6.355469 C 9.121094 -3.914063 8.699219 -2.160156 7.859375 -1.097656 C 7.15625 -0.21875 6.183594 0.214844 4.9375 0.21875 C 3.683594 0.214844 2.671875 -0.261719 1.90625 -1.226563 C 1.136719 -2.1875 0.753906 -3.90625 0.757813 -6.382813 C 0.753906 -8.804688 1.175781 -10.550781 2.023438 -11.617188 C 2.714844 -12.496094 3.6875 -12.9375 4.9375 -12.9375 Z M 4.9375 -10.890625 C 4.636719 -10.886719 4.371094 -10.792969 4.140625 -10.605469 C 3.902344 -10.414063 3.71875 -10.070313 3.59375 -9.578125 C 3.421875 -8.9375 3.339844 -7.863281 3.339844 -6.355469 C 3.339844 -4.839844 3.414063 -3.800781 3.566406 -3.238281 C 3.71875 -2.671875 3.910156 -2.296875 4.144531 -2.109375 C 4.371094 -1.921875 4.636719 -1.828125 4.9375 -1.828125 C 5.234375 -1.828125 5.5 -1.921875 5.738281 -2.113281 C 5.96875 -2.300781 6.152344 -2.640625 6.285156 -3.136719 C 6.453125 -3.765625 6.539063 -4.839844 6.539063 -6.355469 C 6.539063 -7.863281 6.460938 -8.902344 6.308594 -9.46875 C 6.15625 -10.035156 5.964844 -10.414063 5.734375 -10.605469 C 5.5 -10.792969 5.234375 -10.886719 4.9375 -10.890625 Z M 4.9375 -10.890625 "/>
</symbol>
<symbol overflow="visible" id="glyph0-2">
<path style="stroke:none;" d="M 1.292969 0 L 1.292969 -2.46875 L 3.761719 -2.46875 L 3.761719 0 Z M 1.292969 0 "/>
</symbol>
<symbol overflow="visible" id="glyph0-3">
<path style="stroke:none;" d="M 0.800781 -3.3125 L 3.261719 -3.570313 C 3.328125 -3.007813 3.535156 -2.566406 3.882813 -2.246094 C 4.226563 -1.917969 4.625 -1.757813 5.078125 -1.757813 C 5.589844 -1.757813 6.027344 -1.964844 6.386719 -2.386719 C 6.746094 -2.800781 6.925781 -3.433594 6.925781 -4.28125 C 6.925781 -5.070313 6.746094 -5.664063 6.394531 -6.058594 C 6.035156 -6.453125 5.574219 -6.648438 5.007813 -6.652344 C 4.296875 -6.648438 3.660156 -6.335938 3.101563 -5.710938 L 1.097656 -6.003906 L 2.363281 -12.710938 L 8.894531 -12.710938 L 8.894531 -10.398438 L 4.234375 -10.398438 L 3.851563 -8.210938 C 4.398438 -8.480469 4.960938 -8.617188 5.539063 -8.621094 C 6.628906 -8.617188 7.558594 -8.21875 8.320313 -7.425781 C 9.082031 -6.625 9.460938 -5.59375 9.464844 -4.324219 C 9.460938 -3.261719 9.15625 -2.3125 8.542969 -1.484375 C 7.703125 -0.347656 6.539063 0.214844 5.054688 0.21875 C 3.863281 0.214844 2.894531 -0.101563 2.144531 -0.738281 C 1.394531 -1.375 0.945313 -2.230469 0.800781 -3.3125 Z M 0.800781 -3.3125 "/>
</symbol>
<symbol overflow="visible" id="glyph0-4">
<path style="stroke:none;" d="M 7.085938 0 L 4.613281 0 L 4.613281 -9.308594 C 3.707031 -8.460938 2.644531 -7.835938 1.421875 -7.4375 L 1.421875 -9.675781 C 2.066406 -9.882813 2.765625 -10.285156 3.523438 -10.875 C 4.273438 -11.460938 4.792969 -12.148438 5.078125 -12.9375 L 7.085938 -12.9375 Z M 7.085938 0 "/>
</symbol>
<symbol overflow="visible" id="glyph0-5">
<path style="stroke:none;" d="M 9.105469 -2.292969 L 9.105469 0 L 0.449219 0 C 0.539063 -0.867188 0.820313 -1.6875 1.292969 -2.464844 C 1.757813 -3.238281 2.683594 -4.269531 4.070313 -5.554688 C 5.179688 -6.589844 5.863281 -7.292969 6.117188 -7.664063 C 6.453125 -8.171875 6.621094 -8.675781 6.625 -9.175781 C 6.621094 -9.722656 6.472656 -10.144531 6.179688 -10.445313 C 5.882813 -10.738281 5.476563 -10.886719 4.957031 -10.890625 C 4.441406 -10.886719 4.03125 -10.730469 3.726563 -10.421875 C 3.421875 -10.109375 3.246094 -9.59375 3.199219 -8.875 L 0.738281 -9.125 C 0.882813 -10.480469 1.339844 -11.457031 2.117188 -12.050781 C 2.886719 -12.640625 3.855469 -12.9375 5.019531 -12.9375 C 6.289063 -12.9375 7.289063 -12.59375 8.015625 -11.910156 C 8.742188 -11.222656 9.105469 -10.371094 9.105469 -9.351563 C 9.105469 -8.769531 9 -8.214844 8.792969 -7.691406 C 8.582031 -7.164063 8.253906 -6.617188 7.804688 -6.046875 C 7.503906 -5.664063 6.964844 -5.113281 6.1875 -4.402344 C 5.40625 -3.683594 4.910156 -3.210938 4.707031 -2.980469 C 4.496094 -2.742188 4.328125 -2.511719 4.203125 -2.292969 Z M 9.105469 -2.292969 "/>
</symbol>
<symbol overflow="visible" id="glyph0-6">
<path style="stroke:none;" d="M 0.675781 -3.417969 L 3.066406 -3.710938 C 3.136719 -3.097656 3.34375 -2.632813 3.679688 -2.3125 C 4.015625 -1.988281 4.417969 -1.828125 4.894531 -1.828125 C 5.402344 -1.828125 5.832031 -2.019531 6.183594 -2.40625 C 6.527344 -2.792969 6.703125 -3.316406 6.707031 -3.972656 C 6.703125 -4.59375 6.535156 -5.085938 6.203125 -5.449219 C 5.867188 -5.808594 5.460938 -5.988281 4.984375 -5.992188 C 4.664063 -5.988281 4.285156 -5.925781 3.851563 -5.808594 L 4.121094 -7.820313 C 4.785156 -7.800781 5.296875 -7.945313 5.652344 -8.257813 C 6 -8.5625 6.175781 -8.972656 6.179688 -9.484375 C 6.175781 -9.914063 6.046875 -10.257813 5.792969 -10.519531 C 5.53125 -10.773438 5.1875 -10.902344 4.765625 -10.90625 C 4.339844 -10.902344 3.980469 -10.757813 3.683594 -10.464844 C 3.382813 -10.171875 3.199219 -9.742188 3.136719 -9.183594 L 0.859375 -9.570313 C 1.015625 -10.347656 1.253906 -10.972656 1.574219 -11.4375 C 1.890625 -11.902344 2.335938 -12.265625 2.910156 -12.535156 C 3.480469 -12.800781 4.121094 -12.9375 4.835938 -12.9375 C 6.042969 -12.9375 7.015625 -12.550781 7.75 -11.777344 C 8.351563 -11.144531 8.652344 -10.429688 8.65625 -9.632813 C 8.652344 -8.5 8.035156 -7.597656 6.804688 -6.925781 C 7.539063 -6.765625 8.128906 -6.410156 8.574219 -5.859375 C 9.011719 -5.308594 9.234375 -4.644531 9.238281 -3.867188 C 9.234375 -2.734375 8.820313 -1.769531 7.996094 -0.976563 C 7.167969 -0.179688 6.140625 0.214844 4.914063 0.21875 C 3.746094 0.214844 2.777344 -0.117188 2.011719 -0.785156 C 1.238281 -1.457031 0.792969 -2.332031 0.675781 -3.417969 Z M 0.675781 -3.417969 "/>
</symbol>
<symbol overflow="visible" id="glyph0-7">
<path style="stroke:none;" d="M 5.609375 0 L 5.609375 -2.59375 L 0.335938 -2.59375 L 0.335938 -4.753906 L 5.921875 -12.9375 L 8 -12.9375 L 8 -4.765625 L 9.597656 -4.765625 L 9.597656 -2.59375 L 8 -2.59375 L 8 0 Z M 5.609375 -4.765625 L 5.609375 -9.167969 L 2.644531 -4.765625 Z M 5.609375 -4.765625 "/>
</symbol>
<symbol overflow="visible" id="glyph0-8">
<path style="stroke:none;" d="M 9.132813 -9.730469 L 6.742188 -9.464844 C 6.679688 -9.953125 6.527344 -10.316406 6.28125 -10.554688 C 6.035156 -10.785156 5.714844 -10.902344 5.328125 -10.90625 C 4.800781 -10.902344 4.359375 -10.667969 4 -10.203125 C 3.636719 -9.730469 3.410156 -8.757813 3.320313 -7.277344 C 3.933594 -8.003906 4.699219 -8.367188 5.617188 -8.367188 C 6.644531 -8.367188 7.527344 -7.972656 8.265625 -7.1875 C 8.996094 -6.402344 9.363281 -5.390625 9.367188 -4.148438 C 9.363281 -2.828125 8.976563 -1.769531 8.207031 -0.976563 C 7.429688 -0.179688 6.4375 0.214844 5.230469 0.21875 C 3.925781 0.214844 2.855469 -0.285156 2.019531 -1.296875 C 1.179688 -2.304688 0.761719 -3.960938 0.765625 -6.265625 C 0.761719 -8.625 1.199219 -10.328125 2.074219 -11.371094 C 2.945313 -12.414063 4.078125 -12.9375 5.476563 -12.9375 C 6.453125 -12.9375 7.261719 -12.660156 7.90625 -12.113281 C 8.542969 -11.5625 8.953125 -10.769531 9.132813 -9.730469 Z M 3.53125 -4.34375 C 3.527344 -3.535156 3.710938 -2.914063 4.085938 -2.480469 C 4.453125 -2.042969 4.875 -1.828125 5.351563 -1.828125 C 5.804688 -1.828125 6.1875 -2.003906 6.496094 -2.363281 C 6.796875 -2.714844 6.949219 -3.300781 6.953125 -4.121094 C 6.949219 -4.957031 6.785156 -5.570313 6.460938 -5.960938 C 6.128906 -6.347656 5.71875 -6.542969 5.230469 -6.546875 C 4.75 -6.542969 4.347656 -6.359375 4.023438 -5.988281 C 3.691406 -5.613281 3.527344 -5.0625 3.53125 -4.34375 Z M 3.53125 -4.34375 "/>
</symbol>
<symbol overflow="visible" id="glyph0-9">
<path style="stroke:none;" d="M 2.882813 -6.953125 C 2.242188 -7.21875 1.777344 -7.589844 1.488281 -8.0625 C 1.199219 -8.535156 1.054688 -9.050781 1.054688 -9.617188 C 1.054688 -10.570313 1.386719 -11.363281 2.058594 -11.996094 C 2.726563 -12.621094 3.683594 -12.9375 4.921875 -12.9375 C 6.144531 -12.9375 7.09375 -12.621094 7.773438 -11.996094 C 8.449219 -11.363281 8.789063 -10.570313 8.789063 -9.617188 C 8.789063 -9.015625 8.632813 -8.484375 8.324219 -8.019531 C 8.011719 -7.550781 7.574219 -7.195313 7.015625 -6.953125 C 7.726563 -6.664063 8.269531 -6.246094 8.644531 -5.695313 C 9.011719 -5.140625 9.199219 -4.503906 9.203125 -3.789063 C 9.199219 -2.597656 8.820313 -1.628906 8.0625 -0.886719 C 7.304688 -0.144531 6.292969 0.222656 5.035156 0.226563 C 3.859375 0.222656 2.886719 -0.0820313 2.109375 -0.695313 C 1.1875 -1.417969 0.726563 -2.414063 0.730469 -3.683594 C 0.726563 -4.375 0.898438 -5.015625 1.246094 -5.601563 C 1.589844 -6.183594 2.136719 -6.632813 2.882813 -6.953125 Z M 3.390625 -9.4375 C 3.386719 -8.945313 3.527344 -8.5625 3.808594 -8.289063 C 4.085938 -8.011719 4.457031 -7.875 4.921875 -7.875 C 5.390625 -7.875 5.765625 -8.011719 6.046875 -8.292969 C 6.328125 -8.566406 6.46875 -8.953125 6.46875 -9.449219 C 6.46875 -9.90625 6.328125 -10.277344 6.050781 -10.558594 C 5.769531 -10.835938 5.402344 -10.972656 4.949219 -10.976563 C 4.46875 -10.972656 4.089844 -10.832031 3.8125 -10.554688 C 3.527344 -10.269531 3.386719 -9.898438 3.390625 -9.4375 Z M 3.164063 -3.921875 C 3.164063 -3.234375 3.335938 -2.703125 3.6875 -2.328125 C 4.03125 -1.945313 4.46875 -1.757813 4.992188 -1.757813 C 5.5 -1.757813 5.921875 -1.9375 6.257813 -2.304688 C 6.589844 -2.667969 6.753906 -3.199219 6.757813 -3.894531 C 6.753906 -4.492188 6.585938 -4.976563 6.246094 -5.347656 C 5.90625 -5.710938 5.476563 -5.894531 4.957031 -5.898438 C 4.351563 -5.894531 3.898438 -5.6875 3.605469 -5.273438 C 3.308594 -4.855469 3.164063 -4.402344 3.164063 -3.921875 Z M 3.164063 -3.921875 "/>
</symbol>
<symbol overflow="visible" id="glyph1-0">
<path style="stroke:none;" d="M 1.0625 0 L 1.0625 -13.597656 L 7.4375 -13.597656 L 7.4375 0 Z M 2.125 -1.0625 L 6.375 -1.0625 L 6.375 -12.535156 L 2.125 -12.535156 Z M 2.125 -1.0625 "/>
</symbol>
<symbol overflow="visible" id="glyph1-1">
<path style="stroke:none;" d="M 9.339844 -8.824219 L 8.941406 -6.941406 L 6.441406 -6.941406 C 5.847656 -6.9375 5.367188 -6.777344 4.992188 -6.464844 C 4.617188 -6.144531 4.347656 -5.710938 4.191406 -5.15625 L 6.675781 -5.15625 L 6.375 -3.742188 L 3.894531 -3.742188 C 3.875 -3.613281 3.867188 -3.492188 3.867188 -3.378906 C 3.867188 -2.878906 3.996094 -2.503906 4.253906 -2.257813 C 4.511719 -2.003906 4.886719 -1.878906 5.378906 -1.882813 L 7.859375 -1.882813 L 7.460938 0 L 4.964844 0 C 4.457031 0 3.992188 -0.0507813 3.5625 -0.152344 C 3.132813 -0.253906 2.761719 -0.421875 2.453125 -0.65625 C 2.136719 -0.886719 1.890625 -1.191406 1.71875 -1.570313 C 1.539063 -1.949219 1.453125 -2.417969 1.453125 -2.980469 C 1.453125 -3.226563 1.464844 -3.472656 1.496094 -3.714844 C 1.523438 -3.953125 1.570313 -4.195313 1.628906 -4.441406 C 1.78125 -5.125 2.003906 -5.738281 2.296875 -6.28125 C 2.589844 -6.824219 2.953125 -7.28125 3.394531 -7.660156 C 3.828125 -8.035156 4.335938 -8.324219 4.914063 -8.523438 C 5.488281 -8.722656 6.136719 -8.824219 6.855469 -8.824219 Z M 9.339844 -8.824219 "/>
</symbol>
<symbol overflow="visible" id="glyph2-0">
<path style="stroke:none;" d="M 1.601563 0 L 1.601563 -8 L 8 -8 L 8 0 Z M 1.800781 -0.199219 L 7.800781 -0.199219 L 7.800781 -7.800781 L 1.800781 -7.800781 Z M 1.800781 -0.199219 "/>
</symbol>
<symbol overflow="visible" id="glyph2-1">
<path style="stroke:none;" d="M 2.425781 -9.164063 L 4.21875 -9.164063 L 3.882813 -7.539063 L 2.085938 -7.539063 Z M 1.898438 -6.636719 L 3.695313 -6.636719 L 2.304688 0 L 0.511719 0 Z M 1.898438 -6.636719 "/>
</symbol>
<symbol overflow="visible" id="glyph3-0">
<path style="stroke:none;" d="M 0 -2.25 L -11.25 -2.25 L -11.25 -11.25 L 0 -11.25 Z M -0.28125 -2.53125 L -0.28125 -10.96875 L -10.96875 -10.96875 L -10.96875 -2.53125 Z M -0.28125 -2.53125 "/>
</symbol>
<symbol overflow="visible" id="glyph3-1">
<path style="stroke:none;" d="M 0 -1.308594 L -12.882813 -1.308594 L -12.882813 -5.484375 C -12.878906 -7.066406 -12.816406 -8.097656 -12.691406 -8.578125 C -12.496094 -9.316406 -12.074219 -9.933594 -11.429688 -10.433594 C -10.78125 -10.929688 -9.945313 -11.179688 -8.921875 -11.179688 C -8.128906 -11.179688 -7.464844 -11.035156 -6.925781 -10.75 C -6.386719 -10.460938 -5.960938 -10.097656 -5.65625 -9.65625 C -5.34375 -9.210938 -5.140625 -8.757813 -5.046875 -8.304688 C -4.917969 -7.679688 -4.855469 -6.78125 -4.859375 -5.609375 L -4.859375 -3.910156 L 0 -3.910156 Z M -10.703125 -3.910156 L -7.046875 -3.910156 L -7.046875 -5.335938 C -7.042969 -6.359375 -7.109375 -7.042969 -7.25 -7.390625 C -7.382813 -7.734375 -7.59375 -8.007813 -7.882813 -8.203125 C -8.164063 -8.398438 -8.5 -8.496094 -8.886719 -8.5 C -9.351563 -8.496094 -9.738281 -8.359375 -10.046875 -8.085938 C -10.347656 -7.808594 -10.539063 -7.457031 -10.617188 -7.039063 C -10.671875 -6.726563 -10.699219 -6.105469 -10.703125 -5.167969 Z M -10.703125 -3.910156 "/>
</symbol>
<symbol overflow="visible" id="glyph3-2">
<path style="stroke:none;" d="M 0 -3.65625 L 0 -1.1875 L -9.335938 -1.1875 L -9.335938 -3.480469 L -8.007813 -3.480469 C -8.628906 -3.871094 -9.042969 -4.222656 -9.246094 -4.539063 C -9.445313 -4.847656 -9.542969 -5.203125 -9.546875 -5.609375 C -9.542969 -6.167969 -9.386719 -6.710938 -9.078125 -7.234375 L -6.925781 -6.46875 C -7.191406 -6.050781 -7.324219 -5.664063 -7.328125 -5.308594 C -7.324219 -4.960938 -7.230469 -4.667969 -7.042969 -4.429688 C -6.851563 -4.1875 -6.507813 -3.996094 -6.011719 -3.863281 C -5.511719 -3.722656 -4.46875 -3.65625 -2.882813 -3.65625 Z M 0 -3.65625 "/>
</symbol>
<symbol overflow="visible" id="glyph3-3">
<path style="stroke:none;" d="M -4.796875 -0.71875 C -5.617188 -0.714844 -6.410156 -0.917969 -7.179688 -1.324219 C -7.945313 -1.730469 -8.53125 -2.300781 -8.9375 -3.042969 C -9.339844 -3.78125 -9.542969 -4.609375 -9.546875 -5.527344 C -9.542969 -6.9375 -9.085938 -8.097656 -8.167969 -9 C -7.25 -9.898438 -6.089844 -10.347656 -4.695313 -10.351563 C -3.277344 -10.347656 -2.105469 -9.890625 -1.179688 -8.984375 C -0.25 -8.070313 0.210938 -6.925781 0.210938 -5.546875 C 0.210938 -4.6875 0.0195313 -3.871094 -0.367188 -3.097656 C -0.753906 -2.320313 -1.320313 -1.730469 -2.070313 -1.324219 C -2.8125 -0.917969 -3.722656 -0.714844 -4.796875 -0.71875 Z M -4.667969 -3.25 C -3.738281 -3.246094 -3.027344 -3.464844 -2.539063 -3.910156 C -2.042969 -4.347656 -1.796875 -4.890625 -1.800781 -5.539063 C -1.796875 -6.179688 -2.042969 -6.71875 -2.539063 -7.15625 C -3.027344 -7.589844 -3.742188 -7.808594 -4.683594 -7.8125 C -5.59375 -7.808594 -6.296875 -7.589844 -6.792969 -7.15625 C -7.28125 -6.71875 -7.527344 -6.179688 -7.53125 -5.539063 C -7.527344 -4.890625 -7.28125 -4.347656 -6.792969 -3.910156 C -6.296875 -3.464844 -5.589844 -3.246094 -4.667969 -3.25 Z M -4.667969 -3.25 "/>
</symbol>
<symbol overflow="visible" id="glyph3-4">
<path style="stroke:none;" d="M 0 -1.1875 L -12.882813 -1.1875 L -12.882813 -3.65625 L -8.242188 -3.65625 C -9.109375 -4.414063 -9.542969 -5.316406 -9.546875 -6.363281 C -9.542969 -7.5 -9.132813 -8.4375 -8.308594 -9.183594 C -7.484375 -9.925781 -6.300781 -10.300781 -4.765625 -10.300781 C -3.167969 -10.300781 -1.941406 -9.917969 -1.082031 -9.160156 C -0.21875 -8.398438 0.210938 -7.480469 0.210938 -6.398438 C 0.210938 -5.863281 0.078125 -5.335938 -0.1875 -4.820313 C -0.453125 -4.300781 -0.847656 -3.855469 -1.371094 -3.480469 L 0 -3.480469 Z M -4.867188 -3.640625 C -3.898438 -3.636719 -3.183594 -3.789063 -2.726563 -4.09375 C -2.066406 -4.519531 -1.738281 -5.089844 -1.742188 -5.800781 C -1.738281 -6.34375 -1.972656 -6.804688 -2.4375 -7.191406 C -2.902344 -7.574219 -3.636719 -7.769531 -4.640625 -7.769531 C -5.707031 -7.769531 -6.476563 -7.574219 -6.949219 -7.1875 C -7.417969 -6.800781 -7.652344 -6.304688 -7.65625 -5.703125 C -7.652344 -5.109375 -7.421875 -4.617188 -6.964844 -4.226563 C -6.5 -3.832031 -5.800781 -3.636719 -4.867188 -3.640625 Z M -4.867188 -3.640625 "/>
</symbol>
<symbol overflow="visible" id="glyph3-5">
<path style="stroke:none;" d="M -6.484375 -3.136719 L -6.890625 -0.898438 C -7.789063 -1.144531 -8.457031 -1.578125 -8.894531 -2.195313 C -9.328125 -2.808594 -9.542969 -3.722656 -9.546875 -4.9375 C -9.542969 -6.039063 -9.414063 -6.859375 -9.152344 -7.402344 C -8.890625 -7.9375 -8.558594 -8.316406 -8.160156 -8.539063 C -7.757813 -8.753906 -7.019531 -8.863281 -5.949219 -8.867188 L -3.066406 -8.84375 C -2.242188 -8.839844 -1.636719 -8.878906 -1.25 -8.960938 C -0.859375 -9.035156 -0.445313 -9.183594 0 -9.40625 L 0 -6.960938 C -0.164063 -6.894531 -0.40625 -6.8125 -0.730469 -6.722656 C -0.875 -6.679688 -0.972656 -6.652344 -1.019531 -6.636719 C -0.609375 -6.210938 -0.300781 -5.757813 -0.0976563 -5.28125 C 0.109375 -4.796875 0.210938 -4.285156 0.210938 -3.742188 C 0.210938 -2.78125 -0.046875 -2.023438 -0.570313 -1.472656 C -1.085938 -0.914063 -1.746094 -0.636719 -2.546875 -0.640625 C -3.074219 -0.636719 -3.542969 -0.765625 -3.957031 -1.019531 C -4.367188 -1.269531 -4.683594 -1.621094 -4.90625 -2.078125 C -5.125 -2.527344 -5.320313 -3.183594 -5.484375 -4.042969 C -5.699219 -5.195313 -5.898438 -5.992188 -6.089844 -6.441406 L -6.335938 -6.441406 C -6.804688 -6.4375 -7.144531 -6.320313 -7.351563 -6.089844 C -7.550781 -5.851563 -7.652344 -5.410156 -7.65625 -4.765625 C -7.652344 -4.320313 -7.566406 -3.976563 -7.394531 -3.734375 C -7.222656 -3.484375 -6.917969 -3.285156 -6.484375 -3.136719 Z M -4.484375 -6.441406 C -4.375 -6.121094 -4.25 -5.621094 -4.101563 -4.9375 C -3.953125 -4.25 -3.808594 -3.800781 -3.671875 -3.59375 C -3.441406 -3.265625 -3.152344 -3.105469 -2.804688 -3.109375 C -2.457031 -3.105469 -2.15625 -3.234375 -1.90625 -3.496094 C -1.652344 -3.75 -1.527344 -4.078125 -1.53125 -4.484375 C -1.527344 -4.921875 -1.675781 -5.347656 -1.96875 -5.757813 C -2.191406 -6.050781 -2.460938 -6.246094 -2.785156 -6.34375 C -2.992188 -6.40625 -3.394531 -6.4375 -3.992188 -6.441406 Z M -4.484375 -6.441406 "/>
</symbol>
<symbol overflow="visible" id="glyph3-6">
<path style="stroke:none;" d="M -10.601563 -1.292969 L -12.882813 -1.292969 L -12.882813 -3.761719 L -10.601563 -3.761719 Z M 0 -1.292969 L -9.335938 -1.292969 L -9.335938 -3.761719 L 0 -3.761719 Z M 0 -1.292969 "/>
</symbol>
<symbol overflow="visible" id="glyph3-7">
<path style="stroke:none;" d="M 0 -1.292969 L -12.882813 -1.292969 L -12.882813 -3.761719 L 0 -3.761719 Z M 0 -1.292969 "/>
</symbol>
<symbol overflow="visible" id="glyph3-8">
<path style="stroke:none;" d="M -9.335938 -5.570313 L -7.367188 -5.570313 L -7.367188 -3.882813 L -3.601563 -3.882813 C -2.839844 -3.878906 -2.394531 -3.894531 -2.269531 -3.929688 C -2.140625 -3.960938 -2.039063 -4.035156 -1.957031 -4.152344 C -1.875 -4.265625 -1.832031 -4.40625 -1.835938 -4.570313 C -1.832031 -4.796875 -1.914063 -5.125 -2.074219 -5.5625 L -0.15625 -5.773438 C 0.0898438 -5.195313 0.210938 -4.546875 0.210938 -3.824219 C 0.210938 -3.375 0.136719 -2.972656 -0.0117188 -2.617188 C -0.160156 -2.257813 -0.351563 -1.996094 -0.59375 -1.832031 C -0.828125 -1.664063 -1.148438 -1.546875 -1.554688 -1.484375 C -1.835938 -1.429688 -2.417969 -1.40625 -3.296875 -1.40625 L -7.367188 -1.40625 L -7.367188 -0.273438 L -9.335938 -0.273438 L -9.335938 -1.40625 L -11.1875 -1.40625 L -12.628906 -3.882813 L -9.335938 -3.882813 Z M -9.335938 -5.570313 "/>
</symbol>
<symbol overflow="visible" id="glyph3-9">
<path style="stroke:none;" d="M -9.335938 -0.125 L -9.335938 -2.75 L -2.707031 -4.984375 L -9.335938 -7.164063 L -9.335938 -9.71875 L -0.351563 -6.425781 L 1.273438 -5.835938 C 1.816406 -5.617188 2.234375 -5.410156 2.523438 -5.214844 C 2.808594 -5.019531 3.039063 -4.792969 3.21875 -4.539063 C 3.394531 -4.28125 3.535156 -3.96875 3.636719 -3.597656 C 3.734375 -3.222656 3.785156 -2.800781 3.789063 -2.335938 C 3.785156 -1.859375 3.734375 -1.394531 3.640625 -0.941406 L 1.703125 -0.71875 C 1.777344 -1.105469 1.816406 -1.453125 1.820313 -1.765625 C 1.816406 -2.335938 1.648438 -2.761719 1.3125 -3.039063 C 0.976563 -3.3125 0.546875 -3.523438 0.0273438 -3.671875 Z M -9.335938 -0.125 "/>
</symbol>
<symbol overflow="visible" id="glyph3-10">
<path style="stroke:none;" d="M -12.882813 -1.300781 L -12.882813 -6.054688 C -12.878906 -7.125 -12.796875 -7.945313 -12.640625 -8.507813 C -12.414063 -9.261719 -12.019531 -9.90625 -11.453125 -10.449219 C -10.882813 -10.984375 -10.1875 -11.394531 -9.363281 -11.679688 C -8.539063 -11.957031 -7.523438 -12.097656 -6.320313 -12.101563 C -5.253906 -12.097656 -4.339844 -11.96875 -3.578125 -11.707031 C -2.636719 -11.382813 -1.878906 -10.921875 -1.300781 -10.328125 C -0.859375 -9.871094 -0.515625 -9.261719 -0.273438 -8.5 C -0.0898438 -7.921875 0 -7.152344 0 -6.195313 L 0 -1.300781 Z M -10.703125 -3.902344 L -2.171875 -3.902344 L -2.171875 -5.84375 C -2.167969 -6.566406 -2.207031 -7.09375 -2.292969 -7.417969 C -2.394531 -7.839844 -2.574219 -8.1875 -2.828125 -8.46875 C -3.078125 -8.742188 -3.492188 -8.96875 -4.070313 -9.148438 C -4.644531 -9.320313 -5.433594 -9.410156 -6.433594 -9.414063 C -7.429688 -9.410156 -8.191406 -9.320313 -8.726563 -9.148438 C -9.257813 -8.96875 -9.675781 -8.722656 -9.972656 -8.410156 C -10.269531 -8.089844 -10.472656 -7.691406 -10.582031 -7.207031 C -10.660156 -6.84375 -10.699219 -6.128906 -10.703125 -5.070313 Z M -10.703125 -3.902344 "/>
</symbol>
<symbol overflow="visible" id="glyph3-11">
<path style="stroke:none;" d="M -2.96875 -6.695313 L -2.558594 -9.15625 C -1.652344 -8.839844 -0.964844 -8.339844 -0.496094 -7.660156 C -0.0234375 -6.972656 0.210938 -6.121094 0.210938 -5.097656 C 0.210938 -3.472656 -0.316406 -2.269531 -1.378906 -1.492188 C -2.226563 -0.875 -3.300781 -0.566406 -4.597656 -0.570313 C -6.140625 -0.566406 -7.351563 -0.972656 -8.230469 -1.78125 C -9.105469 -2.589844 -9.542969 -3.613281 -9.546875 -4.851563 C -9.542969 -6.238281 -9.085938 -7.332031 -8.167969 -8.136719 C -7.25 -8.9375 -5.84375 -9.320313 -3.953125 -9.289063 L -3.953125 -3.101563 C -3.21875 -3.117188 -2.648438 -3.316406 -2.242188 -3.699219 C -1.832031 -4.078125 -1.628906 -4.554688 -1.632813 -5.125 C -1.628906 -5.507813 -1.734375 -5.832031 -1.949219 -6.097656 C -2.15625 -6.359375 -2.496094 -6.558594 -2.96875 -6.695313 Z M -5.46875 -6.835938 C -6.179688 -6.816406 -6.722656 -6.632813 -7.097656 -6.285156 C -7.464844 -5.929688 -7.652344 -5.5 -7.65625 -5 C -7.652344 -4.457031 -7.457031 -4.011719 -7.066406 -3.664063 C -6.671875 -3.308594 -6.136719 -3.136719 -5.46875 -3.148438 Z M -5.46875 -6.835938 "/>
</symbol>
<symbol overflow="visible" id="glyph3-12">
<path style="stroke:none;" d="M 0 -9.78125 L 0 -7.3125 L -4.765625 -7.3125 C -5.765625 -7.3125 -6.417969 -7.257813 -6.71875 -7.152344 C -7.011719 -7.046875 -7.242188 -6.875 -7.410156 -6.640625 C -7.570313 -6.398438 -7.652344 -6.113281 -7.65625 -5.78125 C -7.652344 -5.351563 -7.535156 -4.96875 -7.304688 -4.628906 C -7.066406 -4.289063 -6.753906 -4.054688 -6.371094 -3.929688 C -5.980469 -3.800781 -5.265625 -3.738281 -4.226563 -3.742188 L 0 -3.742188 L 0 -1.273438 L -9.335938 -1.273438 L -9.335938 -3.570313 L -7.960938 -3.570313 C -9.015625 -4.378906 -9.542969 -5.40625 -9.546875 -6.644531 C -9.542969 -7.1875 -9.445313 -7.683594 -9.25 -8.136719 C -9.050781 -8.585938 -8.800781 -8.925781 -8.5 -9.160156 C -8.191406 -9.386719 -7.84375 -9.550781 -7.460938 -9.644531 C -7.070313 -9.734375 -6.519531 -9.777344 -5.800781 -9.78125 Z M 0 -9.78125 "/>
</symbol>
<symbol overflow="visible" id="glyph3-13">
<path style="stroke:none;" d="M -2.664063 -0.421875 L -3.039063 -2.898438 C -2.558594 -3.003906 -2.195313 -3.21875 -1.945313 -3.539063 C -1.695313 -3.859375 -1.570313 -4.308594 -1.574219 -4.894531 C -1.570313 -5.527344 -1.6875 -6.007813 -1.925781 -6.335938 C -2.085938 -6.550781 -2.304688 -6.660156 -2.585938 -6.664063 C -2.769531 -6.660156 -2.925781 -6.601563 -3.050781 -6.484375 C -3.164063 -6.359375 -3.273438 -6.085938 -3.375 -5.660156 C -3.8125 -3.667969 -4.210938 -2.402344 -4.578125 -1.871094 C -5.078125 -1.128906 -5.78125 -0.761719 -6.679688 -0.765625 C -7.484375 -0.761719 -8.164063 -1.082031 -8.71875 -1.722656 C -9.269531 -2.359375 -9.542969 -3.347656 -9.546875 -4.695313 C -9.542969 -5.96875 -9.335938 -6.917969 -8.921875 -7.539063 C -8.503906 -8.160156 -7.886719 -8.589844 -7.074219 -8.824219 L -6.644531 -6.496094 C -7.003906 -6.390625 -7.28125 -6.199219 -7.476563 -5.925781 C -7.671875 -5.644531 -7.769531 -5.25 -7.769531 -4.738281 C -7.769531 -4.085938 -7.675781 -3.621094 -7.496094 -3.339844 C -7.363281 -3.152344 -7.199219 -3.058594 -6.996094 -3.058594 C -6.820313 -3.058594 -6.667969 -3.140625 -6.546875 -3.304688 C -6.378906 -3.527344 -6.148438 -4.296875 -5.851563 -5.613281 C -5.550781 -6.925781 -5.183594 -7.84375 -4.753906 -8.367188 C -4.308594 -8.882813 -3.699219 -9.140625 -2.917969 -9.140625 C -2.058594 -9.140625 -1.320313 -8.78125 -0.710938 -8.066406 C -0.09375 -7.351563 0.210938 -6.292969 0.210938 -4.894531 C 0.210938 -3.621094 -0.046875 -2.617188 -0.5625 -1.875 C -1.078125 -1.132813 -1.777344 -0.648438 -2.664063 -0.421875 Z M -2.664063 -0.421875 "/>
</symbol>
<symbol overflow="visible" id="glyph4-0">
<path style="stroke:none;" d="M 2 0 L 2 -10 L 10 -10 L 10 0 Z M 2.25 -0.25 L 9.75 -0.25 L 9.75 -9.75 L 2.25 -9.75 Z M 2.25 -0.25 "/>
</symbol>
<symbol overflow="visible" id="glyph4-1">
<path style="stroke:none;" d="M 1.171875 -11.453125 L 5.75 -11.453125 C 6.652344 -11.449219 7.328125 -11.410156 7.777344 -11.339844 C 8.21875 -11.261719 8.617188 -11.105469 8.972656 -10.867188 C 9.320313 -10.625 9.613281 -10.304688 9.851563 -9.910156 C 10.082031 -9.507813 10.199219 -9.0625 10.203125 -8.570313 C 10.199219 -8.03125 10.054688 -7.539063 9.769531 -7.09375 C 9.476563 -6.644531 9.085938 -6.308594 8.59375 -6.085938 C 9.289063 -5.878906 9.824219 -5.53125 10.203125 -5.046875 C 10.574219 -4.554688 10.761719 -3.980469 10.765625 -3.320313 C 10.761719 -2.796875 10.640625 -2.289063 10.402344 -1.800781 C 10.15625 -1.304688 9.828125 -0.914063 9.410156 -0.621094 C 8.988281 -0.324219 8.46875 -0.140625 7.859375 -0.078125 C 7.46875 -0.03125 6.539063 -0.0078125 5.070313 0 L 1.171875 0 Z M 3.484375 -9.546875 L 3.484375 -6.898438 L 5 -6.898438 C 5.898438 -6.894531 6.460938 -6.910156 6.679688 -6.9375 C 7.074219 -6.984375 7.382813 -7.121094 7.613281 -7.347656 C 7.835938 -7.574219 7.949219 -7.871094 7.953125 -8.242188 C 7.949219 -8.59375 7.851563 -8.882813 7.660156 -9.105469 C 7.460938 -9.324219 7.171875 -9.457031 6.789063 -9.507813 C 6.558594 -9.53125 5.898438 -9.542969 4.8125 -9.546875 Z M 3.484375 -4.992188 L 3.484375 -1.929688 L 5.625 -1.929688 C 6.457031 -1.925781 6.984375 -1.949219 7.210938 -2 C 7.550781 -2.058594 7.832031 -2.210938 8.050781 -2.457031 C 8.265625 -2.695313 8.371094 -3.019531 8.375 -3.429688 C 8.371094 -3.769531 8.289063 -4.0625 8.125 -4.304688 C 7.957031 -4.542969 7.714844 -4.71875 7.402344 -4.828125 C 7.082031 -4.9375 6.398438 -4.992188 5.351563 -4.992188 Z M 3.484375 -4.992188 "/>
</symbol>
</g>
<clipPath id="clip1">
  <path d="M 59 38 L 90 38 L 90 309.359375 L 59 309.359375 Z M 59 38 "/>
</clipPath>
<clipPath id="clip2">
  <path d="M 58 38 L 90 38 L 90 309.359375 L 58 309.359375 Z M 58 38 "/>
</clipPath>
<clipPath id="clip3">
  <path d="M 89 55 L 119 55 L 119 309.359375 L 89 309.359375 Z M 89 55 "/>
</clipPath>
<clipPath id="clip4">
  <path d="M 88 55 L 120 55 L 120 309.359375 L 88 309.359375 Z M 88 55 "/>
</clipPath>
<clipPath id="clip5">
  <path d="M 118 116 L 149 116 L 149 309.359375 L 118 309.359375 Z M 118 116 "/>
</clipPath>
<clipPath id="clip6">
  <path d="M 118 115 L 150 115 L 150 309.359375 L 118 309.359375 Z M 118 115 "/>
</clipPath>
<clipPath id="clip7">
  <path d="M 148 147 L 179 147 L 179 309.359375 L 148 309.359375 Z M 148 147 "/>
</clipPath>
<clipPath id="clip8">
  <path d="M 148 147 L 180 147 L 180 309.359375 L 148 309.359375 Z M 148 147 "/>
</clipPath>
<clipPath id="clip9">
  <path d="M 178 194 L 209 194 L 209 309.359375 L 178 309.359375 Z M 178 194 "/>
</clipPath>
<clipPath id="clip10">
  <path d="M 178 193 L 210 193 L 210 309.359375 L 178 309.359375 Z M 178 193 "/>
</clipPath>
<clipPath id="clip11">
  <path d="M 208 191 L 239 191 L 239 309.359375 L 208 309.359375 Z M 208 191 "/>
</clipPath>
<clipPath id="clip12">
  <path d="M 208 190 L 240 190 L 240 309.359375 L 208 309.359375 Z M 208 190 "/>
</clipPath>
<clipPath id="clip13">
  <path d="M 238 199 L 269 199 L 269 309.359375 L 238 309.359375 Z M 238 199 "/>
</clipPath>
<clipPath id="clip14">
  <path d="M 268 243 L 299 243 L 299 309.359375 L 268 309.359375 Z M 268 243 "/>
</clipPath>
<clipPath id="clip15">
  <path d="M 268 242 L 299 242 L 299 309.359375 L 268 309.359375 Z M 268 242 "/>
</clipPath>
<clipPath id="clip16">
  <path d="M 298 263 L 329 263 L 329 309.359375 L 298 309.359375 Z M 298 263 "/>
</clipPath>
<clipPath id="clip17">
  <path d="M 298 262 L 329 262 L 329 309.359375 L 298 309.359375 Z M 298 262 "/>
</clipPath>
<clipPath id="clip18">
  <path d="M 328 286 L 359 286 L 359 309.359375 L 328 309.359375 Z M 328 286 "/>
</clipPath>
<clipPath id="clip19">
  <path d="M 328 285 L 359 285 L 359 309.359375 L 328 309.359375 Z M 328 285 "/>
</clipPath>
<clipPath id="clip20">
  <path d="M 358 283 L 389 283 L 389 309.359375 L 358 309.359375 Z M 358 283 "/>
</clipPath>
<clipPath id="clip21">
  <path d="M 388 283 L 419 283 L 419 309.359375 L 388 309.359375 Z M 388 283 "/>
</clipPath>
<clipPath id="clip22">
  <path d="M 418 300 L 449 300 L 449 309.359375 L 418 309.359375 Z M 418 300 "/>
</clipPath>
<clipPath id="clip23">
  <path d="M 417 300 L 449 300 L 449 309.359375 L 417 309.359375 Z M 417 300 "/>
</clipPath>
<clipPath id="clip24">
  <path d="M 448 303 L 479 303 L 479 309.359375 L 448 309.359375 Z M 448 303 "/>
</clipPath>
<clipPath id="clip25">
  <path d="M 447 303 L 479 303 L 479 309.359375 L 447 309.359375 Z M 447 303 "/>
</clipPath>
<clipPath id="clip26">
  <path d="M 478 303 L 509 303 L 509 309.359375 L 478 309.359375 Z M 478 303 "/>
</clipPath>
<clipPath id="clip27">
  <path d="M 477 303 L 509 303 L 509 309.359375 L 477 309.359375 Z M 477 303 "/>
</clipPath>
<clipPath id="clip28">
  <path d="M 508 306 L 539 306 L 539 309.359375 L 508 309.359375 Z M 508 306 "/>
</clipPath>
<clipPath id="clip29">
  <path d="M 507 306 L 539 306 L 539 309.359375 L 507 309.359375 Z M 507 306 "/>
</clipPath>
<clipPath id="clip30">
  <path d="M 49 7 L 548.160156 7 L 548.160156 309.359375 L 49 309.359375 Z M 49 7 "/>
</clipPath>
</defs>
<g id="surface26">
<path style=" stroke:none;fill-rule:evenodd;fill:rgb(100%,99.99969%,100%);fill-opacity:1;" d="M 0 359.761719 L 550.078125 359.761719 L 550.078125 0 L 0 0 Z M 0 359.761719 "/>
<g clip-path="url(#clip1)" clip-rule="nonzero">
<path style=" stroke:none;fill-rule:evenodd;fill:rgb(100%,79.375%,25%);fill-opacity:1;" d="M 59.109375 309.316406 L 59.109375 38.433594 L 89.039063 38.433594 L 89.039063 309.316406 Z M 59.109375 309.316406 "/>
</g>
<g clip-path="url(#clip2)" clip-rule="nonzero">
<path style="fill:none;stroke-width:0.5;stroke-linecap:square;stroke-linejoin:miter;stroke:rgb(0%,0%,0%);stroke-opacity:0.574;stroke-miterlimit:3.25;" d="M 59.109375 309.316406 L 59.109375 38.433594 L 89.039063 38.433594 L 89.039063 309.316406 Z M 59.109375 309.316406 "/>
</g>
<g clip-path="url(#clip3)" clip-rule="nonzero">
<path style=" stroke:none;fill-rule:evenodd;fill:rgb(100%,79.375%,25%);fill-opacity:1;" d="M 89.039063 309.316406 L 89.039063 55.722656 L 118.972656 55.722656 L 118.972656 309.316406 Z M 89.039063 309.316406 "/>
</g>
<g clip-path="url(#clip4)" clip-rule="nonzero">
<path style="fill:none;stroke-width:0.5;stroke-linecap:square;stroke-linejoin:miter;stroke:rgb(0%,0%,0%);stroke-opacity:0.574;stroke-miterlimit:3.25;" d="M 89.039063 309.316406 L 89.039063 55.722656 L 118.972656 55.722656 L 118.972656 309.316406 Z M 89.039063 309.316406 "/>
</g>
<g clip-path="url(#clip5)" clip-rule="nonzero">
<path style=" stroke:none;fill-rule:evenodd;fill:rgb(100%,79.375%,25%);fill-opacity:1;" d="M 118.972656 309.316406 L 118.972656 116.242188 L 148.90625 116.242188 L 148.90625 309.316406 Z M 118.972656 309.316406 "/>
</g>
<g clip-path="url(#clip6)" clip-rule="nonzero">
<path style="fill:none;stroke-width:0.5;stroke-linecap:square;stroke-linejoin:miter;stroke:rgb(0%,0%,0%);stroke-opacity:0.574;stroke-miterlimit:3.25;" d="M 118.972656 309.316406 L 118.972656 116.242188 L 148.90625 116.242188 L 148.90625 309.316406 Z M 118.972656 309.316406 "/>
</g>
<g clip-path="url(#clip7)" clip-rule="nonzero">
<path style=" stroke:none;fill-rule:evenodd;fill:rgb(100%,79.375%,25%);fill-opacity:1;" d="M 148.90625 309.316406 L 148.90625 147.941406 L 178.835938 147.941406 L 178.835938 309.316406 Z M 148.90625 309.316406 "/>
</g>
<g clip-path="url(#clip8)" clip-rule="nonzero">
<path style="fill:none;stroke-width:0.5;stroke-linecap:square;stroke-linejoin:miter;stroke:rgb(0%,0%,0%);stroke-opacity:0.574;stroke-miterlimit:3.25;" d="M 148.90625 309.316406 L 148.90625 147.941406 L 178.835938 147.941406 L 178.835938 309.316406 Z M 148.90625 309.316406 "/>
</g>
<g clip-path="url(#clip9)" clip-rule="nonzero">
<path style=" stroke:none;fill-rule:evenodd;fill:rgb(100%,79.375%,25%);fill-opacity:1;" d="M 178.835938 309.316406 L 178.835938 194.046875 L 208.769531 194.046875 L 208.769531 309.316406 Z M 178.835938 309.316406 "/>
</g>
<g clip-path="url(#clip10)" clip-rule="nonzero">
<path style="fill:none;stroke-width:0.5;stroke-linecap:square;stroke-linejoin:miter;stroke:rgb(0%,0%,0%);stroke-opacity:0.574;stroke-miterlimit:3.25;" d="M 178.835938 309.316406 L 178.835938 194.046875 L 208.769531 194.046875 L 208.769531 309.316406 Z M 178.835938 309.316406 "/>
</g>
<g clip-path="url(#clip11)" clip-rule="nonzero">
<path style=" stroke:none;fill-rule:evenodd;fill:rgb(100%,79.375%,25%);fill-opacity:1;" d="M 208.769531 309.316406 L 208.769531 191.167969 L 238.699219 191.167969 L 238.699219 309.316406 Z M 208.769531 309.316406 "/>
</g>
<g clip-path="url(#clip12)" clip-rule="nonzero">
<path style="fill:none;stroke-width:0.5;stroke-linecap:square;stroke-linejoin:miter;stroke:rgb(0%,0%,0%);stroke-opacity:0.574;stroke-miterlimit:3.25;" d="M 208.769531 309.316406 L 208.769531 191.167969 L 238.699219 191.167969 L 238.699219 309.316406 Z M 208.769531 309.316406 "/>
</g>
<g clip-path="url(#clip13)" clip-rule="nonzero">
<path style="fill-rule:evenodd;fill:rgb(100%,79.375%,25%);fill-opacity:1;stroke-width:0.5;stroke-linecap:square;stroke-linejoin:miter;stroke:rgb(0%,0%,0%);stroke-opacity:0.574;stroke-miterlimit:3.25;" d="M 238.699219 309.316406 L 238.699219 199.8125 L 268.632813 199.8125 L 268.632813 309.316406 Z M 238.699219 309.316406 "/>
</g>
<g clip-path="url(#clip14)" clip-rule="nonzero">
<path style=" stroke:none;fill-rule:evenodd;fill:rgb(100%,79.375%,25%);fill-opacity:1;" d="M 268.632813 309.316406 L 268.632813 243.039063 L 298.566406 243.039063 L 298.566406 309.316406 Z M 268.632813 309.316406 "/>
</g>
<g clip-path="url(#clip15)" clip-rule="nonzero">
<path style="fill:none;stroke-width:0.5;stroke-linecap:square;stroke-linejoin:miter;stroke:rgb(0%,0%,0%);stroke-opacity:0.574;stroke-miterlimit:3.25;" d="M 268.632813 309.316406 L 268.632813 243.039063 L 298.566406 243.039063 L 298.566406 309.316406 Z M 268.632813 309.316406 "/>
</g>
<g clip-path="url(#clip16)" clip-rule="nonzero">
<path style=" stroke:none;fill-rule:evenodd;fill:rgb(100%,79.375%,25%);fill-opacity:1;" d="M 298.566406 309.316406 L 298.566406 263.210938 L 328.496094 263.210938 L 328.496094 309.316406 Z M 298.566406 309.316406 "/>
</g>
<g clip-path="url(#clip17)" clip-rule="nonzero">
<path style="fill:none;stroke-width:0.5;stroke-linecap:square;stroke-linejoin:miter;stroke:rgb(0%,0%,0%);stroke-opacity:0.574;stroke-miterlimit:3.25;" d="M 298.566406 309.316406 L 298.566406 263.210938 L 328.496094 263.210938 L 328.496094 309.316406 Z M 298.566406 309.316406 "/>
</g>
<g clip-path="url(#clip18)" clip-rule="nonzero">
<path style=" stroke:none;fill-rule:evenodd;fill:rgb(100%,79.375%,25%);fill-opacity:1;" d="M 328.496094 309.316406 L 328.496094 286.265625 L 358.429688 286.265625 L 358.429688 309.316406 Z M 328.496094 309.316406 "/>
</g>
<g clip-path="url(#clip19)" clip-rule="nonzero">
<path style="fill:none;stroke-width:0.5;stroke-linecap:square;stroke-linejoin:miter;stroke:rgb(0%,0%,0%);stroke-opacity:0.574;stroke-miterlimit:3.25;" d="M 328.496094 309.316406 L 328.496094 286.265625 L 358.429688 286.265625 L 358.429688 309.316406 Z M 328.496094 309.316406 "/>
</g>
<g clip-path="url(#clip20)" clip-rule="nonzero">
<path style="fill-rule:evenodd;fill:rgb(100%,79.375%,25%);fill-opacity:1;stroke-width:0.5;stroke-linecap:square;stroke-linejoin:miter;stroke:rgb(0%,0%,0%);stroke-opacity:0.574;stroke-miterlimit:3.25;" d="M 358.429688 309.316406 L 358.429688 283.382813 L 388.363281 283.382813 L 388.363281 309.316406 Z M 358.429688 309.316406 "/>
</g>
<g clip-path="url(#clip21)" clip-rule="nonzero">
<path style="fill-rule:evenodd;fill:rgb(100%,79.375%,25%);fill-opacity:1;stroke-width:0.5;stroke-linecap:square;stroke-linejoin:miter;stroke:rgb(0%,0%,0%);stroke-opacity:0.574;stroke-miterlimit:3.25;" d="M 388.363281 309.316406 L 388.363281 283.382813 L 418.292969 283.382813 L 418.292969 309.316406 Z M 388.363281 309.316406 "/>
</g>
<g clip-path="url(#clip22)" clip-rule="nonzero">
<path style=" stroke:none;fill-rule:evenodd;fill:rgb(100%,79.375%,25%);fill-opacity:1;" d="M 418.292969 309.316406 L 418.292969 300.671875 L 448.226563 300.671875 L 448.226563 309.316406 Z M 418.292969 309.316406 "/>
</g>
<g clip-path="url(#clip23)" clip-rule="nonzero">
<path style="fill:none;stroke-width:0.5;stroke-linecap:square;stroke-linejoin:miter;stroke:rgb(0%,0%,0%);stroke-opacity:0.574;stroke-miterlimit:3.25;" d="M 418.292969 309.316406 L 418.292969 300.671875 L 448.226563 300.671875 L 448.226563 309.316406 Z M 418.292969 309.316406 "/>
</g>
<g clip-path="url(#clip24)" clip-rule="nonzero">
<path style=" stroke:none;fill-rule:evenodd;fill:rgb(100%,79.375%,25%);fill-opacity:1;" d="M 448.226563 309.316406 L 448.226563 303.554688 L 478.160156 303.554688 L 478.160156 309.316406 Z M 448.226563 309.316406 "/>
</g>
<g clip-path="url(#clip25)" clip-rule="nonzero">
<path style="fill:none;stroke-width:0.5;stroke-linecap:square;stroke-linejoin:miter;stroke:rgb(0%,0%,0%);stroke-opacity:0.574;stroke-miterlimit:3.25;" d="M 448.226563 309.316406 L 448.226563 303.554688 L 478.160156 303.554688 L 478.160156 309.316406 Z M 448.226563 309.316406 "/>
</g>
<g clip-path="url(#clip26)" clip-rule="nonzero">
<path style=" stroke:none;fill-rule:evenodd;fill:rgb(100%,79.375%,25%);fill-opacity:1;" d="M 478.160156 309.316406 L 478.160156 303.554688 L 508.089844 303.554688 L 508.089844 309.316406 Z M 478.160156 309.316406 "/>
</g>
<g clip-path="url(#clip27)" clip-rule="nonzero">
<path style="fill:none;stroke-width:0.5;stroke-linecap:square;stroke-linejoin:miter;stroke:rgb(0%,0%,0%);stroke-opacity:0.574;stroke-miterlimit:3.25;" d="M 478.160156 309.316406 L 478.160156 303.554688 L 508.089844 303.554688 L 508.089844 309.316406 Z M 478.160156 309.316406 "/>
</g>
<g clip-path="url(#clip28)" clip-rule="nonzero">
<path style=" stroke:none;fill-rule:evenodd;fill:rgb(100%,79.375%,25%);fill-opacity:1;" d="M 508.089844 309.316406 L 508.089844 306.4375 L 538.023438 306.4375 L 538.023438 309.316406 Z M 508.089844 309.316406 "/>
</g>
<g clip-path="url(#clip29)" clip-rule="nonzero">
<path style="fill:none;stroke-width:0.5;stroke-linecap:square;stroke-linejoin:miter;stroke:rgb(0%,0%,0%);stroke-opacity:0.574;stroke-miterlimit:3.25;" d="M 508.089844 309.316406 L 508.089844 306.4375 L 538.023438 306.4375 L 538.023438 309.316406 Z M 508.089844 309.316406 "/>
</g>
<g clip-path="url(#clip30)" clip-rule="nonzero">
<path style="fill:none;stroke-width:2;stroke-linecap:square;stroke-linejoin:miter;stroke:rgb(0%,0%,100%);stroke-opacity:1;stroke-miterlimit:3.25;" d="M 59.109375 220.132813 L 59.566406 76.855469 L 60.027344 61.109375 L 60.484375 51.8125 L 60.945313 45.296875 L 61.402344 40.355469 L 61.863281 36.441406 L 62.320313 33.246094 L 62.78125 30.589844 L 63.238281 28.351563 L 63.699219 26.449219 L 64.15625 24.820313 L 64.617188 23.417969 L 65.074219 22.210938 L 65.535156 21.167969 L 65.992188 20.269531 L 66.453125 19.5 L 66.910156 18.839844 L 67.371094 18.28125 L 67.828125 17.8125 L 68.289063 17.421875 L 68.746094 17.105469 L 69.207031 16.855469 L 69.664063 16.667969 L 70.125 16.535156 L 70.582031 16.449219 L 71.042969 16.414063 L 71.5 16.425781 L 71.960938 16.472656 L 72.417969 16.558594 L 72.878906 16.683594 L 73.335938 16.835938 L 73.796875 17.023438 L 74.253906 17.238281 L 74.714844 17.476563 L 75.171875 17.746094 L 75.632813 18.035156 L 76.089844 18.347656 L 76.550781 18.683594 L 77.46875 19.410156 L 77.925781 19.800781 L 78.386719 20.210938 L 79.304688 21.074219 L 81.140625 22.972656 L 81.597656 23.476563 L 82.058594 23.992188 L 82.976563 25.058594 L 84.8125 27.304688 L 88.484375 32.167969 L 88.980469 32.859375 L 89.480469 33.554688 L 90.476563 34.964844 L 92.464844 37.847656 L 96.445313 43.816406 L 104.410156 56.253906 L 120.332031 81.609375 L 150.070313 126.195313 L 150.523438 126.832031 L 150.980469 127.46875 L 151.890625 128.734375 L 153.714844 131.25 L 157.355469 136.207031 L 164.644531 145.820313 L 179.222656 163.816406 L 179.714844 164.398438 L 180.210938 164.980469 L 181.199219 166.132813 L 183.175781 168.417969 L 187.128906 172.902344 L 195.035156 181.523438 L 210.847656 197.410156 L 211.769531 198.285156 L 212.691406 199.152344 L 214.535156 200.871094 L 218.226563 204.234375 L 225.605469 210.703125 L 227.449219 212.265625 L 229.292969 213.804688 L 232.984375 216.824219 L 240.359375 222.613281 L 240.859375 222.996094 L 241.359375 223.375 L 242.359375 224.128906 L 244.359375 225.617188 L 248.355469 228.53125 L 256.355469 234.09375 L 256.851563 234.429688 L 257.351563 234.761719 L 258.351563 235.429688 L 260.351563 236.746094 L 264.351563 239.316406 L 272.347656 244.214844 L 272.835938 244.507813 L 273.328125 244.796875 L 274.308594 245.371094 L 276.269531 246.507813 L 280.195313 248.730469 L 288.046875 252.964844 L 288.539063 253.21875 L 289.027344 253.472656 L 290.007813 253.980469 L 291.972656 254.980469 L 295.898438 256.933594 L 303.746094 260.652344 L 304.207031 260.859375 L 304.664063 261.070313 L 305.578125 261.484375 L 307.410156 262.304688 L 311.070313 263.90625 L 318.394531 266.964844 L 320.222656 267.699219 L 322.054688 268.421875 L 325.714844 269.835938 L 333.039063 272.53125 L 335.023438 273.234375 L 337.007813 273.925781 L 340.980469 275.269531 L 348.921875 277.820313 L 350.90625 278.429688 L 352.890625 279.03125 L 356.859375 280.199219 L 364.800781 282.414063 L 365.265625 282.535156 L 365.726563 282.660156 L 366.65625 282.90625 L 368.507813 283.394531 L 372.214844 284.339844 L 379.628906 286.144531 L 380.089844 286.253906 L 380.554688 286.363281 L 381.480469 286.578125 L 383.332031 287.003906 L 387.039063 287.828125 L 394.453125 289.402344 L 394.90625 289.496094 L 395.363281 289.589844 L 396.269531 289.773438 L 398.085938 290.136719 L 401.71875 290.84375 L 408.988281 292.1875 L 409.894531 292.351563 L 410.804688 292.511719 L 412.621094 292.828125 L 416.253906 293.445313 L 423.523438 294.617188 L 424.015625 294.691406 L 424.507813 294.769531 L 425.492188 294.921875 L 427.464844 295.21875 L 431.40625 295.796875 L 439.292969 296.894531 L 439.785156 296.960938 L 440.277344 297.023438 L 441.261719 297.15625 L 443.234375 297.410156 L 447.175781 297.90625 L 455.0625 298.84375 L 455.519531 298.898438 L 455.980469 298.949219 L 456.898438 299.054688 L 458.738281 299.257813 L 462.417969 299.65625 L 469.777344 300.410156 L 470.234375 300.457031 L 470.695313 300.5 L 471.613281 300.589844 L 473.453125 300.765625 L 477.132813 301.109375 L 484.488281 301.761719 L 484.988281 301.800781 L 485.488281 301.84375 L 486.484375 301.929688 L 488.476563 302.09375 L 492.464844 302.410156 L 500.441406 303.011719 L 500.9375 303.046875 L 501.4375 303.082031 L 504.425781 303.292969 L 508.414063 303.5625 L 516.390625 304.070313 L 516.878906 304.097656 L 517.367188 304.128906 L 518.347656 304.1875 L 520.304688 304.304688 L 524.21875 304.527344 L 532.046875 304.949219 L 532.539063 304.972656 L 533.027344 305 L 534.003906 305.046875 L 535.960938 305.144531 L 539.878906 305.335938 L 547.707031 305.691406 L 548.621094 305.730469 L 549.53125 305.769531 L 551.355469 305.847656 L 555.007813 305.996094 L 562.308594 306.277344 L 562.765625 306.296875 L 564.136719 306.34375 L 565.960938 306.410156 L 569.609375 306.539063 L 576.914063 306.777344 L 577.40625 306.792969 L 577.902344 306.808594 L 578.890625 306.839844 L 584.832031 307.015625 L 592.75 307.234375 L 593.742188 307.257813 L 594.730469 307.285156 L 596.710938 307.335938 L 600.671875 307.433594 L 608.589844 307.613281 L 609.050781 307.621094 L 609.515625 307.632813 L 610.4375 307.652344 L 612.285156 307.691406 L 615.980469 307.765625 L 623.375 307.910156 L 624.296875 307.925781 L 625.222656 307.941406 L 627.070313 307.976563 L 630.765625 308.039063 L 638.15625 308.15625 L 639.15625 308.171875 L 640.160156 308.1875 L 642.160156 308.21875 L 646.164063 308.273438 L 654.175781 308.382813 L 654.675781 308.386719 L 655.175781 308.394531 L 656.175781 308.40625 L 658.179688 308.429688 L 662.183594 308.476563 L 670.195313 308.566406 L 670.6875 308.570313 L 671.175781 308.574219 L 672.160156 308.585938 L 674.125 308.605469 L 678.058594 308.640625 L 685.921875 308.710938 L 686.90625 308.71875 L 687.886719 308.726563 L 689.851563 308.746094 L 693.785156 308.777344 L 701.648438 308.832031 L 702.105469 308.835938 L 702.566406 308.839844 L 703.484375 308.84375 L 705.316406 308.859375 L 708.984375 308.882813 L 716.320313 308.925781 L 716.777344 308.925781 L 717.238281 308.929688 L 718.15625 308.933594 L 719.988281 308.945313 L 723.65625 308.964844 L 730.992188 309 L 731.488281 309.003906 L 731.988281 309.003906 L 732.980469 309.011719 L 746.898438 309.066406 L 747.398438 309.070313 L 747.894531 309.070313 L 748.886719 309.074219 L 754.851563 309.097656 L 762.808594 309.121094 L 763.269531 309.125 L 763.734375 309.125 L 764.664063 309.128906 L 766.519531 309.132813 L 770.234375 309.144531 L 777.660156 309.160156 L 778.125 309.164063 L 778.585938 309.164063 L 779.515625 309.167969 L 781.371094 309.171875 L 785.085938 309.179688 L 792.511719 309.195313 L 793.421875 309.195313 L 794.332031 309.199219 L 796.152344 309.203125 L 799.792969 309.207031 L 807.070313 309.21875 L 807.527344 309.222656 L 808.890625 309.222656 L 810.710938 309.226563 L 814.351563 309.230469 L 821.632813 309.242188 L 823.605469 309.242188 L 825.582031 309.246094 L 829.53125 309.25 L 830.023438 309.25 L 830.519531 309.253906 L 833.480469 309.253906 L 837.429688 309.257813 L 837.921875 309.257813 L 838.414063 309.261719 L 841.378906 309.261719 L 853.226563 309.273438 L 855.066406 309.273438 L 856.910156 309.277344 L 861.054688 309.277344 L 861.515625 309.28125 L 864.28125 309.28125 L 867.964844 309.285156 L 871.652344 309.285156 L 875.335938 309.289063 L 882.707031 309.292969 L 886.699219 309.292969 L 890.695313 309.296875 L 899.679688 309.296875 L 900.679688 309.300781 L 906.671875 309.300781 L 914.660156 309.304688 L 926.421875 309.304688 L 930.34375 309.308594 L 947.855469 309.308594 L 949.683594 309.3125 L 983.714844 309.3125 L 984.210938 309.316406 L 1098.097656 309.316406 "/>
</g>
<path style="fill:none;stroke-width:2;stroke-linecap:square;stroke-linejoin:miter;stroke:rgb(0%,0%,0%);stroke-opacity:1;stroke-miterlimit:3.25;" d="M 548 309.316406 L 49.132813 309.316406 "/>
<path style="fill:none;stroke-width:2;stroke-linecap:square;stroke-linejoin:miter;stroke:rgb(0%,0%,0%);stroke-opacity:1;stroke-miterlimit:3.25;" d="M 49.132813 309.316406 L 49.132813 1 "/>
<path style="fill:none;stroke-width:2;stroke-linecap:butt;stroke-linejoin:miter;stroke:rgb(0%,0%,0%);stroke-opacity:1;stroke-miterlimit:3.25;" d="M 59.109375 309.316406 L 59.109375 305.316406 "/>
<g style="fill:rgb(0%,0%,0%);fill-opacity:1;">
  <use xlink:href="#glyph0-1" x="41.591641" y="328.613007"/>
  <use xlink:href="#glyph0-2" x="51.602383" y="328.613007"/>
  <use xlink:href="#glyph0-1" x="56.603359" y="328.613007"/>
  <use xlink:href="#glyph0-1" x="66.614102" y="328.613007"/>
</g>
<path style="fill:none;stroke-width:2;stroke-linecap:butt;stroke-linejoin:miter;stroke:rgb(0%,0%,0%);stroke-opacity:1;stroke-miterlimit:3.25;" d="M 74.074219 309.316406 L 74.074219 306.917969 "/>
<path style="fill:none;stroke-width:2;stroke-linecap:butt;stroke-linejoin:miter;stroke:rgb(0%,0%,0%);stroke-opacity:1;stroke-miterlimit:3.25;" d="M 89.039063 309.316406 L 89.039063 306.917969 "/>
<path style="fill:none;stroke-width:2;stroke-linecap:butt;stroke-linejoin:miter;stroke:rgb(0%,0%,0%);stroke-opacity:1;stroke-miterlimit:3.25;" d="M 104.007813 309.316406 L 104.007813 306.917969 "/>
<path style="fill:none;stroke-width:2;stroke-linecap:butt;stroke-linejoin:miter;stroke:rgb(0%,0%,0%);stroke-opacity:1;stroke-miterlimit:3.25;" d="M 118.972656 309.316406 L 118.972656 306.917969 "/>
<path style="fill:none;stroke-width:2;stroke-linecap:butt;stroke-linejoin:miter;stroke:rgb(0%,0%,0%);stroke-opacity:1;stroke-miterlimit:3.25;" d="M 133.9375 309.316406 L 133.9375 305.316406 "/>
<g style="fill:rgb(0%,0%,0%);fill-opacity:1;">
  <use xlink:href="#glyph0-1" x="116.422012" y="328.613007"/>
  <use xlink:href="#glyph0-2" x="126.432754" y="328.613007"/>
  <use xlink:href="#glyph0-1" x="131.43373" y="328.613007"/>
  <use xlink:href="#glyph0-3" x="141.444473" y="328.613007"/>
</g>
<path style="fill:none;stroke-width:2;stroke-linecap:butt;stroke-linejoin:miter;stroke:rgb(0%,0%,0%);stroke-opacity:1;stroke-miterlimit:3.25;" d="M 148.90625 309.316406 L 148.90625 306.917969 "/>
<path style="fill:none;stroke-width:2;stroke-linecap:butt;stroke-linejoin:miter;stroke:rgb(0%,0%,0%);stroke-opacity:1;stroke-miterlimit:3.25;" d="M 163.871094 309.316406 L 163.871094 306.917969 "/>
<path style="fill:none;stroke-width:2;stroke-linecap:butt;stroke-linejoin:miter;stroke:rgb(0%,0%,0%);stroke-opacity:1;stroke-miterlimit:3.25;" d="M 178.835938 309.316406 L 178.835938 306.917969 "/>
<path style="fill:none;stroke-width:2;stroke-linecap:butt;stroke-linejoin:miter;stroke:rgb(0%,0%,0%);stroke-opacity:1;stroke-miterlimit:3.25;" d="M 193.804688 309.316406 L 193.804688 306.917969 "/>
<path style="fill:none;stroke-width:2;stroke-linecap:butt;stroke-linejoin:miter;stroke:rgb(0%,0%,0%);stroke-opacity:1;stroke-miterlimit:3.25;" d="M 208.769531 309.316406 L 208.769531 305.316406 "/>
<g style="fill:rgb(0%,0%,0%);fill-opacity:1;">
  <use xlink:href="#glyph0-1" x="191.252383" y="328.613007"/>
  <use xlink:href="#glyph0-2" x="201.263125" y="328.613007"/>
  <use xlink:href="#glyph0-4" x="206.264102" y="328.613007"/>
  <use xlink:href="#glyph0-1" x="216.274844" y="328.613007"/>
</g>
<path style="fill:none;stroke-width:2;stroke-linecap:butt;stroke-linejoin:miter;stroke:rgb(0%,0%,0%);stroke-opacity:1;stroke-miterlimit:3.25;" d="M 223.734375 309.316406 L 223.734375 306.917969 "/>
<path style="fill:none;stroke-width:2;stroke-linecap:butt;stroke-linejoin:miter;stroke:rgb(0%,0%,0%);stroke-opacity:1;stroke-miterlimit:3.25;" d="M 238.699219 309.316406 L 238.699219 306.917969 "/>
<path style="fill:none;stroke-width:2;stroke-linecap:butt;stroke-linejoin:miter;stroke:rgb(0%,0%,0%);stroke-opacity:1;stroke-miterlimit:3.25;" d="M 253.667969 309.316406 L 253.667969 306.917969 "/>
<path style="fill:none;stroke-width:2;stroke-linecap:butt;stroke-linejoin:miter;stroke:rgb(0%,0%,0%);stroke-opacity:1;stroke-miterlimit:3.25;" d="M 268.632813 309.316406 L 268.632813 306.917969 "/>
<path style="fill:none;stroke-width:2;stroke-linecap:butt;stroke-linejoin:miter;stroke:rgb(0%,0%,0%);stroke-opacity:1;stroke-miterlimit:3.25;" d="M 283.597656 309.316406 L 283.597656 305.316406 "/>
<g style="fill:rgb(0%,0%,0%);fill-opacity:1;">
  <use xlink:href="#glyph0-1" x="266.082754" y="328.613007"/>
  <use xlink:href="#glyph0-2" x="276.093496" y="328.613007"/>
  <use xlink:href="#glyph0-4" x="281.094473" y="328.613007"/>
  <use xlink:href="#glyph0-3" x="291.105215" y="328.613007"/>
</g>
<path style="fill:none;stroke-width:2;stroke-linecap:butt;stroke-linejoin:miter;stroke:rgb(0%,0%,0%);stroke-opacity:1;stroke-miterlimit:3.25;" d="M 298.566406 309.316406 L 298.566406 306.917969 "/>
<path style="fill:none;stroke-width:2;stroke-linecap:butt;stroke-linejoin:miter;stroke:rgb(0%,0%,0%);stroke-opacity:1;stroke-miterlimit:3.25;" d="M 313.53125 309.316406 L 313.53125 306.917969 "/>
<path style="fill:none;stroke-width:2;stroke-linecap:butt;stroke-linejoin:miter;stroke:rgb(0%,0%,0%);stroke-opacity:1;stroke-miterlimit:3.25;" d="M 328.496094 309.316406 L 328.496094 306.917969 "/>
<path style="fill:none;stroke-width:2;stroke-linecap:butt;stroke-linejoin:miter;stroke:rgb(0%,0%,0%);stroke-opacity:1;stroke-miterlimit:3.25;" d="M 343.464844 309.316406 L 343.464844 306.917969 "/>
<path style="fill:none;stroke-width:2;stroke-linecap:butt;stroke-linejoin:miter;stroke:rgb(0%,0%,0%);stroke-opacity:1;stroke-miterlimit:3.25;" d="M 358.429688 309.316406 L 358.429688 305.316406 "/>
<g style="fill:rgb(0%,0%,0%);fill-opacity:1;">
  <use xlink:href="#glyph0-1" x="340.913125" y="328.613007"/>
  <use xlink:href="#glyph0-2" x="350.923867" y="328.613007"/>
  <use xlink:href="#glyph0-5" x="355.924844" y="328.613007"/>
  <use xlink:href="#glyph0-1" x="365.935586" y="328.613007"/>
</g>
<path style="fill:none;stroke-width:2;stroke-linecap:butt;stroke-linejoin:miter;stroke:rgb(0%,0%,0%);stroke-opacity:1;stroke-miterlimit:3.25;" d="M 373.394531 309.316406 L 373.394531 306.917969 "/>
<path style="fill:none;stroke-width:2;stroke-linecap:butt;stroke-linejoin:miter;stroke:rgb(0%,0%,0%);stroke-opacity:1;stroke-miterlimit:3.25;" d="M 388.363281 309.316406 L 388.363281 306.917969 "/>
<path style="fill:none;stroke-width:2;stroke-linecap:butt;stroke-linejoin:miter;stroke:rgb(0%,0%,0%);stroke-opacity:1;stroke-miterlimit:3.25;" d="M 403.328125 309.316406 L 403.328125 306.917969 "/>
<path style="fill:none;stroke-width:2;stroke-linecap:butt;stroke-linejoin:miter;stroke:rgb(0%,0%,0%);stroke-opacity:1;stroke-miterlimit:3.25;" d="M 418.292969 309.316406 L 418.292969 306.917969 "/>
<path style="fill:none;stroke-width:2;stroke-linecap:butt;stroke-linejoin:miter;stroke:rgb(0%,0%,0%);stroke-opacity:1;stroke-miterlimit:3.25;" d="M 433.261719 309.316406 L 433.261719 305.316406 "/>
<g style="fill:rgb(0%,0%,0%);fill-opacity:1;">
  <use xlink:href="#glyph0-1" x="415.743496" y="328.613007"/>
  <use xlink:href="#glyph0-2" x="425.754238" y="328.613007"/>
  <use xlink:href="#glyph0-5" x="430.755215" y="328.613007"/>
  <use xlink:href="#glyph0-3" x="440.765957" y="328.613007"/>
</g>
<path style="fill:none;stroke-width:2;stroke-linecap:butt;stroke-linejoin:miter;stroke:rgb(0%,0%,0%);stroke-opacity:1;stroke-miterlimit:3.25;" d="M 448.226563 309.316406 L 448.226563 306.917969 "/>
<path style="fill:none;stroke-width:2;stroke-linecap:butt;stroke-linejoin:miter;stroke:rgb(0%,0%,0%);stroke-opacity:1;stroke-miterlimit:3.25;" d="M 463.191406 309.316406 L 463.191406 306.917969 "/>
<path style="fill:none;stroke-width:2;stroke-linecap:butt;stroke-linejoin:miter;stroke:rgb(0%,0%,0%);stroke-opacity:1;stroke-miterlimit:3.25;" d="M 478.160156 309.316406 L 478.160156 306.917969 "/>
<path style="fill:none;stroke-width:2;stroke-linecap:butt;stroke-linejoin:miter;stroke:rgb(0%,0%,0%);stroke-opacity:1;stroke-miterlimit:3.25;" d="M 493.125 309.316406 L 493.125 306.917969 "/>
<path style="fill:none;stroke-width:2;stroke-linecap:butt;stroke-linejoin:miter;stroke:rgb(0%,0%,0%);stroke-opacity:1;stroke-miterlimit:3.25;" d="M 508.089844 309.316406 L 508.089844 305.316406 "/>
<g style="fill:rgb(0%,0%,0%);fill-opacity:1;">
  <use xlink:href="#glyph0-1" x="490.573867" y="328.613007"/>
  <use xlink:href="#glyph0-2" x="500.584609" y="328.613007"/>
  <use xlink:href="#glyph0-6" x="505.585586" y="328.613007"/>
  <use xlink:href="#glyph0-1" x="515.596328" y="328.613007"/>
</g>
<path style="fill:none;stroke-width:2;stroke-linecap:butt;stroke-linejoin:miter;stroke:rgb(0%,0%,0%);stroke-opacity:1;stroke-miterlimit:3.25;" d="M 523.054688 309.316406 L 523.054688 306.917969 "/>
<path style="fill:none;stroke-width:2;stroke-linecap:butt;stroke-linejoin:miter;stroke:rgb(0%,0%,0%);stroke-opacity:1;stroke-miterlimit:3.25;" d="M 538.023438 309.316406 L 538.023438 306.917969 "/>
<path style="fill:none;stroke-width:2;stroke-linecap:butt;stroke-linejoin:miter;stroke:rgb(0%,0%,0%);stroke-opacity:1;stroke-miterlimit:3.25;" d="M 49.132813 309.316406 L 53.132813 309.316406 "/>
<g style="fill:rgb(0%,0%,0%);fill-opacity:1;">
  <use xlink:href="#glyph0-1" x="36.120117" y="315.558319"/>
</g>
<path style="fill:none;stroke-width:2;stroke-linecap:butt;stroke-linejoin:miter;stroke:rgb(0%,0%,0%);stroke-opacity:1;stroke-miterlimit:3.25;" d="M 49.132813 294.910156 L 51.53125 294.910156 "/>
<path style="fill:none;stroke-width:2;stroke-linecap:butt;stroke-linejoin:miter;stroke:rgb(0%,0%,0%);stroke-opacity:1;stroke-miterlimit:3.25;" d="M 49.132813 280.5 L 51.53125 280.5 "/>
<path style="fill:none;stroke-width:2;stroke-linecap:butt;stroke-linejoin:miter;stroke:rgb(0%,0%,0%);stroke-opacity:1;stroke-miterlimit:3.25;" d="M 49.132813 266.09375 L 51.53125 266.09375 "/>
<path style="fill:none;stroke-width:2;stroke-linecap:butt;stroke-linejoin:miter;stroke:rgb(0%,0%,0%);stroke-opacity:1;stroke-miterlimit:3.25;" d="M 49.132813 251.683594 L 53.132813 251.683594 "/>
<g style="fill:rgb(0%,0%,0%);fill-opacity:1;">
  <use xlink:href="#glyph0-5" x="36.120117" y="257.923343"/>
</g>
<path style="fill:none;stroke-width:2;stroke-linecap:butt;stroke-linejoin:miter;stroke:rgb(0%,0%,0%);stroke-opacity:1;stroke-miterlimit:3.25;" d="M 49.132813 237.273438 L 51.53125 237.273438 "/>
<path style="fill:none;stroke-width:2;stroke-linecap:butt;stroke-linejoin:miter;stroke:rgb(0%,0%,0%);stroke-opacity:1;stroke-miterlimit:3.25;" d="M 49.132813 222.867188 L 51.53125 222.867188 "/>
<path style="fill:none;stroke-width:2;stroke-linecap:butt;stroke-linejoin:miter;stroke:rgb(0%,0%,0%);stroke-opacity:1;stroke-miterlimit:3.25;" d="M 49.132813 208.457031 L 51.53125 208.457031 "/>
<path style="fill:none;stroke-width:2;stroke-linecap:butt;stroke-linejoin:miter;stroke:rgb(0%,0%,0%);stroke-opacity:1;stroke-miterlimit:3.25;" d="M 49.132813 194.046875 L 53.132813 194.046875 "/>
<g style="fill:rgb(0%,0%,0%);fill-opacity:1;">
  <use xlink:href="#glyph0-7" x="36.120117" y="200.288366"/>
</g>
<path style="fill:none;stroke-width:2;stroke-linecap:butt;stroke-linejoin:miter;stroke:rgb(0%,0%,0%);stroke-opacity:1;stroke-miterlimit:3.25;" d="M 49.132813 179.640625 L 51.53125 179.640625 "/>
<path style="fill:none;stroke-width:2;stroke-linecap:butt;stroke-linejoin:miter;stroke:rgb(0%,0%,0%);stroke-opacity:1;stroke-miterlimit:3.25;" d="M 49.132813 165.230469 L 51.53125 165.230469 "/>
<path style="fill:none;stroke-width:2;stroke-linecap:butt;stroke-linejoin:miter;stroke:rgb(0%,0%,0%);stroke-opacity:1;stroke-miterlimit:3.25;" d="M 49.132813 150.820313 L 51.53125 150.820313 "/>
<path style="fill:none;stroke-width:2;stroke-linecap:butt;stroke-linejoin:miter;stroke:rgb(0%,0%,0%);stroke-opacity:1;stroke-miterlimit:3.25;" d="M 49.132813 136.414063 L 53.132813 136.414063 "/>
<g style="fill:rgb(0%,0%,0%);fill-opacity:1;">
  <use xlink:href="#glyph0-8" x="36.120117" y="142.65339"/>
</g>
<path style="fill:none;stroke-width:2;stroke-linecap:butt;stroke-linejoin:miter;stroke:rgb(0%,0%,0%);stroke-opacity:1;stroke-miterlimit:3.25;" d="M 49.132813 122.003906 L 51.53125 122.003906 "/>
<path style="fill:none;stroke-width:2;stroke-linecap:butt;stroke-linejoin:miter;stroke:rgb(0%,0%,0%);stroke-opacity:1;stroke-miterlimit:3.25;" d="M 49.132813 107.59375 L 51.53125 107.59375 "/>
<path style="fill:none;stroke-width:2;stroke-linecap:butt;stroke-linejoin:miter;stroke:rgb(0%,0%,0%);stroke-opacity:1;stroke-miterlimit:3.25;" d="M 49.132813 93.1875 L 51.53125 93.1875 "/>
<path style="fill:none;stroke-width:2;stroke-linecap:butt;stroke-linejoin:miter;stroke:rgb(0%,0%,0%);stroke-opacity:1;stroke-miterlimit:3.25;" d="M 49.132813 78.777344 L 53.132813 78.777344 "/>
<g style="fill:rgb(0%,0%,0%);fill-opacity:1;">
  <use xlink:href="#glyph0-9" x="36.120117" y="85.018414"/>
</g>
<path style="fill:none;stroke-width:2;stroke-linecap:butt;stroke-linejoin:miter;stroke:rgb(0%,0%,0%);stroke-opacity:1;stroke-miterlimit:3.25;" d="M 49.132813 64.371094 L 51.53125 64.371094 "/>
<path style="fill:none;stroke-width:2;stroke-linecap:butt;stroke-linejoin:miter;stroke:rgb(0%,0%,0%);stroke-opacity:1;stroke-miterlimit:3.25;" d="M 49.132813 49.960938 L 51.53125 49.960938 "/>
<path style="fill:none;stroke-width:2;stroke-linecap:butt;stroke-linejoin:miter;stroke:rgb(0%,0%,0%);stroke-opacity:1;stroke-miterlimit:3.25;" d="M 49.132813 35.550781 L 51.53125 35.550781 "/>
<path style="fill:none;stroke-width:2;stroke-linecap:butt;stroke-linejoin:miter;stroke:rgb(0%,0%,0%);stroke-opacity:1;stroke-miterlimit:3.25;" d="M 49.132813 21.144531 L 53.132813 21.144531 "/>
<g style="fill:rgb(0%,0%,0%);fill-opacity:1;">
  <use xlink:href="#glyph0-4" x="26.109375" y="27.383437"/>
  <use xlink:href="#glyph0-1" x="36.120117" y="27.383437"/>
</g>
<path style="fill:none;stroke-width:2;stroke-linecap:butt;stroke-linejoin:miter;stroke:rgb(0%,0%,0%);stroke-opacity:1;stroke-miterlimit:3.25;" d="M 49.132813 6.734375 L 51.53125 6.734375 "/>
<g style="fill:rgb(0%,0%,0%);fill-opacity:1;">
  <use xlink:href="#glyph1-1" x="292.134521" y="354.722382"/>
</g>
<g style="fill:rgb(0%,0%,0%);fill-opacity:1;">
  <use xlink:href="#glyph2-1" x="300.277588" y="358.041132"/>
</g>
<g style="fill:rgb(0%,0%,0%);fill-opacity:1;">
  <use xlink:href="#glyph3-1" x="16.294922" y="236.677597"/>
  <use xlink:href="#glyph3-2" x="16.294922" y="224.671738"/>
  <use xlink:href="#glyph3-3" x="16.294922" y="217.666855"/>
  <use xlink:href="#glyph3-4" x="16.294922" y="206.671738"/>
  <use xlink:href="#glyph3-5" x="16.294922" y="195.676621"/>
  <use xlink:href="#glyph3-4" x="16.294922" y="185.665878"/>
  <use xlink:href="#glyph3-6" x="16.294922" y="174.670761"/>
  <use xlink:href="#glyph3-7" x="16.294922" y="169.669785"/>
  <use xlink:href="#glyph3-6" x="16.294922" y="164.668808"/>
  <use xlink:href="#glyph3-8" x="16.294922" y="159.667831"/>
  <use xlink:href="#glyph3-9" x="16.294922" y="153.673691"/>
</g>
<g style="fill:rgb(0%,0%,0%);fill-opacity:1;">
  <use xlink:href="#glyph3-10" x="16.294922" y="138.661972"/>
  <use xlink:href="#glyph3-11" x="16.294922" y="125.662949"/>
  <use xlink:href="#glyph3-12" x="16.294922" y="115.652206"/>
  <use xlink:href="#glyph3-13" x="16.294922" y="104.657089"/>
  <use xlink:href="#glyph3-6" x="16.294922" y="94.646347"/>
  <use xlink:href="#glyph3-8" x="16.294922" y="89.645371"/>
  <use xlink:href="#glyph3-9" x="16.294922" y="83.65123"/>
</g>
<g style="fill:rgb(0%,0%,0%);fill-opacity:1;">
  <use xlink:href="#glyph4-1" x="98.229121" y="26.690078"/>
</g>
</g>
</svg>
