<?xml version="1.0" encoding="UTF-8"?>
<svg xmlns="http://www.w3.org/2000/svg" xmlns:xlink="http://www.w3.org/1999/xlink" width="512pt" height="332pt" viewBox="0 0 512 332" version="1.1">
<defs>
<g>
<symbol overflow="visible" id="glyph0-0">
<path style="stroke:none;" d="M 2 0 L 2 -10 L 10 -10 L 10 0 Z M 2.25 -0.25 L 9.75 -0.25 L 9.75 -9.75 L 2.25 -9.75 Z M 2.25 -0.25 "/>
</symbol>
<symbol overflow="visible" id="glyph0-1">
<path style="stroke:none;" d="M 1.148438 -11.453125 L 3.460938 -11.453125 L 3.460938 -5.25 C 3.457031 -4.265625 3.484375 -3.625 3.546875 -3.335938 C 3.640625 -2.863281 3.878906 -2.488281 4.253906 -2.207031 C 4.625 -1.921875 5.132813 -1.78125 5.78125 -1.78125 C 6.433594 -1.78125 6.929688 -1.914063 7.265625 -2.183594 C 7.597656 -2.449219 7.796875 -2.777344 7.867188 -3.171875 C 7.933594 -3.558594 7.96875 -4.207031 7.96875 -5.117188 L 7.96875 -11.453125 L 10.28125 -11.453125 L 10.28125 -5.4375 C 10.277344 -4.0625 10.214844 -3.089844 10.09375 -2.523438 C 9.964844 -1.953125 9.734375 -1.472656 9.402344 -1.085938 C 9.0625 -0.691406 8.613281 -0.382813 8.054688 -0.152344 C 7.488281 0.078125 6.753906 0.191406 5.851563 0.195313 C 4.753906 0.191406 3.925781 0.0703125 3.363281 -0.183594 C 2.796875 -0.433594 2.347656 -0.761719 2.023438 -1.167969 C 1.691406 -1.566406 1.476563 -1.992188 1.375 -2.4375 C 1.222656 -3.09375 1.148438 -4.0625 1.148438 -5.34375 Z M 1.148438 -11.453125 "/>
</symbol>
<symbol overflow="visible" id="glyph0-2">
<path style="stroke:none;" d="M 8.695313 0 L 6.5 0 L 6.5 -4.234375 C 6.496094 -5.128906 6.449219 -5.707031 6.359375 -5.972656 C 6.261719 -6.230469 6.109375 -6.4375 5.902344 -6.585938 C 5.6875 -6.730469 5.433594 -6.800781 5.140625 -6.804688 C 4.757813 -6.800781 4.417969 -6.699219 4.117188 -6.492188 C 3.8125 -6.28125 3.605469 -6.003906 3.496094 -5.664063 C 3.382813 -5.316406 3.328125 -4.679688 3.328125 -3.757813 L 3.328125 0 L 1.132813 0 L 1.132813 -8.296875 L 3.171875 -8.296875 L 3.171875 -7.078125 C 3.890625 -8.015625 4.804688 -8.484375 5.90625 -8.484375 C 6.390625 -8.484375 6.832031 -8.394531 7.234375 -8.222656 C 7.632813 -8.042969 7.9375 -7.820313 8.144531 -7.554688 C 8.347656 -7.28125 8.488281 -6.976563 8.574219 -6.632813 C 8.652344 -6.289063 8.695313 -5.796875 8.695313 -5.15625 Z M 8.695313 0 "/>
</symbol>
<symbol overflow="visible" id="glyph0-3">
<path style="stroke:none;" d="M 1.148438 -9.421875 L 1.148438 -11.453125 L 3.34375 -11.453125 L 3.34375 -9.421875 Z M 1.148438 0 L 1.148438 -8.296875 L 3.34375 -8.296875 L 3.34375 0 Z M 1.148438 0 "/>
</symbol>
<symbol overflow="visible" id="glyph0-4">
<path style="stroke:none;" d="M 0.1875 -8.296875 L 1.40625 -8.296875 L 1.40625 -8.921875 C 1.40625 -9.617188 1.480469 -10.136719 1.628906 -10.484375 C 1.777344 -10.824219 2.050781 -11.105469 2.449219 -11.324219 C 2.847656 -11.539063 3.351563 -11.648438 3.960938 -11.648438 C 4.585938 -11.648438 5.195313 -11.554688 5.796875 -11.367188 L 5.5 -9.835938 C 5.148438 -9.917969 4.8125 -9.960938 4.492188 -9.960938 C 4.171875 -9.960938 3.945313 -9.886719 3.808594 -9.738281 C 3.667969 -9.589844 3.597656 -9.304688 3.601563 -8.882813 L 3.601563 -8.296875 L 5.242188 -8.296875 L 5.242188 -6.570313 L 3.601563 -6.570313 L 3.601563 0 L 1.40625 0 L 1.40625 -6.570313 L 0.1875 -6.570313 Z M 0.1875 -8.296875 "/>
</symbol>
<symbol overflow="visible" id="glyph0-5">
<path style="stroke:none;" d="M 0.640625 -4.265625 C 0.636719 -4.992188 0.816406 -5.695313 1.179688 -6.382813 C 1.535156 -7.0625 2.046875 -7.585938 2.707031 -7.945313 C 3.363281 -8.304688 4.097656 -8.484375 4.914063 -8.484375 C 6.167969 -8.484375 7.195313 -8.074219 8 -7.261719 C 8.796875 -6.441406 9.199219 -5.414063 9.203125 -4.171875 C 9.199219 -2.914063 8.792969 -1.871094 7.988281 -1.050781 C 7.175781 -0.222656 6.15625 0.1875 4.929688 0.1875 C 4.164063 0.1875 3.441406 0.015625 2.753906 -0.328125 C 2.0625 -0.671875 1.535156 -1.175781 1.179688 -1.839844 C 0.816406 -2.503906 0.636719 -3.3125 0.640625 -4.265625 Z M 2.890625 -4.148438 C 2.886719 -3.324219 3.082031 -2.691406 3.476563 -2.257813 C 3.863281 -1.816406 4.347656 -1.597656 4.921875 -1.601563 C 5.492188 -1.597656 5.972656 -1.816406 6.363281 -2.257813 C 6.75 -2.691406 6.941406 -3.328125 6.945313 -4.164063 C 6.941406 -4.972656 6.75 -5.597656 6.363281 -6.039063 C 5.972656 -6.472656 5.492188 -6.691406 4.921875 -6.695313 C 4.347656 -6.691406 3.863281 -6.472656 3.476563 -6.039063 C 3.082031 -5.597656 2.886719 -4.96875 2.890625 -4.148438 Z M 2.890625 -4.148438 "/>
</symbol>
<symbol overflow="visible" id="glyph0-6">
<path style="stroke:none;" d="M 3.25 0 L 1.054688 0 L 1.054688 -8.296875 L 3.09375 -8.296875 L 3.09375 -7.117188 C 3.441406 -7.671875 3.753906 -8.039063 4.035156 -8.21875 C 4.3125 -8.394531 4.628906 -8.484375 4.984375 -8.484375 C 5.480469 -8.484375 5.960938 -8.34375 6.429688 -8.070313 L 5.75 -6.15625 C 5.375 -6.394531 5.03125 -6.515625 4.71875 -6.515625 C 4.40625 -6.515625 4.148438 -6.429688 3.9375 -6.261719 C 3.722656 -6.089844 3.554688 -5.785156 3.433594 -5.34375 C 3.308594 -4.898438 3.246094 -3.96875 3.25 -2.5625 Z M 3.25 0 "/>
</symbol>
<symbol overflow="visible" id="glyph0-7">
<path style="stroke:none;" d="M 0.984375 -8.296875 L 3.007813 -8.296875 L 3.007813 -7.164063 C 3.726563 -8.042969 4.589844 -8.484375 5.59375 -8.484375 C 6.121094 -8.484375 6.582031 -8.375 6.976563 -8.15625 C 7.363281 -7.9375 7.683594 -7.605469 7.9375 -7.164063 C 8.300781 -7.605469 8.695313 -7.9375 9.117188 -8.15625 C 9.539063 -8.375 9.988281 -8.484375 10.46875 -8.484375 C 11.074219 -8.484375 11.589844 -8.359375 12.015625 -8.113281 C 12.433594 -7.863281 12.75 -7.5 12.960938 -7.023438 C 13.109375 -6.667969 13.183594 -6.09375 13.1875 -5.304688 L 13.1875 0 L 10.992188 0 L 10.992188 -4.742188 C 10.992188 -5.5625 10.914063 -6.09375 10.765625 -6.335938 C 10.558594 -6.644531 10.246094 -6.800781 9.828125 -6.804688 C 9.515625 -6.800781 9.226563 -6.707031 8.960938 -6.523438 C 8.6875 -6.332031 8.492188 -6.058594 8.375 -5.699219 C 8.25 -5.335938 8.191406 -4.765625 8.195313 -3.984375 L 8.195313 0 L 6 0 L 6 -4.546875 C 6 -5.351563 5.960938 -5.871094 5.882813 -6.109375 C 5.804688 -6.339844 5.683594 -6.515625 5.519531 -6.632813 C 5.355469 -6.746094 5.132813 -6.800781 4.851563 -6.804688 C 4.511719 -6.800781 4.207031 -6.710938 3.9375 -6.53125 C 3.664063 -6.347656 3.46875 -6.085938 3.355469 -5.742188 C 3.234375 -5.398438 3.175781 -4.828125 3.179688 -4.03125 L 3.179688 0 L 0.984375 0 Z M 0.984375 -8.296875 "/>
</symbol>
<symbol overflow="visible" id="glyph0-8">
<path style="stroke:none;" d="M 1.171875 -11.453125 L 5.75 -11.453125 C 6.652344 -11.449219 7.328125 -11.410156 7.777344 -11.339844 C 8.21875 -11.261719 8.617188 -11.105469 8.972656 -10.867188 C 9.320313 -10.625 9.613281 -10.304688 9.851563 -9.910156 C 10.082031 -9.507813 10.199219 -9.0625 10.203125 -8.570313 C 10.199219 -8.03125 10.054688 -7.539063 9.769531 -7.09375 C 9.476563 -6.644531 9.085938 -6.308594 8.59375 -6.085938 C 9.289063 -5.878906 9.824219 -5.53125 10.203125 -5.046875 C 10.574219 -4.554688 10.761719 -3.980469 10.765625 -3.320313 C 10.761719 -2.796875 10.640625 -2.289063 10.402344 -1.800781 C 10.15625 -1.304688 9.828125 -0.914063 9.410156 -0.621094 C 8.988281 -0.324219 8.46875 -0.140625 7.859375 -0.078125 C 7.46875 -0.03125 6.539063 -0.0078125 5.070313 0 L 1.171875 0 Z M 3.484375 -9.546875 L 3.484375 -6.898438 L 5 -6.898438 C 5.898438 -6.894531 6.460938 -6.910156 6.679688 -6.9375 C 7.074219 -6.984375 7.382813 -7.121094 7.613281 -7.347656 C 7.835938 -7.574219 7.949219 -7.871094 7.953125 -8.242188 C 7.949219 -8.59375 7.851563 -8.882813 7.660156 -9.105469 C 7.460938 -9.324219 7.171875 -9.457031 6.789063 -9.507813 C 6.558594 -9.53125 5.898438 -9.542969 4.8125 -9.546875 Z M 3.484375 -4.992188 L 3.484375 -1.929688 L 5.625 -1.929688 C 6.457031 -1.925781 6.984375 -1.949219 7.210938 -2 C 7.550781 -2.058594 7.832031 -2.210938 8.050781 -2.457031 C 8.265625 -2.695313 8.371094 -3.019531 8.375 -3.429688 C 8.371094 -3.769531 8.289063 -4.0625 8.125 -4.304688 C 7.957031 -4.542969 7.714844 -4.71875 7.402344 -4.828125 C 7.082031 -4.9375 6.398438 -4.992188 5.351563 -4.992188 Z M 3.484375 -4.992188 "/>
</symbol>
<symbol overflow="visible" id="glyph0-9">
<path style="stroke:none;" d="M 5.953125 -2.640625 L 8.140625 -2.273438 C 7.855469 -1.46875 7.414063 -0.855469 6.808594 -0.441406 C 6.199219 -0.0195313 5.4375 0.1875 4.53125 0.1875 C 3.085938 0.1875 2.019531 -0.28125 1.328125 -1.226563 C 0.777344 -1.976563 0.503906 -2.929688 0.507813 -4.085938 C 0.503906 -5.457031 0.863281 -6.535156 1.585938 -7.316406 C 2.300781 -8.09375 3.210938 -8.484375 4.3125 -8.484375 C 5.546875 -8.484375 6.519531 -8.074219 7.234375 -7.261719 C 7.945313 -6.441406 8.285156 -5.195313 8.257813 -3.515625 L 2.757813 -3.515625 C 2.769531 -2.863281 2.945313 -2.355469 3.289063 -1.996094 C 3.625 -1.632813 4.046875 -1.453125 4.554688 -1.453125 C 4.894531 -1.453125 5.183594 -1.546875 5.421875 -1.734375 C 5.652344 -1.921875 5.832031 -2.222656 5.953125 -2.640625 Z M 6.078125 -4.859375 C 6.058594 -5.492188 5.894531 -5.976563 5.585938 -6.308594 C 5.269531 -6.636719 4.890625 -6.800781 4.445313 -6.804688 C 3.964844 -6.800781 3.570313 -6.628906 3.257813 -6.28125 C 2.945313 -5.929688 2.789063 -5.453125 2.796875 -4.859375 Z M 6.078125 -4.859375 "/>
</symbol>
<symbol overflow="visible" id="glyph0-10">
<path style="stroke:none;" d="M 4.953125 -8.296875 L 4.953125 -6.546875 L 3.453125 -6.546875 L 3.453125 -3.203125 C 3.449219 -2.523438 3.464844 -2.128906 3.496094 -2.019531 C 3.523438 -1.90625 3.589844 -1.8125 3.691406 -1.742188 C 3.792969 -1.664063 3.914063 -1.628906 4.0625 -1.632813 C 4.261719 -1.628906 4.558594 -1.699219 4.945313 -1.84375 L 5.132813 -0.140625 C 4.621094 0.078125 4.042969 0.1875 3.398438 0.1875 C 3 0.1875 2.640625 0.121094 2.328125 -0.0117188 C 2.007813 -0.144531 1.777344 -0.316406 1.628906 -0.527344 C 1.480469 -0.738281 1.375 -1.023438 1.320313 -1.382813 C 1.269531 -1.636719 1.246094 -2.152344 1.25 -2.929688 L 1.25 -6.546875 L 0.242188 -6.546875 L 0.242188 -8.296875 L 1.25 -8.296875 L 1.25 -9.945313 L 3.453125 -11.226563 L 3.453125 -8.296875 Z M 4.953125 -8.296875 "/>
</symbol>
<symbol overflow="visible" id="glyph0-11">
<path style="stroke:none;" d="M 2.789063 -5.765625 L 0.796875 -6.125 C 1.019531 -6.921875 1.402344 -7.515625 1.953125 -7.90625 C 2.496094 -8.289063 3.308594 -8.484375 4.390625 -8.484375 C 5.367188 -8.484375 6.097656 -8.367188 6.578125 -8.136719 C 7.054688 -7.902344 7.390625 -7.609375 7.589844 -7.253906 C 7.78125 -6.894531 7.878906 -6.238281 7.882813 -5.289063 L 7.859375 -2.726563 C 7.855469 -1.992188 7.890625 -1.457031 7.964844 -1.113281 C 8.03125 -0.765625 8.164063 -0.394531 8.359375 0 L 6.1875 0 C 6.128906 -0.144531 6.058594 -0.359375 5.976563 -0.648438 C 5.9375 -0.777344 5.910156 -0.863281 5.898438 -0.90625 C 5.519531 -0.539063 5.117188 -0.265625 4.695313 -0.0859375 C 4.265625 0.0976563 3.8125 0.1875 3.328125 0.1875 C 2.472656 0.1875 1.796875 -0.0429688 1.308594 -0.507813 C 0.8125 -0.96875 0.566406 -1.554688 0.570313 -2.265625 C 0.566406 -2.730469 0.679688 -3.148438 0.90625 -3.519531 C 1.128906 -3.882813 1.441406 -4.164063 1.847656 -4.363281 C 2.246094 -4.554688 2.828125 -4.726563 3.59375 -4.875 C 4.617188 -5.066406 5.328125 -5.246094 5.726563 -5.414063 L 5.726563 -5.632813 C 5.722656 -6.050781 5.621094 -6.351563 5.414063 -6.535156 C 5.203125 -6.710938 4.808594 -6.800781 4.234375 -6.804688 C 3.839844 -6.800781 3.535156 -6.726563 3.320313 -6.574219 C 3.097656 -6.417969 2.921875 -6.148438 2.789063 -5.765625 Z M 5.726563 -3.984375 C 5.441406 -3.890625 4.996094 -3.777344 4.390625 -3.648438 C 3.777344 -3.515625 3.378906 -3.386719 3.195313 -3.265625 C 2.90625 -3.058594 2.765625 -2.800781 2.765625 -2.492188 C 2.765625 -2.179688 2.878906 -1.914063 3.109375 -1.695313 C 3.335938 -1.46875 3.628906 -1.359375 3.984375 -1.359375 C 4.378906 -1.359375 4.753906 -1.488281 5.117188 -1.75 C 5.378906 -1.945313 5.554688 -2.1875 5.640625 -2.476563 C 5.695313 -2.660156 5.722656 -3.015625 5.726563 -3.546875 Z M 5.726563 -3.984375 "/>
</symbol>
<symbol overflow="visible" id="glyph0-12">
<path style="stroke:none;" d="M 4.390625 -11.5 C 5.496094 -11.496094 6.363281 -11.101563 6.992188 -10.3125 C 7.734375 -9.375 8.109375 -7.820313 8.109375 -5.648438 C 8.109375 -3.480469 7.734375 -1.921875 6.984375 -0.976563 C 6.363281 -0.195313 5.496094 0.191406 4.390625 0.195313 C 3.273438 0.191406 2.375 -0.234375 1.695313 -1.089844 C 1.007813 -1.945313 0.667969 -3.472656 0.671875 -5.671875 C 0.667969 -7.828125 1.042969 -9.378906 1.796875 -10.328125 C 2.414063 -11.105469 3.277344 -11.496094 4.390625 -11.5 Z M 4.390625 -9.679688 C 4.121094 -9.679688 3.886719 -9.59375 3.679688 -9.425781 C 3.46875 -9.253906 3.304688 -8.949219 3.195313 -8.515625 C 3.039063 -7.945313 2.964844 -6.992188 2.96875 -5.648438 C 2.964844 -4.304688 3.03125 -3.378906 3.171875 -2.878906 C 3.304688 -2.371094 3.476563 -2.039063 3.683594 -1.875 C 3.886719 -1.707031 4.121094 -1.621094 4.390625 -1.625 C 4.652344 -1.621094 4.890625 -1.707031 5.101563 -1.878906 C 5.308594 -2.046875 5.46875 -2.351563 5.585938 -2.789063 C 5.734375 -3.351563 5.8125 -4.304688 5.8125 -5.648438 C 5.8125 -6.992188 5.742188 -7.914063 5.609375 -8.417969 C 5.46875 -8.917969 5.300781 -9.253906 5.097656 -9.425781 C 4.890625 -9.59375 4.652344 -9.679688 4.390625 -9.679688 Z M 4.390625 -9.679688 "/>
</symbol>
<symbol overflow="visible" id="glyph0-13">
<path style="stroke:none;" d="M 0.710938 -2.945313 L 2.898438 -3.171875 C 2.957031 -2.671875 3.140625 -2.28125 3.453125 -1.996094 C 3.757813 -1.703125 4.113281 -1.558594 4.515625 -1.5625 C 4.972656 -1.558594 5.359375 -1.746094 5.679688 -2.121094 C 5.992188 -2.492188 6.152344 -3.050781 6.15625 -3.804688 C 6.152344 -4.503906 5.996094 -5.03125 5.683594 -5.386719 C 5.367188 -5.734375 4.957031 -5.910156 4.453125 -5.914063 C 3.820313 -5.910156 3.253906 -5.632813 2.757813 -5.078125 L 0.976563 -5.335938 L 2.101563 -11.296875 L 7.90625 -11.296875 L 7.90625 -9.242188 L 3.765625 -9.242188 L 3.421875 -7.296875 C 3.910156 -7.539063 4.410156 -7.664063 4.921875 -7.664063 C 5.894531 -7.664063 6.71875 -7.308594 7.398438 -6.601563 C 8.074219 -5.890625 8.414063 -4.972656 8.414063 -3.84375 C 8.414063 -2.898438 8.140625 -2.054688 7.59375 -1.320313 C 6.847656 -0.308594 5.8125 0.191406 4.492188 0.195313 C 3.433594 0.191406 2.570313 -0.0898438 1.90625 -0.65625 C 1.234375 -1.222656 0.835938 -1.984375 0.710938 -2.945313 Z M 0.710938 -2.945313 "/>
</symbol>
<symbol overflow="visible" id="glyph0-14">
<path style="stroke:none;" d="M 6.296875 0 L 4.101563 0 L 4.101563 -8.273438 C 3.296875 -7.523438 2.351563 -6.96875 1.265625 -6.609375 L 1.265625 -8.601563 C 1.835938 -8.789063 2.457031 -9.144531 3.132813 -9.667969 C 3.800781 -10.191406 4.261719 -10.800781 4.515625 -11.5 L 6.296875 -11.5 Z M 6.296875 0 "/>
</symbol>
<symbol overflow="visible" id="glyph0-15">
<path style="stroke:none;" d="M 8.09375 -2.039063 L 8.09375 0 L 0.398438 0 C 0.480469 -0.769531 0.730469 -1.5 1.148438 -2.191406 C 1.5625 -2.878906 2.382813 -3.792969 3.617188 -4.9375 C 4.601563 -5.855469 5.210938 -6.480469 5.4375 -6.8125 C 5.738281 -7.261719 5.886719 -7.710938 5.890625 -8.15625 C 5.886719 -8.644531 5.757813 -9.019531 5.496094 -9.285156 C 5.230469 -9.546875 4.867188 -9.679688 4.40625 -9.679688 C 3.945313 -9.679688 3.578125 -9.539063 3.3125 -9.265625 C 3.039063 -8.984375 2.882813 -8.527344 2.84375 -7.890625 L 0.65625 -8.109375 C 0.785156 -9.316406 1.191406 -10.183594 1.882813 -10.710938 C 2.566406 -11.234375 3.425781 -11.496094 4.460938 -11.5 C 5.585938 -11.496094 6.476563 -11.191406 7.125 -10.585938 C 7.769531 -9.972656 8.089844 -9.214844 8.09375 -8.3125 C 8.089844 -7.792969 8 -7.300781 7.816406 -6.839844 C 7.628906 -6.371094 7.335938 -5.882813 6.9375 -5.375 C 6.671875 -5.03125 6.191406 -4.546875 5.5 -3.914063 C 4.804688 -3.277344 4.367188 -2.855469 4.183594 -2.648438 C 3.996094 -2.4375 3.84375 -2.234375 3.734375 -2.039063 Z M 8.09375 -2.039063 "/>
</symbol>
<symbol overflow="visible" id="glyph0-16">
<path style="stroke:none;" d="M 3.742188 0 L 3.742188 -9.515625 L 0.34375 -9.515625 L 0.34375 -11.453125 L 9.445313 -11.453125 L 9.445313 -9.515625 L 6.054688 -9.515625 L 6.054688 0 Z M 3.742188 0 "/>
</symbol>
<symbol overflow="visible" id="glyph0-17">
<path style="stroke:none;" d="M 8.757813 0 L 6.71875 0 L 6.71875 -1.21875 C 6.378906 -0.742188 5.980469 -0.386719 5.519531 -0.160156 C 5.058594 0.0742188 4.59375 0.1875 4.125 0.1875 C 3.171875 0.1875 2.355469 -0.195313 1.675781 -0.964844 C 0.996094 -1.730469 0.65625 -2.800781 0.65625 -4.179688 C 0.65625 -5.582031 0.984375 -6.652344 1.648438 -7.386719 C 2.304688 -8.117188 3.140625 -8.484375 4.15625 -8.484375 C 5.078125 -8.484375 5.882813 -8.097656 6.5625 -7.328125 L 6.5625 -11.453125 L 8.757813 -11.453125 Z M 2.898438 -4.328125 C 2.894531 -3.441406 3.015625 -2.800781 3.265625 -2.40625 C 3.617188 -1.832031 4.113281 -1.546875 4.75 -1.546875 C 5.253906 -1.546875 5.683594 -1.761719 6.039063 -2.191406 C 6.390625 -2.621094 6.566406 -3.261719 6.570313 -4.117188 C 6.566406 -5.066406 6.394531 -5.753906 6.054688 -6.175781 C 5.707031 -6.59375 5.269531 -6.800781 4.734375 -6.804688 C 4.210938 -6.800781 3.773438 -6.59375 3.425781 -6.183594 C 3.070313 -5.765625 2.894531 -5.148438 2.898438 -4.328125 Z M 2.898438 -4.328125 "/>
</symbol>
<symbol overflow="visible" id="glyph1-0">
<path style="stroke:none;" d="M 0.9375 0 L 0.9375 -11.996094 L 6.5625 -11.996094 L 6.5625 0 Z M 1.875 -0.9375 L 5.625 -0.9375 L 5.625 -11.058594 L 1.875 -11.058594 Z M 1.875 -0.9375 "/>
</symbol>
<symbol overflow="visible" id="glyph1-1">
<path style="stroke:none;" d="M 4.511719 -10.921875 C 4.242188 -10.335938 4 -9.757813 3.785156 -9.191406 C 3.570313 -8.625 3.386719 -8.054688 3.238281 -7.476563 C 3.085938 -6.898438 2.96875 -6.308594 2.886719 -5.714844 C 2.800781 -5.113281 2.757813 -4.488281 2.761719 -3.835938 C 2.757813 -3.207031 2.800781 -2.597656 2.882813 -2.003906 C 2.960938 -1.410156 3.074219 -0.824219 3.230469 -0.25 C 3.378906 0.324219 3.558594 0.890625 3.769531 1.460938 C 3.976563 2.023438 4.214844 2.585938 4.480469 3.148438 L 3.074219 3.148438 C 2.726563 2.625 2.410156 2.085938 2.128906 1.527344 C 1.84375 0.964844 1.605469 0.390625 1.40625 -0.199219 C 1.203125 -0.792969 1.046875 -1.394531 0.941406 -2.011719 C 0.828125 -2.625 0.773438 -3.25 0.777344 -3.882813 C 0.773438 -4.511719 0.828125 -5.136719 0.9375 -5.757813 C 1.042969 -6.375 1.195313 -6.980469 1.402344 -7.574219 C 1.601563 -8.164063 1.847656 -8.742188 2.132813 -9.308594 C 2.417969 -9.867188 2.742188 -10.40625 3.105469 -10.921875 Z M 4.511719 -10.921875 "/>
</symbol>
<symbol overflow="visible" id="glyph1-2">
<path style="stroke:none;" d="M 4.210938 -4.007813 C 4.207031 -3.367188 4.152344 -2.734375 4.050781 -2.109375 C 3.941406 -1.484375 3.789063 -0.867188 3.589844 -0.261719 C 3.386719 0.34375 3.144531 0.929688 2.867188 1.5 C 2.582031 2.070313 2.265625 2.617188 1.917969 3.148438 L 0.511719 3.148438 C 0.769531 2.597656 1.007813 2.039063 1.21875 1.472656 C 1.429688 0.902344 1.609375 0.332031 1.761719 -0.253906 C 1.90625 -0.832031 2.023438 -1.421875 2.109375 -2.023438 C 2.191406 -2.617188 2.230469 -3.222656 2.234375 -3.835938 C 2.230469 -4.488281 2.191406 -5.113281 2.113281 -5.714844 C 2.03125 -6.308594 1.917969 -6.894531 1.769531 -7.472656 C 1.621094 -8.042969 1.4375 -8.613281 1.222656 -9.183594 C 1.007813 -9.746094 0.765625 -10.328125 0.496094 -10.921875 L 1.890625 -10.921875 C 2.246094 -10.414063 2.566406 -9.886719 2.851563 -9.339844 C 3.136719 -8.792969 3.378906 -8.226563 3.582031 -7.640625 C 3.777344 -7.054688 3.933594 -6.457031 4.046875 -5.847656 C 4.152344 -5.238281 4.207031 -4.625 4.210938 -4.007813 Z M 4.210938 -4.007813 "/>
</symbol>
<symbol overflow="visible" id="glyph2-0">
<path style="stroke:none;" d="M 0 -2 L -10 -2 L -10 -10 L 0 -10 Z M -0.25 -2.25 L -0.25 -9.75 L -9.75 -9.75 L -9.75 -2.25 Z M -0.25 -2.25 "/>
</symbol>
<symbol overflow="visible" id="glyph2-1">
<path style="stroke:none;" d="M -11.453125 -1.171875 L -11.453125 -5.75 C -11.449219 -6.652344 -11.410156 -7.328125 -11.339844 -7.777344 C -11.261719 -8.21875 -11.105469 -8.617188 -10.867188 -8.972656 C -10.625 -9.320313 -10.304688 -9.613281 -9.910156 -9.851563 C -9.507813 -10.082031 -9.0625 -10.199219 -8.570313 -10.203125 C -8.03125 -10.199219 -7.539063 -10.054688 -7.09375 -9.769531 C -6.644531 -9.476563 -6.308594 -9.085938 -6.085938 -8.59375 C -5.878906 -9.289063 -5.53125 -9.824219 -5.046875 -10.203125 C -4.554688 -10.574219 -3.980469 -10.761719 -3.320313 -10.765625 C -2.796875 -10.761719 -2.289063 -10.640625 -1.800781 -10.402344 C -1.304688 -10.15625 -0.914063 -9.828125 -0.621094 -9.410156 C -0.324219 -8.988281 -0.140625 -8.46875 -0.078125 -7.859375 C -0.03125 -7.46875 -0.0078125 -6.539063 0 -5.070313 L 0 -1.171875 Z M -9.546875 -3.484375 L -6.898438 -3.484375 L -6.898438 -5 C -6.894531 -5.898438 -6.910156 -6.460938 -6.9375 -6.679688 C -6.984375 -7.074219 -7.121094 -7.382813 -7.347656 -7.613281 C -7.574219 -7.835938 -7.871094 -7.949219 -8.242188 -7.953125 C -8.59375 -7.949219 -8.882813 -7.851563 -9.105469 -7.660156 C -9.324219 -7.460938 -9.457031 -7.171875 -9.507813 -6.789063 C -9.53125 -6.558594 -9.542969 -5.898438 -9.546875 -4.8125 Z M -4.992188 -3.484375 L -1.929688 -3.484375 L -1.929688 -5.625 C -1.925781 -6.457031 -1.949219 -6.984375 -2 -7.210938 C -2.058594 -7.550781 -2.210938 -7.832031 -2.457031 -8.050781 C -2.695313 -8.265625 -3.019531 -8.371094 -3.429688 -8.375 C -3.769531 -8.371094 -4.0625 -8.289063 -4.304688 -8.125 C -4.542969 -7.957031 -4.71875 -7.714844 -4.828125 -7.402344 C -4.9375 -7.082031 -4.992188 -6.398438 -4.992188 -5.351563 Z M -4.992188 -3.484375 "/>
</symbol>
<symbol overflow="visible" id="glyph2-2">
<path style="stroke:none;" d="M -5.765625 -2.789063 L -6.125 -0.796875 C -6.921875 -1.019531 -7.515625 -1.402344 -7.90625 -1.953125 C -8.289063 -2.496094 -8.484375 -3.308594 -8.484375 -4.390625 C -8.484375 -5.367188 -8.367188 -6.097656 -8.136719 -6.578125 C -7.902344 -7.054688 -7.609375 -7.390625 -7.253906 -7.589844 C -6.894531 -7.78125 -6.238281 -7.878906 -5.289063 -7.882813 L -2.726563 -7.859375 C -1.992188 -7.855469 -1.457031 -7.890625 -1.113281 -7.964844 C -0.765625 -8.03125 -0.394531 -8.164063 0 -8.359375 L 0 -6.1875 C -0.144531 -6.128906 -0.359375 -6.058594 -0.648438 -5.976563 C -0.777344 -5.9375 -0.863281 -5.910156 -0.90625 -5.898438 C -0.539063 -5.519531 -0.265625 -5.117188 -0.0859375 -4.695313 C 0.0976563 -4.265625 0.1875 -3.8125 0.1875 -3.328125 C 0.1875 -2.472656 -0.0429688 -1.796875 -0.507813 -1.308594 C -0.96875 -0.8125 -1.554688 -0.566406 -2.265625 -0.570313 C -2.730469 -0.566406 -3.148438 -0.679688 -3.519531 -0.90625 C -3.882813 -1.128906 -4.164063 -1.441406 -4.363281 -1.847656 C -4.554688 -2.246094 -4.726563 -2.828125 -4.875 -3.59375 C -5.066406 -4.617188 -5.246094 -5.328125 -5.414063 -5.726563 L -5.632813 -5.726563 C -6.050781 -5.722656 -6.351563 -5.621094 -6.535156 -5.414063 C -6.710938 -5.203125 -6.800781 -4.808594 -6.804688 -4.234375 C -6.800781 -3.839844 -6.726563 -3.535156 -6.574219 -3.320313 C -6.417969 -3.097656 -6.148438 -2.921875 -5.765625 -2.789063 Z M -3.984375 -5.726563 C -3.890625 -5.441406 -3.777344 -4.996094 -3.648438 -4.390625 C -3.515625 -3.777344 -3.386719 -3.378906 -3.265625 -3.195313 C -3.058594 -2.90625 -2.800781 -2.765625 -2.492188 -2.765625 C -2.179688 -2.765625 -1.914063 -2.878906 -1.695313 -3.109375 C -1.46875 -3.335938 -1.359375 -3.628906 -1.359375 -3.984375 C -1.359375 -4.378906 -1.488281 -4.753906 -1.75 -5.117188 C -1.945313 -5.378906 -2.1875 -5.554688 -2.476563 -5.640625 C -2.660156 -5.695313 -3.015625 -5.722656 -3.546875 -5.726563 Z M -3.984375 -5.726563 "/>
</symbol>
<symbol overflow="visible" id="glyph2-3">
<path style="stroke:none;" d="M -5.84375 -8.382813 L -5.453125 -6.21875 C -5.882813 -6.140625 -6.207031 -5.976563 -6.429688 -5.722656 C -6.644531 -5.460938 -6.753906 -5.125 -6.757813 -4.71875 C -6.753906 -4.167969 -6.566406 -3.734375 -6.191406 -3.410156 C -5.8125 -3.082031 -5.179688 -2.917969 -4.296875 -2.921875 C -3.308594 -2.917969 -2.613281 -3.082031 -2.210938 -3.417969 C -1.800781 -3.746094 -1.597656 -4.191406 -1.601563 -4.75 C -1.597656 -5.164063 -1.71875 -5.503906 -1.957031 -5.773438 C -2.191406 -6.035156 -2.597656 -6.222656 -3.179688 -6.335938 L -2.8125 -8.492188 C -1.820313 -8.265625 -1.070313 -7.835938 -0.570313 -7.203125 C -0.0625 -6.5625 0.1875 -5.710938 0.1875 -4.648438 C 0.1875 -3.429688 -0.195313 -2.464844 -0.960938 -1.746094 C -1.726563 -1.023438 -2.785156 -0.660156 -4.140625 -0.664063 C -5.507813 -0.660156 -6.574219 -1.023438 -7.339844 -1.75 C -8.101563 -2.472656 -8.484375 -3.453125 -8.484375 -4.6875 C -8.484375 -5.695313 -8.265625 -6.496094 -7.832031 -7.097656 C -7.394531 -7.691406 -6.730469 -8.121094 -5.84375 -8.382813 Z M -5.84375 -8.382813 "/>
</symbol>
<symbol overflow="visible" id="glyph2-4">
<path style="stroke:none;" d="M -8.296875 -4.953125 L -6.546875 -4.953125 L -6.546875 -3.453125 L -3.203125 -3.453125 C -2.523438 -3.449219 -2.128906 -3.464844 -2.019531 -3.496094 C -1.90625 -3.523438 -1.8125 -3.589844 -1.742188 -3.691406 C -1.664063 -3.792969 -1.628906 -3.914063 -1.632813 -4.0625 C -1.628906 -4.261719 -1.699219 -4.558594 -1.84375 -4.945313 L -0.140625 -5.132813 C 0.078125 -4.621094 0.1875 -4.042969 0.1875 -3.398438 C 0.1875 -3 0.121094 -2.640625 -0.0117188 -2.328125 C -0.144531 -2.007813 -0.316406 -1.777344 -0.527344 -1.628906 C -0.738281 -1.480469 -1.023438 -1.375 -1.382813 -1.320313 C -1.636719 -1.269531 -2.152344 -1.246094 -2.929688 -1.25 L -6.546875 -1.25 L -6.546875 -0.242188 L -8.296875 -0.242188 L -8.296875 -1.25 L -9.945313 -1.25 L -11.226563 -3.453125 L -8.296875 -3.453125 Z M -8.296875 -4.953125 "/>
</symbol>
<symbol overflow="visible" id="glyph2-5">
<path style="stroke:none;" d="M -2.640625 -5.953125 L -2.273438 -8.140625 C -1.46875 -7.855469 -0.855469 -7.414063 -0.441406 -6.808594 C -0.0195313 -6.199219 0.1875 -5.4375 0.1875 -4.53125 C 0.1875 -3.085938 -0.28125 -2.019531 -1.226563 -1.328125 C -1.976563 -0.777344 -2.929688 -0.503906 -4.085938 -0.507813 C -5.457031 -0.503906 -6.535156 -0.863281 -7.316406 -1.585938 C -8.09375 -2.300781 -8.484375 -3.210938 -8.484375 -4.3125 C -8.484375 -5.546875 -8.074219 -6.519531 -7.261719 -7.234375 C -6.441406 -7.945313 -5.195313 -8.285156 -3.515625 -8.257813 L -3.515625 -2.757813 C -2.863281 -2.769531 -2.355469 -2.945313 -1.996094 -3.289063 C -1.632813 -3.625 -1.453125 -4.046875 -1.453125 -4.554688 C -1.453125 -4.894531 -1.546875 -5.183594 -1.734375 -5.421875 C -1.921875 -5.652344 -2.222656 -5.832031 -2.640625 -5.953125 Z M -4.859375 -6.078125 C -5.492188 -6.058594 -5.976563 -5.894531 -6.308594 -5.585938 C -6.636719 -5.269531 -6.800781 -4.890625 -6.804688 -4.445313 C -6.800781 -3.964844 -6.628906 -3.570313 -6.28125 -3.257813 C -5.929688 -2.945313 -5.453125 -2.789063 -4.859375 -2.796875 Z M -4.859375 -6.078125 "/>
</symbol>
<symbol overflow="visible" id="glyph2-6">
<path style="stroke:none;" d="M 0 -3.25 L 0 -1.054688 L -8.296875 -1.054688 L -8.296875 -3.09375 L -7.117188 -3.09375 C -7.671875 -3.441406 -8.039063 -3.753906 -8.21875 -4.035156 C -8.394531 -4.3125 -8.484375 -4.628906 -8.484375 -4.984375 C -8.484375 -5.480469 -8.34375 -5.960938 -8.070313 -6.429688 L -6.15625 -5.75 C -6.394531 -5.375 -6.515625 -5.03125 -6.515625 -4.71875 C -6.515625 -4.40625 -6.429688 -4.148438 -6.261719 -3.9375 C -6.089844 -3.722656 -5.785156 -3.554688 -5.34375 -3.433594 C -4.898438 -3.308594 -3.96875 -3.246094 -2.5625 -3.25 Z M 0 -3.25 "/>
</symbol>
<symbol overflow="visible" id="glyph2-7">
<path style="stroke:none;" d="M -9.421875 -1.148438 L -11.453125 -1.148438 L -11.453125 -3.34375 L -9.421875 -3.34375 Z M 0 -1.148438 L -8.296875 -1.148438 L -8.296875 -3.34375 L 0 -3.34375 Z M 0 -1.148438 "/>
</symbol>
<symbol overflow="visible" id="glyph2-8">
<path style="stroke:none;" d="M 0 -1.132813 L -11.453125 -1.132813 L -11.453125 -4.59375 L -3.640625 -6.671875 L -11.453125 -8.726563 L -11.453125 -12.195313 L 0 -12.195313 L 0 -10.046875 L -9.015625 -10.046875 L 0 -7.773438 L 0 -5.546875 L -9.015625 -3.28125 L 0 -3.28125 Z M 0 -1.132813 "/>
</symbol>
<symbol overflow="visible" id="glyph3-0">
<path style="stroke:none;" d="M 0 -0.9375 L -11.996094 -0.9375 L -11.996094 -6.5625 L 0 -6.5625 Z M -0.9375 -1.875 L -0.9375 -5.625 L -11.058594 -5.625 L -11.058594 -1.875 Z M -0.9375 -1.875 "/>
</symbol>
<symbol overflow="visible" id="glyph3-1">
<path style="stroke:none;" d="M -10.921875 -4.511719 C -10.335938 -4.242188 -9.757813 -4 -9.191406 -3.785156 C -8.625 -3.570313 -8.054688 -3.386719 -7.476563 -3.238281 C -6.898438 -3.085938 -6.308594 -2.96875 -5.714844 -2.886719 C -5.113281 -2.800781 -4.488281 -2.757813 -3.835938 -2.761719 C -3.207031 -2.757813 -2.597656 -2.800781 -2.003906 -2.882813 C -1.410156 -2.960938 -0.824219 -3.074219 -0.25 -3.230469 C 0.324219 -3.378906 0.890625 -3.558594 1.460938 -3.769531 C 2.023438 -3.976563 2.585938 -4.214844 3.148438 -4.480469 L 3.148438 -3.074219 C 2.625 -2.726563 2.085938 -2.410156 1.527344 -2.128906 C 0.964844 -1.84375 0.390625 -1.605469 -0.199219 -1.40625 C -0.792969 -1.203125 -1.394531 -1.046875 -2.011719 -0.941406 C -2.625 -0.828125 -3.25 -0.773438 -3.882813 -0.777344 C -4.511719 -0.773438 -5.136719 -0.828125 -5.757813 -0.9375 C -6.375 -1.042969 -6.980469 -1.195313 -7.574219 -1.402344 C -8.164063 -1.601563 -8.742188 -1.847656 -9.308594 -2.132813 C -9.867188 -2.417969 -10.40625 -2.742188 -10.921875 -3.105469 Z M -10.921875 -4.511719 "/>
</symbol>
<symbol overflow="visible" id="glyph3-2">
<path style="stroke:none;" d="M -7.785156 -9.785156 L 0 -8.128906 L 0 -6.226563 L -0.929688 -6.421875 C -0.78125 -6.3125 -0.640625 -6.191406 -0.507813 -6.066406 C -0.371094 -5.933594 -0.253906 -5.796875 -0.152344 -5.648438 C -0.0507813 -5.5 0.0273438 -5.339844 0.0898438 -5.167969 C 0.148438 -4.996094 0.179688 -4.816406 0.183594 -4.628906 C 0.179688 -4.261719 0.0859375 -3.96875 -0.113281 -3.75 C -0.308594 -3.53125 -0.582031 -3.386719 -0.929688 -3.316406 L 2.953125 -2.488281 L 2.953125 -0.417969 L -7.785156 -2.703125 L -7.785156 -4.773438 L -4.246094 -4.019531 C -3.984375 -3.964844 -3.726563 -3.910156 -3.472656 -3.863281 C -3.214844 -3.808594 -2.957031 -3.785156 -2.695313 -3.785156 C -2.527344 -3.785156 -2.367188 -3.804688 -2.222656 -3.851563 C -2.070313 -3.890625 -1.941406 -3.957031 -1.828125 -4.050781 C -1.710938 -4.136719 -1.617188 -4.25 -1.554688 -4.382813 C -1.484375 -4.515625 -1.453125 -4.671875 -1.457031 -4.855469 C -1.453125 -5.097656 -1.496094 -5.3125 -1.582031 -5.5 C -1.664063 -5.683594 -1.773438 -5.847656 -1.917969 -5.988281 C -2.058594 -6.128906 -2.222656 -6.25 -2.40625 -6.355469 C -2.585938 -6.457031 -2.78125 -6.546875 -2.988281 -6.625 C -3.191406 -6.699219 -3.398438 -6.761719 -3.609375 -6.8125 C -3.820313 -6.863281 -4.019531 -6.910156 -4.210938 -6.949219 L -7.785156 -7.710938 Z M -7.785156 -9.785156 "/>
</symbol>
<symbol overflow="visible" id="glyph3-3">
<path style="stroke:none;" d="M -4.007813 -4.210938 C -3.367188 -4.207031 -2.734375 -4.152344 -2.109375 -4.050781 C -1.484375 -3.941406 -0.867188 -3.789063 -0.261719 -3.589844 C 0.34375 -3.386719 0.929688 -3.144531 1.5 -2.867188 C 2.070313 -2.582031 2.617188 -2.265625 3.148438 -1.917969 L 3.148438 -0.511719 C 2.597656 -0.769531 2.039063 -1.007813 1.472656 -1.21875 C 0.902344 -1.429688 0.332031 -1.609375 -0.253906 -1.761719 C -0.832031 -1.90625 -1.421875 -2.023438 -2.023438 -2.109375 C -2.617188 -2.191406 -3.222656 -2.230469 -3.835938 -2.234375 C -4.488281 -2.230469 -5.113281 -2.191406 -5.714844 -2.113281 C -6.308594 -2.03125 -6.894531 -1.917969 -7.472656 -1.769531 C -8.042969 -1.621094 -8.613281 -1.4375 -9.183594 -1.222656 C -9.746094 -1.007813 -10.328125 -0.765625 -10.921875 -0.496094 L -10.921875 -1.890625 C -10.414063 -2.246094 -9.886719 -2.566406 -9.339844 -2.851563 C -8.792969 -3.136719 -8.226563 -3.378906 -7.640625 -3.582031 C -7.054688 -3.777344 -6.457031 -3.933594 -5.847656 -4.046875 C -5.238281 -4.152344 -4.625 -4.207031 -4.007813 -4.210938 Z M -4.007813 -4.210938 "/>
</symbol>
</g>
<clipPath id="clip1">
  <path d="M 57 44 L 494 44 L 494 286.320313 L 57 286.320313 Z M 57 44 "/>
</clipPath>
<clipPath id="clip2">
  <path d="M 57 118 L 494 118 L 494 286.320313 L 57 286.320313 Z M 57 118 "/>
</clipPath>
<clipPath id="clip3">
  <path d="M 120.960938 46 L 141 46 L 141 50 L 120.960938 50 Z M 120.960938 46 "/>
</clipPath>
<clipPath id="clip4">
  <path d="M 120.960938 75 L 141 75 L 141 78 L 120.960938 78 Z M 120.960938 75 "/>
</clipPath>
</defs>
<g id="surface61">
<path style=" stroke:none;fill-rule:evenodd;fill:rgb(100%,99.99969%,100%);fill-opacity:1;" d="M 0 331.921875 L 512.160156 331.921875 L 512.160156 0 L 0 0 Z M 0 331.921875 "/>
<g clip-path="url(#clip1)" clip-rule="nonzero">
<path style="fill:none;stroke-width:2;stroke-linecap:square;stroke-linejoin:miter;stroke:rgb(0%,0%,100%);stroke-opacity:1;stroke-miterlimit:3.25;" d="M 66.308594 285.035156 L 68.742188 285.035156 L 68.871094 285.03125 L 69.128906 285.03125 L 69.257813 285.027344 L 69.382813 285.027344 L 69.511719 285.023438 L 69.640625 285.023438 L 69.898438 285.015625 L 70.023438 285.011719 L 70.539063 284.996094 L 70.664063 284.992188 L 70.921875 284.980469 L 71.050781 284.972656 L 71.179688 284.96875 L 71.433594 284.953125 L 71.949219 284.921875 L 72.460938 284.886719 L 72.589844 284.875 L 72.714844 284.863281 L 72.972656 284.84375 L 73.101563 284.832031 L 73.230469 284.816406 L 73.484375 284.792969 L 73.613281 284.777344 L 73.742188 284.765625 L 73.996094 284.734375 L 74.511719 284.671875 L 74.648438 284.652344 L 74.789063 284.632813 L 75.066406 284.59375 L 75.207031 284.570313 L 75.34375 284.550781 L 75.621094 284.503906 L 75.761719 284.480469 L 75.898438 284.453125 L 76.175781 284.402344 L 76.734375 284.289063 L 76.871094 284.257813 L 77.011719 284.222656 L 77.289063 284.15625 L 77.429688 284.121094 L 77.566406 284.085938 L 77.84375 284.011719 L 77.984375 283.972656 L 78.121094 283.929688 L 78.402344 283.84375 L 78.957031 283.65625 L 79.09375 283.605469 L 79.234375 283.554688 L 79.511719 283.445313 L 79.652344 283.386719 L 79.789063 283.328125 L 80.066406 283.203125 L 80.207031 283.136719 L 80.34375 283.070313 L 80.625 282.929688 L 81.179688 282.625 L 81.316406 282.539063 L 81.457031 282.453125 L 81.734375 282.277344 L 81.875 282.183594 L 82.011719 282.085938 L 82.289063 281.882813 L 82.429688 281.777344 L 82.570313 281.667969 L 82.847656 281.4375 L 83.402344 280.9375 L 83.53125 280.8125 L 83.660156 280.683594 L 83.921875 280.414063 L 84.441406 279.832031 L 84.570313 279.675781 L 84.699219 279.515625 L 84.957031 279.183594 L 85.476563 278.460938 L 85.609375 278.273438 L 85.738281 278.074219 L 85.996094 277.667969 L 86.515625 276.796875 L 86.644531 276.566406 L 86.773438 276.332031 L 87.035156 275.84375 L 87.554688 274.8125 L 87.683594 274.542969 L 87.8125 274.265625 L 88.074219 273.699219 L 88.589844 272.511719 L 89.628906 269.9375 L 91.703125 264.433594 L 91.832031 264.101563 L 91.960938 263.773438 L 92.214844 263.121094 L 92.722656 261.859375 L 92.847656 261.550781 L 92.976563 261.25 L 93.230469 260.660156 L 93.738281 259.539063 L 93.867188 259.269531 L 93.992188 259.007813 L 94.25 258.496094 L 94.757813 257.535156 L 95.773438 255.832031 L 95.902344 255.640625 L 96.027344 255.449219 L 96.285156 255.078125 L 96.792969 254.371094 L 97.808594 253.082031 L 97.9375 252.929688 L 98.0625 252.777344 L 98.316406 252.480469 L 98.828125 251.902344 L 99.84375 250.792969 L 99.980469 250.644531 L 100.121094 250.5 L 100.394531 250.210938 L 100.949219 249.636719 L 102.050781 248.511719 L 104.257813 246.324219 L 108.675781 242.121094 L 116.914063 234.746094 L 125.84375 227.34375 L 134.613281 220.585938 L 142.789063 214.695313 L 151.65625 208.714844 L 159.9375 203.484375 L 168.050781 198.664063 L 176.859375 193.757813 L 185.074219 189.460938 L 193.980469 185.09375 L 202.726563 181.082031 L 210.878906 177.570313 L 219.722656 173.996094 L 227.976563 170.871094 L 236.921875 167.703125 L 245.707031 164.792969 L 253.898438 162.257813 L 262.78125 159.683594 L 271.074219 157.4375 L 279.203125 155.378906 L 288.023438 153.292969 L 296.257813 151.480469 L 305.175781 149.652344 L 313.9375 147.988281 L 322.105469 146.546875 L 322.242188 146.523438 L 322.382813 146.5 L 322.660156 146.453125 L 323.210938 146.359375 L 324.320313 146.175781 L 326.535156 145.808594 L 326.671875 145.785156 L 326.8125 145.765625 L 327.089844 145.71875 L 327.640625 145.628906 L 327.78125 145.605469 L 327.917969 145.582031 L 328.195313 145.539063 L 328.75 145.449219 L 328.886719 145.429688 L 329.027344 145.40625 L 329.304688 145.363281 L 329.441406 145.339844 L 329.578125 145.320313 L 329.855469 145.277344 L 329.996094 145.257813 L 330.132813 145.234375 L 330.273438 145.21875 L 330.410156 145.199219 L 330.546875 145.183594 L 330.6875 145.167969 L 330.824219 145.160156 L 330.964844 145.152344 L 331.09375 145.152344 L 331.351563 145.167969 L 331.609375 145.199219 L 331.738281 145.207031 L 331.867188 145.210938 L 331.996094 145.191406 L 332.125 145.152344 L 332.257813 145.085938 L 332.386719 144.988281 L 332.515625 144.863281 L 332.644531 144.710938 L 332.773438 144.535156 L 332.902344 144.339844 L 333.03125 144.125 L 333.160156 143.898438 L 333.289063 143.660156 L 333.546875 143.164063 L 334.066406 142.132813 L 335.097656 140.097656 L 335.355469 139.605469 L 335.617188 139.125 L 336.132813 138.179688 L 337.167969 136.386719 L 339.234375 133.132813 L 339.359375 132.949219 L 339.488281 132.765625 L 339.742188 132.402344 L 340.246094 131.695313 L 341.261719 130.34375 L 341.511719 130.023438 L 341.765625 129.703125 L 342.273438 129.085938 L 343.285156 127.90625 L 343.414063 127.761719 L 343.539063 127.621094 L 343.792969 127.34375 L 344.300781 126.800781 L 345.3125 125.769531 L 347.339844 123.910156 L 347.476563 123.792969 L 347.617188 123.675781 L 347.890625 123.449219 L 348.441406 123.003906 L 349.539063 122.164063 L 349.675781 122.0625 L 349.816406 121.964844 L 350.089844 121.765625 L 350.640625 121.386719 L 351.738281 120.667969 L 352.011719 120.496094 L 352.289063 120.328125 L 352.839844 120 L 353.9375 119.386719 L 356.136719 118.300781 L 356.265625 118.242188 L 356.394531 118.1875 L 356.648438 118.074219 L 357.164063 117.851563 L 358.1875 117.441406 L 358.445313 117.339844 L 358.703125 117.246094 L 359.214844 117.058594 L 360.242188 116.707031 L 360.367188 116.667969 L 360.496094 116.625 L 360.753906 116.542969 L 361.265625 116.386719 L 362.292969 116.089844 L 362.550781 116.019531 L 362.804688 115.953125 L 363.320313 115.820313 L 364.34375 115.574219 L 364.484375 115.542969 L 364.621094 115.511719 L 364.902344 115.449219 L 365.457031 115.332031 L 366.570313 115.117188 L 366.707031 115.089844 L 366.847656 115.066406 L 367.125 115.015625 L 367.679688 114.921875 L 368.792969 114.75 L 368.933594 114.730469 L 369.070313 114.710938 L 369.347656 114.671875 L 369.90625 114.597656 L 370.042969 114.582031 L 370.183594 114.5625 L 370.460938 114.527344 L 371.019531 114.464844 L 371.15625 114.449219 L 371.296875 114.433594 L 371.574219 114.40625 L 372.128906 114.347656 L 373.242188 114.25 L 373.5 114.226563 L 373.761719 114.207031 L 374.28125 114.167969 L 374.539063 114.152344 L 374.800781 114.136719 L 375.320313 114.101563 L 375.449219 114.09375 L 375.578125 114.089844 L 375.839844 114.074219 L 376.359375 114.046875 L 376.488281 114.042969 L 376.617188 114.035156 L 376.875 114.023438 L 377.394531 114.003906 L 377.527344 114 L 377.65625 113.996094 L 377.914063 113.984375 L 378.046875 113.980469 L 378.5625 113.964844 L 378.695313 113.964844 L 379.082031 113.953125 L 379.214844 113.949219 L 379.472656 113.945313 L 379.601563 113.945313 L 379.734375 113.941406 L 379.863281 113.9375 L 379.992188 113.9375 L 380.121094 113.933594 L 380.382813 113.933594 L 380.511719 113.929688 L 380.769531 113.929688 L 380.902344 113.925781 L 381.550781 113.925781 L 381.675781 113.921875 L 382.058594 113.921875 L 382.1875 113.925781 L 382.949219 113.925781 L 383.078125 113.929688 L 383.332031 113.929688 L 383.585938 113.933594 L 383.714844 113.933594 L 383.839844 113.9375 L 384.09375 113.941406 L 384.222656 113.941406 L 384.351563 113.945313 L 384.605469 113.949219 L 384.730469 113.949219 L 384.859375 113.953125 L 385.113281 113.957031 L 385.621094 113.96875 L 385.878906 113.976563 L 386.132813 113.980469 L 386.640625 113.996094 L 386.769531 114 L 386.894531 114.003906 L 387.148438 114.011719 L 387.660156 114.027344 L 387.785156 114.03125 L 387.914063 114.039063 L 388.167969 114.046875 L 388.675781 114.066406 L 389.695313 114.109375 L 389.832031 114.113281 L 389.972656 114.121094 L 390.246094 114.132813 L 390.800781 114.160156 L 391.902344 114.214844 L 394.113281 114.339844 L 394.25 114.347656 L 394.390625 114.355469 L 394.664063 114.371094 L 395.21875 114.40625 L 396.320313 114.476563 L 398.53125 114.628906 L 398.660156 114.640625 L 398.789063 114.648438 L 399.5625 114.707031 L 400.59375 114.78125 L 402.652344 114.941406 L 406.777344 115.285156 L 415.710938 116.078125 L 415.847656 116.089844 L 415.988281 116.101563 L 416.261719 116.128906 L 416.808594 116.179688 L 417.90625 116.277344 L 418.042969 116.292969 L 418.453125 116.328125 L 419.003906 116.378906 L 420.097656 116.480469 L 420.234375 116.496094 L 420.371094 116.507813 L 420.648438 116.53125 L 421.195313 116.582031 L 421.332031 116.597656 L 421.742188 116.632813 L 422.292969 116.683594 L 422.429688 116.699219 L 422.566406 116.710938 L 422.839844 116.738281 L 423.113281 116.761719 L 423.386719 116.792969 L 423.527344 116.804688 L 423.664063 116.820313 L 423.800781 116.839844 L 423.9375 116.855469 L 424.210938 116.902344 L 424.347656 116.933594 L 424.484375 116.976563 L 424.613281 117.023438 L 424.742188 117.085938 L 424.867188 117.171875 L 424.996094 117.292969 L 425.125 117.453125 L 425.253906 117.679688 L 425.378906 117.996094 L 425.507813 118.433594 L 425.636719 119.042969 L 425.765625 119.882813 L 425.890625 121.015625 L 426.019531 122.519531 L 426.148438 124.445313 L 426.273438 126.832031 L 426.402344 129.671875 L 426.53125 132.917969 L 426.660156 136.484375 L 426.785156 140.28125 L 427.042969 148.167969 L 427.171875 152.109375 L 427.296875 155.976563 L 427.554688 163.355469 L 427.683594 166.839844 L 427.808594 170.171875 L 428.066406 176.398438 L 428.195313 179.292969 L 428.320313 182.050781 L 428.578125 187.171875 L 428.703125 189.546875 L 428.832031 191.804688 L 429.089844 195.992188 L 429.214844 197.929688 L 429.34375 199.769531 L 429.601563 203.164063 L 429.726563 204.730469 L 429.855469 206.210938 L 429.984375 207.609375 L 430.113281 208.929688 L 430.238281 210.171875 L 430.367188 211.339844 L 430.621094 213.460938 L 430.75 214.421875 L 430.878906 215.3125 L 431.007813 216.136719 L 431.132813 216.898438 L 431.261719 217.59375 L 431.390625 218.230469 L 431.519531 218.804688 L 431.644531 219.320313 L 431.773438 219.773438 L 431.902344 220.167969 L 432.03125 220.503906 L 432.15625 220.78125 L 432.285156 221 L 432.414063 221.164063 L 432.542969 221.265625 L 432.667969 221.308594 L 432.808594 221.292969 L 432.945313 221.207031 L 433.085938 221.046875 L 433.222656 220.820313 L 433.363281 220.519531 L 433.5 220.148438 L 433.640625 219.703125 L 433.777344 219.183594 L 433.917969 218.585938 L 434.054688 217.914063 L 434.195313 217.160156 L 434.332031 216.328125 L 434.472656 215.410156 L 434.609375 214.410156 L 434.886719 212.148438 L 435.027344 210.882813 L 435.164063 209.527344 L 435.304688 208.078125 L 435.441406 206.53125 L 435.582031 204.886719 L 435.71875 203.144531 L 435.996094 199.359375 L 436.136719 197.308594 L 436.273438 195.15625 L 436.550781 190.535156 L 437.105469 180.050781 L 437.246094 177.179688 L 437.382813 174.214844 L 437.660156 168.011719 L 438.214844 154.710938 L 438.355469 151.242188 L 438.492188 147.738281 L 438.769531 140.664063 L 439.324219 126.589844 L 439.460938 123.164063 L 439.601563 119.800781 L 439.878906 113.308594 L 440.015625 110.203125 L 440.15625 107.207031 L 440.433594 101.558594 L 440.570313 98.917969 L 440.710938 96.414063 L 440.847656 94.039063 L 440.988281 91.796875 L 441.125 89.6875 L 441.265625 87.710938 L 441.542969 84.140625 L 441.671875 82.640625 L 441.800781 81.242188 L 441.929688 79.9375 L 442.058594 78.722656 L 442.191406 77.597656 L 442.320313 76.550781 L 442.578125 74.683594 L 442.707031 73.851563 L 442.835938 73.078125 L 442.964844 72.363281 L 443.097656 71.699219 L 443.226563 71.082031 L 443.355469 70.507813 L 443.613281 69.480469 L 443.742188 69.019531 L 443.871094 68.589844 L 444 68.1875 L 444.132813 67.808594 L 444.261719 67.457031 L 444.390625 67.125 L 444.648438 66.515625 L 444.777344 66.234375 L 444.90625 65.972656 L 445.167969 65.480469 L 445.296875 65.253906 L 445.425781 65.035156 L 445.683594 64.628906 L 445.8125 64.4375 L 445.945313 64.253906 L 446.203125 63.902344 L 446.71875 63.273438 L 446.851563 63.125 L 446.980469 62.984375 L 447.238281 62.710938 L 447.753906 62.203125 L 447.886719 62.082031 L 448.015625 61.964844 L 448.273438 61.738281 L 448.792969 61.308594 L 449.828125 60.539063 L 449.953125 60.453125 L 450.082031 60.367188 L 450.335938 60.199219 L 450.84375 59.875 L 451.855469 59.289063 L 451.984375 59.21875 L 452.109375 59.152344 L 452.363281 59.019531 L 452.871094 58.765625 L 453.886719 58.292969 L 454.015625 58.238281 L 454.140625 58.183594 L 454.394531 58.074219 L 454.902344 57.867188 L 455.917969 57.480469 L 456.042969 57.4375 L 456.171875 57.390625 L 456.425781 57.300781 L 456.933594 57.132813 L 457.949219 56.8125 L 458.085938 56.773438 L 458.222656 56.730469 L 458.5 56.652344 L 459.050781 56.496094 L 460.152344 56.210938 L 460.289063 56.175781 L 460.425781 56.144531 L 460.703125 56.078125 L 461.253906 55.949219 L 462.355469 55.710938 L 462.492188 55.679688 L 462.628906 55.652344 L 462.90625 55.597656 L 463.457031 55.488281 L 464.558594 55.289063 L 466.757813 54.929688 L 467.015625 54.890625 L 467.273438 54.855469 L 467.789063 54.78125 L 468.816406 54.640625 L 468.945313 54.625 L 469.070313 54.609375 L 469.328125 54.574219 L 469.84375 54.511719 L 470.871094 54.390625 L 471 54.378906 L 471.128906 54.363281 L 471.382813 54.335938 L 471.898438 54.277344 L 472.925781 54.171875 L 474.980469 53.980469 L 475.125 53.96875 L 475.269531 53.953125 L 475.554688 53.929688 L 477.277344 53.789063 L 477.417969 53.777344 L 477.5625 53.769531 L 477.851563 53.746094 L 478.421875 53.703125 L 479.570313 53.625 L 479.714844 53.613281 L 479.859375 53.605469 L 480.144531 53.585938 L 480.71875 53.550781 L 481.867188 53.476563 L 482.007813 53.46875 L 482.152344 53.460938 L 482.4375 53.445313 L 483.011719 53.410156 L 483.300781 53.394531 L 483.585938 53.378906 L 483.875 53.363281 L 484.015625 53.355469 L 484.160156 53.347656 "/>
</g>
<g clip-path="url(#clip2)" clip-rule="nonzero">
<path style="fill:none;stroke-width:2;stroke-linecap:square;stroke-linejoin:miter;stroke:rgb(100%,0%,0%);stroke-opacity:1;stroke-miterlimit:3.25;" d="M 66.308594 285.035156 L 68.617188 285.035156 L 68.742188 285.03125 L 69.382813 285.03125 L 69.511719 285.027344 L 69.898438 285.027344 L 70.023438 285.023438 L 70.152344 285.023438 L 70.410156 285.019531 L 70.664063 285.019531 L 70.921875 285.015625 L 71.433594 285.007813 L 71.5625 285.003906 L 71.691406 285.003906 L 71.949219 285 L 72.460938 284.992188 L 72.589844 284.988281 L 72.714844 284.984375 L 72.972656 284.980469 L 73.484375 284.972656 L 74.511719 284.949219 L 74.648438 284.945313 L 74.789063 284.941406 L 75.621094 284.917969 L 75.761719 284.914063 L 75.898438 284.910156 L 76.175781 284.902344 L 76.734375 284.882813 L 76.871094 284.878906 L 77.011719 284.875 L 77.289063 284.863281 L 77.84375 284.84375 L 78.957031 284.792969 L 79.09375 284.785156 L 79.234375 284.78125 L 80.066406 284.734375 L 80.207031 284.726563 L 80.34375 284.71875 L 80.625 284.703125 L 81.179688 284.667969 L 81.316406 284.65625 L 81.457031 284.648438 L 81.734375 284.628906 L 82.289063 284.582031 L 82.570313 284.558594 L 82.847656 284.535156 L 83.402344 284.480469 L 83.660156 284.457031 L 83.921875 284.425781 L 84.441406 284.367188 L 84.570313 284.351563 L 84.699219 284.332031 L 84.957031 284.300781 L 85.476563 284.226563 L 85.609375 284.207031 L 85.738281 284.183594 L 85.996094 284.144531 L 86.515625 284.050781 L 86.644531 284.027344 L 86.773438 284 L 87.035156 283.949219 L 87.554688 283.832031 L 87.683594 283.804688 L 87.8125 283.773438 L 88.074219 283.707031 L 88.332031 283.636719 L 88.589844 283.5625 L 88.722656 283.523438 L 88.851563 283.484375 L 89.109375 283.398438 L 89.628906 283.214844 L 89.757813 283.167969 L 89.886719 283.117188 L 90.148438 283.007813 L 90.277344 282.953125 L 90.40625 282.894531 L 90.667969 282.773438 L 90.925781 282.648438 L 91.1875 282.507813 L 91.703125 282.207031 L 91.832031 282.128906 L 91.960938 282.046875 L 92.214844 281.871094 L 92.339844 281.78125 L 92.46875 281.6875 L 92.722656 281.488281 L 92.847656 281.386719 L 92.976563 281.28125 L 93.230469 281.054688 L 93.738281 280.5625 L 93.867188 280.429688 L 93.992188 280.292969 L 94.25 280 L 94.375 279.851563 L 94.503906 279.691406 L 94.757813 279.363281 L 94.882813 279.191406 L 95.011719 279.015625 L 95.265625 278.640625 L 95.773438 277.824219 L 95.902344 277.601563 L 96.027344 277.375 L 96.285156 276.898438 L 96.792969 275.855469 L 96.917969 275.578125 L 97.046875 275.289063 L 97.300781 274.691406 L 97.808594 273.398438 L 97.9375 273.054688 L 98.0625 272.699219 L 98.316406 271.96875 L 98.828125 270.410156 L 99.84375 266.941406 L 99.980469 266.441406 L 100.121094 265.9375 L 100.394531 264.917969 L 100.949219 262.851563 L 101.085938 262.332031 L 101.222656 261.820313 L 101.5 260.804688 L 102.050781 258.84375 L 102.191406 258.378906 L 102.328125 257.921875 L 102.605469 257.046875 L 102.742188 256.628906 L 102.878906 256.222656 L 103.15625 255.457031 L 103.292969 255.097656 L 103.429688 254.75 L 103.707031 254.109375 L 103.84375 253.808594 L 103.984375 253.523438 L 104.257813 252.996094 L 104.398438 252.75 L 104.535156 252.519531 L 104.8125 252.089844 L 104.949219 251.890625 L 105.085938 251.703125 L 105.363281 251.351563 L 105.5 251.1875 L 105.640625 251.027344 L 105.914063 250.730469 L 106.464844 250.1875 L 106.605469 250.0625 L 106.742188 249.9375 L 107.019531 249.699219 L 107.570313 249.242188 L 108.675781 248.382813 L 108.800781 248.285156 L 109.1875 247.992188 L 109.703125 247.609375 L 110.734375 246.855469 L 112.792969 245.382813 L 116.914063 242.539063 L 125.84375 236.804688 L 134.613281 231.671875 L 142.789063 227.273438 L 151.65625 222.871094 L 159.9375 219.070313 L 168.050781 215.609375 L 176.859375 212.113281 L 185.074219 209.082031 L 193.980469 206.015625 L 202.726563 203.210938 L 210.878906 200.761719 L 219.722656 198.277344 L 227.976563 196.105469 L 236.921875 193.898438 L 245.707031 191.871094 L 253.898438 190.097656 L 262.78125 188.289063 L 271.074219 186.703125 L 279.203125 185.238281 L 288.023438 183.75 L 296.257813 182.441406 L 305.175781 181.109375 L 313.9375 179.886719 L 322.105469 178.816406 L 322.242188 178.796875 L 322.382813 178.78125 L 322.660156 178.746094 L 323.210938 178.675781 L 324.320313 178.535156 L 326.535156 178.261719 L 326.671875 178.246094 L 326.8125 178.226563 L 327.089844 178.195313 L 327.640625 178.125 L 328.75 177.992188 L 328.886719 177.976563 L 329.027344 177.957031 L 329.304688 177.925781 L 329.855469 177.859375 L 329.996094 177.84375 L 330.132813 177.828125 L 330.410156 177.796875 L 330.546875 177.78125 L 330.6875 177.765625 L 330.964844 177.742188 L 331.09375 177.730469 L 331.222656 177.722656 L 331.480469 177.699219 L 331.609375 177.683594 L 331.738281 177.660156 L 331.867188 177.621094 L 331.996094 177.566406 L 332.125 177.484375 L 332.257813 177.378906 L 332.386719 177.246094 L 332.515625 177.085938 L 332.644531 176.898438 L 332.773438 176.691406 L 332.902344 176.457031 L 333.03125 176.210938 L 333.160156 175.945313 L 333.289063 175.667969 L 333.546875 175.089844 L 334.066406 173.871094 L 335.097656 171.421875 L 335.226563 171.121094 L 335.355469 170.824219 L 335.617188 170.234375 L 336.132813 169.085938 L 337.167969 166.894531 L 339.234375 162.90625 L 339.359375 162.675781 L 339.488281 162.449219 L 339.742188 162.003906 L 340.246094 161.128906 L 341.261719 159.457031 L 341.386719 159.253906 L 341.511719 159.054688 L 341.765625 158.65625 L 342.273438 157.882813 L 343.285156 156.40625 L 343.414063 156.226563 L 343.539063 156.050781 L 343.792969 155.699219 L 344.300781 155.015625 L 345.3125 153.710938 L 347.339844 151.328125 L 347.476563 151.175781 L 347.617188 151.027344 L 347.890625 150.730469 L 348.441406 150.152344 L 349.539063 149.050781 L 349.675781 148.921875 L 349.816406 148.789063 L 350.089844 148.53125 L 350.640625 148.023438 L 351.738281 147.0625 L 351.875 146.945313 L 352.011719 146.832031 L 352.289063 146.605469 L 352.839844 146.164063 L 353.9375 145.324219 L 356.136719 143.800781 L 356.394531 143.636719 L 356.648438 143.476563 L 357.164063 143.160156 L 358.1875 142.558594 L 358.316406 142.484375 L 358.445313 142.414063 L 358.703125 142.269531 L 359.214844 141.992188 L 360.242188 141.460938 L 360.367188 141.398438 L 360.496094 141.335938 L 360.753906 141.207031 L 361.265625 140.964844 L 362.292969 140.496094 L 364.34375 139.648438 L 364.484375 139.59375 L 364.621094 139.539063 L 364.902344 139.4375 L 365.457031 139.230469 L 366.570313 138.84375 L 366.707031 138.796875 L 366.847656 138.75 L 367.679688 138.480469 L 368.792969 138.144531 L 368.933594 138.105469 L 369.070313 138.066406 L 369.347656 137.984375 L 369.90625 137.832031 L 371.019531 137.539063 L 373.242188 137.019531 L 373.371094 136.988281 L 373.5 136.960938 L 373.761719 136.90625 L 374.28125 136.796875 L 375.320313 136.59375 L 375.578125 136.546875 L 375.839844 136.496094 L 376.359375 136.402344 L 377.394531 136.226563 L 377.527344 136.203125 L 377.65625 136.183594 L 377.914063 136.140625 L 378.433594 136.058594 L 379.472656 135.90625 L 381.550781 135.628906 L 381.675781 135.613281 L 381.804688 135.597656 L 382.058594 135.566406 L 382.566406 135.507813 L 383.585938 135.394531 L 383.714844 135.382813 L 383.839844 135.367188 L 384.09375 135.34375 L 384.605469 135.292969 L 385.621094 135.195313 L 385.878906 135.171875 L 386.132813 135.148438 L 386.640625 135.105469 L 387.660156 135.023438 L 389.695313 134.875 L 389.832031 134.867188 L 389.972656 134.855469 L 390.246094 134.839844 L 390.800781 134.804688 L 391.902344 134.742188 L 392.042969 134.734375 L 392.179688 134.726563 L 392.457031 134.710938 L 393.007813 134.683594 L 394.113281 134.632813 L 394.25 134.625 L 394.390625 134.621094 L 394.664063 134.609375 L 395.21875 134.585938 L 396.320313 134.542969 L 396.460938 134.539063 L 396.597656 134.53125 L 396.875 134.523438 L 397.425781 134.503906 L 398.53125 134.472656 L 399.5625 134.441406 L 399.691406 134.441406 L 400.078125 134.429688 L 400.59375 134.417969 L 400.722656 134.414063 L 400.851563 134.414063 L 401.105469 134.40625 L 401.621094 134.398438 L 402.652344 134.378906 L 402.78125 134.375 L 402.910156 134.375 L 403.683594 134.363281 L 403.8125 134.359375 L 403.941406 134.359375 L 404.714844 134.347656 L 404.84375 134.347656 L 404.972656 134.34375 L 405.230469 134.34375 L 405.746094 134.335938 L 406.003906 134.335938 L 406.261719 134.332031 L 406.777344 134.328125 L 407.054688 134.328125 L 407.335938 134.324219 L 407.613281 134.324219 L 407.894531 134.320313 L 408.453125 134.320313 L 408.589844 134.316406 L 409.570313 134.316406 L 409.707031 134.3125 L 412.640625 134.3125 L 412.78125 134.316406 L 413.757813 134.316406 L 414.035156 134.320313 L 414.734375 134.320313 L 414.875 134.324219 L 415.152344 134.324219 L 415.710938 134.328125 L 415.988281 134.328125 L 416.261719 134.332031 L 416.808594 134.335938 L 417.082031 134.335938 L 417.355469 134.339844 L 417.90625 134.34375 L 418.179688 134.34375 L 418.453125 134.347656 L 419.003906 134.351563 L 420.097656 134.363281 L 420.234375 134.363281 L 420.371094 134.367188 L 420.648438 134.367188 L 421.195313 134.375 L 421.332031 134.375 L 421.46875 134.378906 L 421.742188 134.382813 L 422.292969 134.386719 L 422.429688 134.390625 L 422.566406 134.390625 L 422.703125 134.394531 L 422.839844 134.394531 L 422.976563 134.398438 L 423.113281 134.398438 L 423.386719 134.40625 L 423.527344 134.410156 L 423.800781 134.417969 L 424.074219 134.433594 L 424.347656 134.464844 L 424.484375 134.492188 L 424.613281 134.527344 L 424.742188 134.574219 L 424.867188 134.644531 L 424.996094 134.742188 L 425.125 134.878906 L 425.253906 135.074219 L 425.378906 135.355469 L 425.507813 135.757813 L 425.636719 136.324219 L 425.765625 137.125 L 425.890625 138.226563 L 426.019531 139.714844 L 426.148438 141.65625 L 426.273438 144.097656 L 426.402344 147.03125 L 426.53125 150.410156 L 426.660156 154.15625 L 426.785156 158.15625 L 427.042969 166.527344 L 427.171875 170.734375 L 427.296875 174.875 L 427.554688 182.832031 L 427.683594 186.605469 L 427.808594 190.234375 L 428.066406 197.042969 L 428.195313 200.226563 L 428.320313 203.269531 L 428.578125 208.949219 L 428.703125 211.597656 L 428.832031 214.125 L 429.089844 218.835938 L 429.214844 221.03125 L 429.34375 223.121094 L 429.601563 227.015625 L 429.726563 228.828125 L 429.855469 230.550781 L 430.113281 233.75 L 430.238281 235.234375 L 430.367188 236.640625 L 430.621094 239.246094 L 430.75 240.445313 L 430.878906 241.578125 L 431.007813 242.648438 L 431.132813 243.65625 L 431.261719 244.605469 L 431.390625 245.492188 L 431.644531 247.097656 L 431.773438 247.816406 L 431.902344 248.480469 L 432.03125 249.089844 L 432.15625 249.648438 L 432.285156 250.152344 L 432.414063 250.605469 L 432.542969 251.003906 L 432.667969 251.351563 L 432.808594 251.671875 L 432.945313 251.929688 L 433.085938 252.125 L 433.222656 252.257813 L 433.363281 252.328125 L 433.5 252.335938 L 433.640625 252.277344 L 433.777344 252.15625 L 433.917969 251.964844 L 434.054688 251.707031 L 434.195313 251.375 L 434.332031 250.972656 L 434.472656 250.5 L 434.609375 249.945313 L 434.75 249.316406 L 434.886719 248.605469 L 435.027344 247.808594 L 435.164063 246.925781 L 435.304688 245.957031 L 435.441406 244.894531 L 435.582031 243.738281 L 435.71875 242.484375 L 435.996094 239.671875 L 436.136719 238.109375 L 436.273438 236.441406 L 436.550781 232.769531 L 436.691406 230.765625 L 436.828125 228.648438 L 437.105469 224.0625 L 437.246094 221.601563 L 437.382813 219.027344 L 437.660156 213.546875 L 438.214844 201.417969 L 438.355469 198.183594 L 438.492188 194.886719 L 438.769531 188.15625 L 439.324219 174.539063 L 439.460938 171.195313 L 439.601563 167.902344 L 439.878906 161.554688 L 440.015625 158.523438 L 440.15625 155.609375 L 440.433594 150.175781 L 440.570313 147.675781 L 440.710938 145.328125 L 440.847656 143.140625 L 440.988281 141.117188 L 441.125 139.253906 L 441.265625 137.550781 L 441.402344 136.011719 L 441.542969 134.625 L 441.671875 133.464844 L 441.800781 132.433594 L 441.929688 131.519531 L 442.058594 130.714844 L 442.191406 130.019531 L 442.320313 129.417969 L 442.449219 128.910156 L 442.578125 128.480469 L 442.707031 128.128906 L 442.835938 127.847656 L 442.964844 127.625 L 443.097656 127.457031 L 443.226563 127.335938 L 443.355469 127.261719 L 443.484375 127.222656 L 443.613281 127.214844 L 443.742188 127.234375 L 443.871094 127.277344 L 444 127.335938 L 444.132813 127.414063 L 444.261719 127.507813 L 444.390625 127.605469 L 444.648438 127.828125 L 444.777344 127.945313 L 444.90625 128.066406 L 445.167969 128.304688 L 445.683594 128.757813 L 445.8125 128.863281 L 445.945313 128.964844 L 446.203125 129.148438 L 446.332031 129.234375 L 446.460938 129.316406 L 446.71875 129.460938 L 446.851563 129.527344 L 446.980469 129.589844 L 447.238281 129.699219 L 447.367188 129.746094 L 447.496094 129.789063 L 447.753906 129.867188 L 447.886719 129.898438 L 448.144531 129.953125 L 448.273438 129.976563 L 448.402344 129.996094 L 448.660156 130.027344 L 448.792969 130.039063 L 448.921875 130.050781 L 449.179688 130.066406 L 449.4375 130.074219 L 449.953125 130.074219 L 450.082031 130.070313 L 450.207031 130.066406 L 450.335938 130.0625 L 450.460938 130.054688 L 450.589844 130.050781 L 450.714844 130.042969 L 450.84375 130.035156 L 450.96875 130.027344 L 451.097656 130.019531 L 451.351563 130.003906 L 451.855469 129.964844 L 451.984375 129.957031 L 452.109375 129.945313 L 452.363281 129.921875 L 452.871094 129.878906 L 453.886719 129.789063 L 454.015625 129.777344 L 454.140625 129.765625 L 455.917969 129.601563 L 457.949219 129.410156 L 466.757813 128.585938 L 467.015625 128.5625 L 467.273438 128.542969 L 467.789063 128.496094 L 470.871094 128.238281 L 471 128.230469 L 471.128906 128.21875 L 471.382813 128.199219 L 471.898438 128.15625 L 472.925781 128.078125 L 474.980469 127.925781 L 475.125 127.914063 L 475.269531 127.90625 L 475.554688 127.886719 L 476.128906 127.84375 L 477.277344 127.765625 L 479.570313 127.617188 L 479.714844 127.609375 L 479.859375 127.597656 L 480.144531 127.582031 L 481.867188 127.476563 L 482.007813 127.46875 L 482.152344 127.460938 L 482.4375 127.445313 L 483.011719 127.414063 L 483.300781 127.398438 L 483.585938 127.378906 L 483.875 127.363281 L 484.015625 127.355469 L 484.160156 127.351563 "/>
</g>
<g clip-path="url(#clip3)" clip-rule="nonzero">
<path style="fill:none;stroke-width:1.6;stroke-linecap:square;stroke-linejoin:miter;stroke:rgb(0%,0%,100%);stroke-opacity:1;stroke-miterlimit:3.25;" d="M 121.839844 48.027344 L 139.238281 48.027344 "/>
</g>
<g style="fill:rgb(0%,0%,0%);fill-opacity:1;">
  <use xlink:href="#glyph0-1" x="149.039063" y="54.611824"/>
  <use xlink:href="#glyph0-2" x="160.593751" y="54.611824"/>
  <use xlink:href="#glyph0-3" x="170.367188" y="54.611824"/>
  <use xlink:href="#glyph0-4" x="174.8125" y="54.611824"/>
  <use xlink:href="#glyph0-5" x="180.140625" y="54.611824"/>
  <use xlink:href="#glyph0-6" x="189.914063" y="54.611824"/>
  <use xlink:href="#glyph0-7" x="196.140625" y="54.611824"/>
</g>
<g clip-path="url(#clip4)" clip-rule="nonzero">
<path style="fill:none;stroke-width:1.6;stroke-linecap:square;stroke-linejoin:miter;stroke:rgb(100%,0%,0%);stroke-opacity:1;stroke-miterlimit:3.25;" d="M 121.839844 76.527344 L 139.238281 76.527344 "/>
</g>
<g style="fill:rgb(0%,0%,0%);fill-opacity:1;">
  <use xlink:href="#glyph0-8" x="149.039063" y="83.114011"/>
  <use xlink:href="#glyph0-9" x="160.593751" y="83.114011"/>
  <use xlink:href="#glyph0-10" x="169.492187" y="83.114011"/>
  <use xlink:href="#glyph0-11" x="174.820312" y="83.114011"/>
</g>
<path style="fill:none;stroke-width:2;stroke-linecap:square;stroke-linejoin:miter;stroke:rgb(0%,0%,0%);stroke-opacity:1;stroke-miterlimit:3.25;" d="M 502.101563 286.144531 L 53.570313 286.144531 "/>
<path style="fill:none;stroke-width:2;stroke-linecap:square;stroke-linejoin:miter;stroke:rgb(0%,0%,0%);stroke-opacity:1;stroke-miterlimit:3.25;" d="M 53.570313 286.144531 L 53.570313 8.9375 "/>
<path style="fill:none;stroke-width:2;stroke-linecap:butt;stroke-linejoin:miter;stroke:rgb(0%,0%,0%);stroke-opacity:1;stroke-miterlimit:3.25;" d="M 53.570313 286.144531 L 53.570313 282.144531 "/>
<g style="fill:rgb(0%,0%,0%);fill-opacity:1;">
  <use xlink:href="#glyph0-12" x="49.121095" y="303.629431"/>
</g>
<path style="fill:none;stroke-width:2;stroke-linecap:butt;stroke-linejoin:miter;stroke:rgb(0%,0%,0%);stroke-opacity:1;stroke-miterlimit:3.25;" d="M 71.511719 286.144531 L 71.511719 283.746094 "/>
<path style="fill:none;stroke-width:2;stroke-linecap:butt;stroke-linejoin:miter;stroke:rgb(0%,0%,0%);stroke-opacity:1;stroke-miterlimit:3.25;" d="M 89.453125 286.144531 L 89.453125 283.746094 "/>
<path style="fill:none;stroke-width:2;stroke-linecap:butt;stroke-linejoin:miter;stroke:rgb(0%,0%,0%);stroke-opacity:1;stroke-miterlimit:3.25;" d="M 107.394531 286.144531 L 107.394531 283.746094 "/>
<path style="fill:none;stroke-width:2;stroke-linecap:butt;stroke-linejoin:miter;stroke:rgb(0%,0%,0%);stroke-opacity:1;stroke-miterlimit:3.25;" d="M 125.335938 286.144531 L 125.335938 283.746094 "/>
<path style="fill:none;stroke-width:2;stroke-linecap:butt;stroke-linejoin:miter;stroke:rgb(0%,0%,0%);stroke-opacity:1;stroke-miterlimit:3.25;" d="M 143.277344 286.144531 L 143.277344 282.144531 "/>
<g style="fill:rgb(0%,0%,0%);fill-opacity:1;">
  <use xlink:href="#glyph0-13" x="138.827345" y="303.629431"/>
</g>
<path style="fill:none;stroke-width:2;stroke-linecap:butt;stroke-linejoin:miter;stroke:rgb(0%,0%,0%);stroke-opacity:1;stroke-miterlimit:3.25;" d="M 161.21875 286.144531 L 161.21875 283.746094 "/>
<path style="fill:none;stroke-width:2;stroke-linecap:butt;stroke-linejoin:miter;stroke:rgb(0%,0%,0%);stroke-opacity:1;stroke-miterlimit:3.25;" d="M 179.160156 286.144531 L 179.160156 283.746094 "/>
<path style="fill:none;stroke-width:2;stroke-linecap:butt;stroke-linejoin:miter;stroke:rgb(0%,0%,0%);stroke-opacity:1;stroke-miterlimit:3.25;" d="M 197.101563 286.144531 L 197.101563 283.746094 "/>
<path style="fill:none;stroke-width:2;stroke-linecap:butt;stroke-linejoin:miter;stroke:rgb(0%,0%,0%);stroke-opacity:1;stroke-miterlimit:3.25;" d="M 215.042969 286.144531 L 215.042969 283.746094 "/>
<path style="fill:none;stroke-width:2;stroke-linecap:butt;stroke-linejoin:miter;stroke:rgb(0%,0%,0%);stroke-opacity:1;stroke-miterlimit:3.25;" d="M 232.984375 286.144531 L 232.984375 282.144531 "/>
<g style="fill:rgb(0%,0%,0%);fill-opacity:1;">
  <use xlink:href="#glyph0-14" x="224.084375" y="303.629431"/>
  <use xlink:href="#glyph0-12" x="232.982812" y="303.629431"/>
</g>
<path style="fill:none;stroke-width:2;stroke-linecap:butt;stroke-linejoin:miter;stroke:rgb(0%,0%,0%);stroke-opacity:1;stroke-miterlimit:3.25;" d="M 250.925781 286.144531 L 250.925781 283.746094 "/>
<path style="fill:none;stroke-width:2;stroke-linecap:butt;stroke-linejoin:miter;stroke:rgb(0%,0%,0%);stroke-opacity:1;stroke-miterlimit:3.25;" d="M 268.867188 286.144531 L 268.867188 283.746094 "/>
<path style="fill:none;stroke-width:2;stroke-linecap:butt;stroke-linejoin:miter;stroke:rgb(0%,0%,0%);stroke-opacity:1;stroke-miterlimit:3.25;" d="M 286.804688 286.144531 L 286.804688 283.746094 "/>
<path style="fill:none;stroke-width:2;stroke-linecap:butt;stroke-linejoin:miter;stroke:rgb(0%,0%,0%);stroke-opacity:1;stroke-miterlimit:3.25;" d="M 304.746094 286.144531 L 304.746094 283.746094 "/>
<path style="fill:none;stroke-width:2;stroke-linecap:butt;stroke-linejoin:miter;stroke:rgb(0%,0%,0%);stroke-opacity:1;stroke-miterlimit:3.25;" d="M 322.6875 286.144531 L 322.6875 282.144531 "/>
<g style="fill:rgb(0%,0%,0%);fill-opacity:1;">
  <use xlink:href="#glyph0-14" x="313.790625" y="303.629431"/>
  <use xlink:href="#glyph0-13" x="322.689062" y="303.629431"/>
</g>
<path style="fill:none;stroke-width:2;stroke-linecap:butt;stroke-linejoin:miter;stroke:rgb(0%,0%,0%);stroke-opacity:1;stroke-miterlimit:3.25;" d="M 340.628906 286.144531 L 340.628906 283.746094 "/>
<path style="fill:none;stroke-width:2;stroke-linecap:butt;stroke-linejoin:miter;stroke:rgb(0%,0%,0%);stroke-opacity:1;stroke-miterlimit:3.25;" d="M 358.570313 286.144531 L 358.570313 283.746094 "/>
<path style="fill:none;stroke-width:2;stroke-linecap:butt;stroke-linejoin:miter;stroke:rgb(0%,0%,0%);stroke-opacity:1;stroke-miterlimit:3.25;" d="M 376.511719 286.144531 L 376.511719 283.746094 "/>
<path style="fill:none;stroke-width:2;stroke-linecap:butt;stroke-linejoin:miter;stroke:rgb(0%,0%,0%);stroke-opacity:1;stroke-miterlimit:3.25;" d="M 394.453125 286.144531 L 394.453125 283.746094 "/>
<path style="fill:none;stroke-width:2;stroke-linecap:butt;stroke-linejoin:miter;stroke:rgb(0%,0%,0%);stroke-opacity:1;stroke-miterlimit:3.25;" d="M 412.394531 286.144531 L 412.394531 282.144531 "/>
<g style="fill:rgb(0%,0%,0%);fill-opacity:1;">
  <use xlink:href="#glyph0-15" x="403.496874" y="303.629431"/>
  <use xlink:href="#glyph0-12" x="412.395311" y="303.629431"/>
</g>
<path style="fill:none;stroke-width:2;stroke-linecap:butt;stroke-linejoin:miter;stroke:rgb(0%,0%,0%);stroke-opacity:1;stroke-miterlimit:3.25;" d="M 430.335938 286.144531 L 430.335938 283.746094 "/>
<path style="fill:none;stroke-width:2;stroke-linecap:butt;stroke-linejoin:miter;stroke:rgb(0%,0%,0%);stroke-opacity:1;stroke-miterlimit:3.25;" d="M 448.277344 286.144531 L 448.277344 283.746094 "/>
<path style="fill:none;stroke-width:2;stroke-linecap:butt;stroke-linejoin:miter;stroke:rgb(0%,0%,0%);stroke-opacity:1;stroke-miterlimit:3.25;" d="M 466.21875 286.144531 L 466.21875 283.746094 "/>
<path style="fill:none;stroke-width:2;stroke-linecap:butt;stroke-linejoin:miter;stroke:rgb(0%,0%,0%);stroke-opacity:1;stroke-miterlimit:3.25;" d="M 484.160156 286.144531 L 484.160156 283.746094 "/>
<path style="fill:none;stroke-width:2;stroke-linecap:butt;stroke-linejoin:miter;stroke:rgb(0%,0%,0%);stroke-opacity:1;stroke-miterlimit:3.25;" d="M 502.101563 286.144531 L 502.101563 282.144531 "/>
<g style="fill:rgb(0%,0%,0%);fill-opacity:1;">
  <use xlink:href="#glyph0-15" x="493.203124" y="303.629431"/>
  <use xlink:href="#glyph0-13" x="502.101561" y="303.629431"/>
</g>
<path style="fill:none;stroke-width:2;stroke-linecap:butt;stroke-linejoin:miter;stroke:rgb(0%,0%,0%);stroke-opacity:1;stroke-miterlimit:3.25;" d="M 53.570313 286.144531 L 57.570313 286.144531 "/>
<g style="fill:rgb(0%,0%,0%);fill-opacity:1;">
  <use xlink:href="#glyph0-12" x="41.671876" y="291.691931"/>
</g>
<path style="fill:none;stroke-width:2;stroke-linecap:butt;stroke-linejoin:miter;stroke:rgb(0%,0%,0%);stroke-opacity:1;stroke-miterlimit:3.25;" d="M 53.570313 275.058594 L 55.96875 275.058594 "/>
<path style="fill:none;stroke-width:2;stroke-linecap:butt;stroke-linejoin:miter;stroke:rgb(0%,0%,0%);stroke-opacity:1;stroke-miterlimit:3.25;" d="M 53.570313 263.96875 L 55.96875 263.96875 "/>
<path style="fill:none;stroke-width:2;stroke-linecap:butt;stroke-linejoin:miter;stroke:rgb(0%,0%,0%);stroke-opacity:1;stroke-miterlimit:3.25;" d="M 53.570313 252.878906 L 55.96875 252.878906 "/>
<path style="fill:none;stroke-width:2;stroke-linecap:butt;stroke-linejoin:miter;stroke:rgb(0%,0%,0%);stroke-opacity:1;stroke-miterlimit:3.25;" d="M 53.570313 241.792969 L 55.96875 241.792969 "/>
<path style="fill:none;stroke-width:2;stroke-linecap:butt;stroke-linejoin:miter;stroke:rgb(0%,0%,0%);stroke-opacity:1;stroke-miterlimit:3.25;" d="M 53.570313 230.703125 L 57.570313 230.703125 "/>
<g style="fill:rgb(0%,0%,0%);fill-opacity:1;">
  <use xlink:href="#glyph0-13" x="32.773438" y="236.25042"/>
  <use xlink:href="#glyph0-12" x="41.671875" y="236.25042"/>
</g>
<path style="fill:none;stroke-width:2;stroke-linecap:butt;stroke-linejoin:miter;stroke:rgb(0%,0%,0%);stroke-opacity:1;stroke-miterlimit:3.25;" d="M 53.570313 219.617188 L 55.96875 219.617188 "/>
<path style="fill:none;stroke-width:2;stroke-linecap:butt;stroke-linejoin:miter;stroke:rgb(0%,0%,0%);stroke-opacity:1;stroke-miterlimit:3.25;" d="M 53.570313 208.527344 L 55.96875 208.527344 "/>
<path style="fill:none;stroke-width:2;stroke-linecap:butt;stroke-linejoin:miter;stroke:rgb(0%,0%,0%);stroke-opacity:1;stroke-miterlimit:3.25;" d="M 53.570313 197.4375 L 55.96875 197.4375 "/>
<path style="fill:none;stroke-width:2;stroke-linecap:butt;stroke-linejoin:miter;stroke:rgb(0%,0%,0%);stroke-opacity:1;stroke-miterlimit:3.25;" d="M 53.570313 186.351563 L 55.96875 186.351563 "/>
<path style="fill:none;stroke-width:2;stroke-linecap:butt;stroke-linejoin:miter;stroke:rgb(0%,0%,0%);stroke-opacity:1;stroke-miterlimit:3.25;" d="M 53.570313 175.261719 L 57.570313 175.261719 "/>
<g style="fill:rgb(0%,0%,0%);fill-opacity:1;">
  <use xlink:href="#glyph0-14" x="23.875" y="180.808909"/>
  <use xlink:href="#glyph0-12" x="32.773437" y="180.808909"/>
  <use xlink:href="#glyph0-12" x="41.671874" y="180.808909"/>
</g>
<path style="fill:none;stroke-width:2;stroke-linecap:butt;stroke-linejoin:miter;stroke:rgb(0%,0%,0%);stroke-opacity:1;stroke-miterlimit:3.25;" d="M 53.570313 164.171875 L 55.96875 164.171875 "/>
<path style="fill:none;stroke-width:2;stroke-linecap:butt;stroke-linejoin:miter;stroke:rgb(0%,0%,0%);stroke-opacity:1;stroke-miterlimit:3.25;" d="M 53.570313 153.085938 L 55.96875 153.085938 "/>
<path style="fill:none;stroke-width:2;stroke-linecap:butt;stroke-linejoin:miter;stroke:rgb(0%,0%,0%);stroke-opacity:1;stroke-miterlimit:3.25;" d="M 53.570313 141.996094 L 55.96875 141.996094 "/>
<path style="fill:none;stroke-width:2;stroke-linecap:butt;stroke-linejoin:miter;stroke:rgb(0%,0%,0%);stroke-opacity:1;stroke-miterlimit:3.25;" d="M 53.570313 130.910156 L 55.96875 130.910156 "/>
<path style="fill:none;stroke-width:2;stroke-linecap:butt;stroke-linejoin:miter;stroke:rgb(0%,0%,0%);stroke-opacity:1;stroke-miterlimit:3.25;" d="M 53.570313 119.820313 L 57.570313 119.820313 "/>
<g style="fill:rgb(0%,0%,0%);fill-opacity:1;">
  <use xlink:href="#glyph0-14" x="23.875" y="125.367398"/>
  <use xlink:href="#glyph0-13" x="32.773437" y="125.367398"/>
  <use xlink:href="#glyph0-12" x="41.671874" y="125.367398"/>
</g>
<path style="fill:none;stroke-width:2;stroke-linecap:butt;stroke-linejoin:miter;stroke:rgb(0%,0%,0%);stroke-opacity:1;stroke-miterlimit:3.25;" d="M 53.570313 108.730469 L 55.96875 108.730469 "/>
<path style="fill:none;stroke-width:2;stroke-linecap:butt;stroke-linejoin:miter;stroke:rgb(0%,0%,0%);stroke-opacity:1;stroke-miterlimit:3.25;" d="M 53.570313 97.644531 L 55.96875 97.644531 "/>
<path style="fill:none;stroke-width:2;stroke-linecap:butt;stroke-linejoin:miter;stroke:rgb(0%,0%,0%);stroke-opacity:1;stroke-miterlimit:3.25;" d="M 53.570313 86.554688 L 55.96875 86.554688 "/>
<path style="fill:none;stroke-width:2;stroke-linecap:butt;stroke-linejoin:miter;stroke:rgb(0%,0%,0%);stroke-opacity:1;stroke-miterlimit:3.25;" d="M 53.570313 75.46875 L 55.96875 75.46875 "/>
<path style="fill:none;stroke-width:2;stroke-linecap:butt;stroke-linejoin:miter;stroke:rgb(0%,0%,0%);stroke-opacity:1;stroke-miterlimit:3.25;" d="M 53.570313 64.378906 L 57.570313 64.378906 "/>
<g style="fill:rgb(0%,0%,0%);fill-opacity:1;">
  <use xlink:href="#glyph0-15" x="23.875" y="69.925886"/>
  <use xlink:href="#glyph0-12" x="32.773437" y="69.925886"/>
  <use xlink:href="#glyph0-12" x="41.671874" y="69.925886"/>
</g>
<path style="fill:none;stroke-width:2;stroke-linecap:butt;stroke-linejoin:miter;stroke:rgb(0%,0%,0%);stroke-opacity:1;stroke-miterlimit:3.25;" d="M 53.570313 53.289063 L 55.96875 53.289063 "/>
<path style="fill:none;stroke-width:2;stroke-linecap:butt;stroke-linejoin:miter;stroke:rgb(0%,0%,0%);stroke-opacity:1;stroke-miterlimit:3.25;" d="M 53.570313 42.203125 L 55.96875 42.203125 "/>
<path style="fill:none;stroke-width:2;stroke-linecap:butt;stroke-linejoin:miter;stroke:rgb(0%,0%,0%);stroke-opacity:1;stroke-miterlimit:3.25;" d="M 53.570313 31.113281 L 55.96875 31.113281 "/>
<path style="fill:none;stroke-width:2;stroke-linecap:butt;stroke-linejoin:miter;stroke:rgb(0%,0%,0%);stroke-opacity:1;stroke-miterlimit:3.25;" d="M 53.570313 20.027344 L 55.96875 20.027344 "/>
<path style="fill:none;stroke-width:2;stroke-linecap:butt;stroke-linejoin:miter;stroke:rgb(0%,0%,0%);stroke-opacity:1;stroke-miterlimit:3.25;" d="M 53.570313 8.9375 L 57.570313 8.9375 "/>
<g style="fill:rgb(0%,0%,0%);fill-opacity:1;">
  <use xlink:href="#glyph0-15" x="23.875" y="14.484375"/>
  <use xlink:href="#glyph0-13" x="32.773437" y="14.484375"/>
  <use xlink:href="#glyph0-12" x="41.671874" y="14.484375"/>
</g>
<g style="fill:rgb(0%,0%,0%);fill-opacity:1;">
  <use xlink:href="#glyph0-16" x="247.05957" y="327.504431"/>
  <use xlink:href="#glyph0-3" x="256.833008" y="327.504431"/>
  <use xlink:href="#glyph0-7" x="261.27832" y="327.504431"/>
  <use xlink:href="#glyph0-9" x="275.504882" y="327.504431"/>
</g>
<g style="fill:rgb(0%,0%,0%);fill-opacity:1;">
  <use xlink:href="#glyph1-1" x="288.848634" y="327.504431"/>
</g>
<g style="fill:rgb(0%,0%,0%);fill-opacity:1;">
  <use xlink:href="#glyph0-17" x="293.843751" y="327.504431"/>
</g>
<g style="fill:rgb(0%,0%,0%);fill-opacity:1;">
  <use xlink:href="#glyph1-2" x="303.617188" y="327.504431"/>
</g>
<g style="fill:rgb(0%,0%,0%);fill-opacity:1;">
  <use xlink:href="#glyph2-1" x="14.484375" y="197.732442"/>
  <use xlink:href="#glyph2-2" x="14.484375" y="186.177754"/>
  <use xlink:href="#glyph2-3" x="14.484375" y="177.279318"/>
  <use xlink:href="#glyph2-4" x="14.484375" y="168.380881"/>
  <use xlink:href="#glyph2-5" x="14.484375" y="163.052756"/>
  <use xlink:href="#glyph2-6" x="14.484375" y="154.154319"/>
  <use xlink:href="#glyph2-7" x="14.484375" y="147.927757"/>
  <use xlink:href="#glyph2-2" x="14.484375" y="143.482444"/>
</g>
<g style="fill:rgb(0%,0%,0%);fill-opacity:1;">
  <use xlink:href="#glyph3-1" x="14.484375" y="130.138689"/>
</g>
<g style="fill:rgb(0%,0%,0%);fill-opacity:1;">
  <use xlink:href="#glyph3-2" x="14.484375" y="125.143572"/>
</g>
<g style="fill:rgb(0%,0%,0%);fill-opacity:1;">
  <use xlink:href="#glyph2-8" x="14.484375" y="115.673357"/>
</g>
<g style="fill:rgb(0%,0%,0%);fill-opacity:1;">
  <use xlink:href="#glyph3-3" x="14.484375" y="102.345232"/>
</g>
</g>
</svg>
