<?xml version="1.0" encoding="UTF-8"?>
<svg xmlns="http://www.w3.org/2000/svg" xmlns:xlink="http://www.w3.org/1999/xlink" width="58pt" height="16pt" viewBox="0 0 58 16" version="1.1">
<defs>
<g>
<symbol overflow="visible" id="glyph0-0">
<path style="stroke:none;" d="M 6.589844 -8.296875 L 6.589844 0 L 0.558594 0 L 0.558594 -8.296875 Z M 5.992188 -0.585938 L 5.992188 -7.707031 L 1.144531 -7.707031 L 1.144531 -0.585938 Z M 5.070313 -5.308594 C 5.066406 -5.113281 5.035156 -4.925781 4.96875 -4.75 C 4.898438 -4.566406 4.792969 -4.40625 4.65625 -4.273438 C 4.515625 -4.132813 4.335938 -4.023438 4.121094 -3.945313 C 3.902344 -3.859375 3.644531 -3.820313 3.339844 -3.820313 L 3.3125 -2.820313 L 2.679688 -2.820313 L 2.640625 -4.417969 L 3.363281 -4.417969 C 3.972656 -4.417969 4.277344 -4.695313 4.277344 -5.25 C 4.277344 -5.4375 4.230469 -5.605469 4.144531 -5.761719 C 4.050781 -5.910156 3.925781 -6.042969 3.769531 -6.152344 C 3.605469 -6.261719 3.414063 -6.34375 3.191406 -6.402344 C 2.960938 -6.457031 2.710938 -6.484375 2.445313 -6.488281 L 2.222656 -6.488281 L 2.222656 -7.121094 L 2.480469 -7.121094 C 2.921875 -7.117188 3.308594 -7.0625 3.632813 -6.957031 C 3.957031 -6.847656 4.226563 -6.710938 4.441406 -6.539063 C 4.652344 -6.367188 4.808594 -6.171875 4.914063 -5.957031 C 5.015625 -5.734375 5.066406 -5.519531 5.070313 -5.308594 Z M 2.988281 -2.246094 C 3.144531 -2.242188 3.273438 -2.1875 3.378906 -2.082031 C 3.480469 -1.972656 3.53125 -1.84375 3.535156 -1.6875 C 3.53125 -1.609375 3.519531 -1.539063 3.492188 -1.476563 C 3.464844 -1.410156 3.425781 -1.351563 3.378906 -1.304688 C 3.328125 -1.253906 3.269531 -1.214844 3.207031 -1.1875 C 3.136719 -1.15625 3.066406 -1.140625 2.988281 -1.144531 C 2.910156 -1.140625 2.839844 -1.15625 2.777344 -1.1875 C 2.710938 -1.214844 2.652344 -1.253906 2.605469 -1.304688 C 2.554688 -1.351563 2.515625 -1.410156 2.488281 -1.476563 C 2.457031 -1.539063 2.441406 -1.609375 2.445313 -1.6875 C 2.441406 -1.765625 2.457031 -1.835938 2.488281 -1.90625 C 2.515625 -1.96875 2.554688 -2.027344 2.605469 -2.082031 C 2.652344 -2.128906 2.710938 -2.171875 2.777344 -2.203125 C 2.839844 -2.230469 2.910156 -2.242188 2.988281 -2.246094 Z M 2.988281 -2.246094 "/>
</symbol>
<symbol overflow="visible" id="glyph0-1">
<path style="stroke:none;" d="M 5.5625 0 L 5.5625 -4.578125 C 5.558594 -4.773438 5.550781 -4.9375 5.539063 -5.066406 C 5.519531 -5.191406 5.496094 -5.292969 5.46875 -5.367188 C 5.433594 -5.4375 5.394531 -5.488281 5.347656 -5.519531 C 5.296875 -5.550781 5.238281 -5.566406 5.167969 -5.566406 C 5.082031 -5.566406 5 -5.539063 4.929688 -5.488281 C 4.855469 -5.4375 4.78125 -5.355469 4.699219 -5.242188 C 4.617188 -5.125 4.523438 -4.972656 4.425781 -4.789063 C 4.324219 -4.597656 4.207031 -4.367188 4.074219 -4.09375 L 4.074219 0 L 3.066406 0 L 3.066406 -4.457031 C 3.0625 -4.6875 3.054688 -4.875 3.042969 -5.019531 C 3.027344 -5.164063 3.003906 -5.277344 2.972656 -5.355469 C 2.9375 -5.433594 2.898438 -5.488281 2.847656 -5.519531 C 2.796875 -5.550781 2.734375 -5.566406 2.667969 -5.566406 C 2.585938 -5.566406 2.515625 -5.542969 2.449219 -5.503906 C 2.378906 -5.457031 2.300781 -5.382813 2.222656 -5.273438 C 2.136719 -5.164063 2.046875 -5.011719 1.949219 -4.824219 C 1.84375 -4.628906 1.722656 -4.386719 1.585938 -4.09375 L 1.585938 0 L 0.570313 0 L 0.570313 -6.375 L 1.414063 -6.375 L 1.464844 -5.160156 C 1.574219 -5.398438 1.679688 -5.605469 1.785156 -5.777344 C 1.886719 -5.945313 1.992188 -6.078125 2.105469 -6.183594 C 2.214844 -6.285156 2.335938 -6.363281 2.460938 -6.414063 C 2.585938 -6.460938 2.722656 -6.484375 2.875 -6.488281 C 3.214844 -6.484375 3.476563 -6.375 3.65625 -6.152344 C 3.832031 -5.925781 3.917969 -5.578125 3.921875 -5.109375 C 4.019531 -5.328125 4.121094 -5.523438 4.21875 -5.695313 C 4.316406 -5.867188 4.421875 -6.011719 4.535156 -6.128906 C 4.644531 -6.246094 4.765625 -6.332031 4.90625 -6.394531 C 5.039063 -6.453125 5.195313 -6.484375 5.375 -6.488281 C 6.171875 -6.484375 6.574219 -5.871094 6.578125 -4.640625 L 6.578125 0 Z M 5.5625 0 "/>
</symbol>
<symbol overflow="visible" id="glyph0-2">
<path style="stroke:none;" d="M 5.96875 -0.234375 C 5.675781 -0.125 5.378906 -0.046875 5.082031 0.0078125 C 4.777344 0.0585938 4.464844 0.0859375 4.144531 0.0898438 C 3.132813 0.0859375 2.359375 -0.183594 1.816406 -0.730469 C 1.273438 -1.273438 1 -2.070313 1.003906 -3.125 C 1 -3.625 1.078125 -4.082031 1.238281 -4.492188 C 1.390625 -4.902344 1.613281 -5.253906 1.898438 -5.546875 C 2.179688 -5.835938 2.515625 -6.0625 2.914063 -6.222656 C 3.304688 -6.378906 3.738281 -6.457031 4.214844 -6.460938 C 4.542969 -6.457031 4.851563 -6.433594 5.140625 -6.390625 C 5.425781 -6.34375 5.703125 -6.269531 5.96875 -6.164063 L 5.96875 -5.109375 C 5.691406 -5.25 5.410156 -5.351563 5.125 -5.421875 C 4.839844 -5.484375 4.546875 -5.519531 4.242188 -5.523438 C 3.957031 -5.519531 3.6875 -5.464844 3.4375 -5.359375 C 3.183594 -5.25 2.960938 -5.09375 2.773438 -4.894531 C 2.578125 -4.6875 2.429688 -4.441406 2.324219 -4.152344 C 2.210938 -3.859375 2.15625 -3.527344 2.160156 -3.160156 C 2.15625 -2.386719 2.34375 -1.8125 2.71875 -1.429688 C 3.09375 -1.046875 3.613281 -0.855469 4.277344 -0.855469 C 4.578125 -0.855469 4.867188 -0.886719 5.152344 -0.957031 C 5.429688 -1.019531 5.703125 -1.121094 5.96875 -1.261719 Z M 5.96875 -0.234375 "/>
</symbol>
<symbol overflow="visible" id="glyph0-3">
<path style="stroke:none;" d="M 6.398438 0 L 0.933594 0 L 0.933594 -0.992188 L 3.078125 -3.125 C 3.425781 -3.46875 3.710938 -3.769531 3.933594 -4.023438 C 4.152344 -4.277344 4.324219 -4.507813 4.449219 -4.71875 C 4.566406 -4.925781 4.648438 -5.125 4.695313 -5.3125 C 4.734375 -5.496094 4.757813 -5.699219 4.761719 -5.917969 C 4.757813 -6.121094 4.730469 -6.3125 4.679688 -6.496094 C 4.621094 -6.679688 4.535156 -6.839844 4.425781 -6.980469 C 4.308594 -7.117188 4.160156 -7.230469 3.980469 -7.3125 C 3.792969 -7.390625 3.578125 -7.429688 3.328125 -7.433594 C 2.976563 -7.429688 2.65625 -7.351563 2.367188 -7.199219 C 2.078125 -7.039063 1.8125 -6.835938 1.574219 -6.589844 L 0.964844 -7.320313 C 1.273438 -7.644531 1.632813 -7.910156 2.046875 -8.109375 C 2.453125 -8.308594 2.929688 -8.40625 3.472656 -8.410156 C 3.835938 -8.40625 4.171875 -8.351563 4.476563 -8.246094 C 4.78125 -8.132813 5.042969 -7.976563 5.261719 -7.769531 C 5.480469 -7.558594 5.648438 -7.304688 5.773438 -7.007813 C 5.890625 -6.707031 5.953125 -6.367188 5.953125 -5.992188 C 5.953125 -5.671875 5.910156 -5.378906 5.824219 -5.109375 C 5.738281 -4.835938 5.609375 -4.566406 5.441406 -4.300781 C 5.269531 -4.03125 5.054688 -3.75 4.796875 -3.464844 C 4.535156 -3.175781 4.226563 -2.863281 3.871094 -2.519531 L 2.367188 -1.054688 L 6.398438 -1.054688 Z M 6.398438 0 "/>
</symbol>
<symbol overflow="visible" id="glyph0-4">
<path style="stroke:none;" d="M 6.796875 -4.203125 C 6.796875 -3.453125 6.707031 -2.8125 6.535156 -2.273438 C 6.355469 -1.730469 6.121094 -1.28125 5.824219 -0.929688 C 5.523438 -0.574219 5.171875 -0.3125 4.773438 -0.140625 C 4.371094 0.0273438 3.949219 0.109375 3.511719 0.113281 C 2.972656 0.109375 2.507813 0.015625 2.117188 -0.175781 C 1.71875 -0.367188 1.390625 -0.644531 1.132813 -1.007813 C 0.867188 -1.371094 0.675781 -1.8125 0.550781 -2.339844 C 0.425781 -2.859375 0.363281 -3.449219 0.363281 -4.105469 C 0.363281 -4.839844 0.449219 -5.480469 0.621094 -6.023438 C 0.792969 -6.5625 1.027344 -7.007813 1.328125 -7.367188 C 1.625 -7.71875 1.972656 -7.980469 2.375 -8.152344 C 2.769531 -8.320313 3.191406 -8.40625 3.636719 -8.410156 C 4.167969 -8.40625 4.632813 -8.308594 5.03125 -8.117188 C 5.425781 -7.921875 5.753906 -7.644531 6.015625 -7.285156 C 6.277344 -6.917969 6.472656 -6.476563 6.601563 -5.960938 C 6.730469 -5.4375 6.796875 -4.851563 6.796875 -4.203125 Z M 5.625 -4.121094 C 5.625 -4.605469 5.585938 -5.050781 5.511719 -5.457031 C 5.4375 -5.855469 5.316406 -6.203125 5.152344 -6.5 C 4.984375 -6.789063 4.773438 -7.015625 4.515625 -7.179688 C 4.253906 -7.335938 3.941406 -7.417969 3.574219 -7.421875 C 3.214844 -7.417969 2.90625 -7.332031 2.65625 -7.164063 C 2.398438 -6.988281 2.1875 -6.753906 2.023438 -6.464844 C 1.855469 -6.167969 1.734375 -5.824219 1.65625 -5.429688 C 1.574219 -5.03125 1.535156 -4.613281 1.535156 -4.171875 C 1.535156 -3.679688 1.570313 -3.230469 1.648438 -2.828125 C 1.722656 -2.421875 1.84375 -2.074219 2.007813 -1.785156 C 2.167969 -1.492188 2.378906 -1.265625 2.640625 -1.109375 C 2.894531 -0.945313 3.207031 -0.867188 3.574219 -0.871094 C 3.925781 -0.867188 4.230469 -0.953125 4.492188 -1.125 C 4.75 -1.296875 4.964844 -1.527344 5.132813 -1.824219 C 5.296875 -2.113281 5.417969 -2.457031 5.503906 -2.855469 C 5.582031 -3.246094 5.625 -3.667969 5.625 -4.121094 Z M 5.625 -4.121094 "/>
</symbol>
<symbol overflow="visible" id="glyph0-5">
<path style="stroke:none;" d="M 1.277344 -6.375 L 2.285156 -6.375 L 2.316406 -5.199219 C 2.691406 -5.648438 3.0625 -5.976563 3.429688 -6.183594 C 3.792969 -6.382813 4.164063 -6.484375 4.539063 -6.488281 C 5.195313 -6.484375 5.695313 -6.273438 6.039063 -5.847656 C 6.378906 -5.417969 6.535156 -4.78125 6.511719 -3.941406 L 5.394531 -3.941406 C 5.40625 -4.5 5.324219 -4.90625 5.148438 -5.15625 C 4.972656 -5.40625 4.714844 -5.53125 4.378906 -5.535156 C 4.226563 -5.53125 4.078125 -5.503906 3.929688 -5.453125 C 3.777344 -5.398438 3.625 -5.3125 3.46875 -5.199219 C 3.308594 -5.082031 3.140625 -4.933594 2.964844 -4.753906 C 2.785156 -4.566406 2.59375 -4.347656 2.394531 -4.09375 L 2.394531 0 L 1.277344 0 Z M 1.277344 -6.375 "/>
</symbol>
<symbol overflow="visible" id="glyph0-6">
<path style="stroke:none;" d="M 0.691406 -3.054688 C 0.691406 -3.59375 0.765625 -4.074219 0.914063 -4.496094 C 1.0625 -4.914063 1.273438 -5.269531 1.546875 -5.5625 C 1.820313 -5.851563 2.148438 -6.074219 2.53125 -6.222656 C 2.914063 -6.371094 3.339844 -6.445313 3.808594 -6.449219 C 4.011719 -6.445313 4.210938 -6.433594 4.40625 -6.410156 C 4.601563 -6.386719 4.792969 -6.34375 4.988281 -6.289063 L 4.988281 -8.96875 L 6.101563 -8.96875 L 6.101563 0 L 5.109375 0 L 5.070313 -1.207031 C 4.757813 -0.757813 4.425781 -0.425781 4.070313 -0.210938 C 3.707031 0.00390625 3.316406 0.109375 2.902344 0.113281 C 2.535156 0.109375 2.214844 0.0390625 1.9375 -0.113281 C 1.660156 -0.261719 1.429688 -0.476563 1.246094 -0.757813 C 1.0625 -1.03125 0.925781 -1.367188 0.832031 -1.757813 C 0.738281 -2.148438 0.691406 -2.578125 0.691406 -3.054688 Z M 1.820313 -3.125 C 1.816406 -2.351563 1.929688 -1.777344 2.160156 -1.398438 C 2.382813 -1.019531 2.703125 -0.832031 3.125 -0.832031 C 3.398438 -0.832031 3.695313 -0.957031 4.007813 -1.207031 C 4.320313 -1.457031 4.644531 -1.824219 4.988281 -2.316406 L 4.988281 -5.273438 C 4.800781 -5.359375 4.601563 -5.421875 4.382813 -5.46875 C 4.164063 -5.507813 3.945313 -5.53125 3.734375 -5.535156 C 3.128906 -5.53125 2.660156 -5.335938 2.324219 -4.949219 C 1.984375 -4.558594 1.816406 -3.949219 1.820313 -3.125 Z M 1.820313 -3.125 "/>
</symbol>
<symbol overflow="visible" id="glyph0-7">
<path style="stroke:none;" d="M 6.398438 -3.523438 C 6.398438 -3.363281 6.394531 -3.234375 6.390625 -3.128906 C 6.386719 -3.023438 6.382813 -2.921875 6.375 -2.832031 L 1.898438 -2.832031 C 1.898438 -2.175781 2.078125 -1.675781 2.441406 -1.328125 C 2.804688 -0.976563 3.332031 -0.800781 4.019531 -0.804688 C 4.203125 -0.800781 4.386719 -0.808594 4.574219 -0.828125 C 4.757813 -0.839844 4.9375 -0.859375 5.113281 -0.886719 C 5.285156 -0.910156 5.453125 -0.941406 5.613281 -0.972656 C 5.769531 -1.003906 5.914063 -1.039063 6.054688 -1.078125 L 6.054688 -0.171875 C 5.75 -0.0820313 5.410156 -0.015625 5.035156 0.0351563 C 4.652344 0.0859375 4.261719 0.109375 3.859375 0.113281 C 3.308594 0.109375 2.839844 0.0390625 2.449219 -0.109375 C 2.054688 -0.253906 1.730469 -0.46875 1.480469 -0.753906 C 1.226563 -1.03125 1.039063 -1.375 0.921875 -1.785156 C 0.796875 -2.191406 0.738281 -2.65625 0.742188 -3.175781 C 0.738281 -3.621094 0.800781 -4.042969 0.933594 -4.445313 C 1.058594 -4.84375 1.25 -5.195313 1.5 -5.5 C 1.746094 -5.800781 2.046875 -6.039063 2.410156 -6.21875 C 2.769531 -6.394531 3.179688 -6.484375 3.636719 -6.488281 C 4.078125 -6.484375 4.472656 -6.414063 4.816406 -6.277344 C 5.160156 -6.136719 5.449219 -5.941406 5.683594 -5.683594 C 5.917969 -5.425781 6.09375 -5.113281 6.214844 -4.75 C 6.335938 -4.382813 6.398438 -3.972656 6.398438 -3.523438 Z M 5.25 -3.683594 C 5.261719 -3.960938 5.234375 -4.21875 5.167969 -4.457031 C 5.097656 -4.691406 4.992188 -4.894531 4.851563 -5.066406 C 4.710938 -5.234375 4.53125 -5.367188 4.320313 -5.460938 C 4.105469 -5.554688 3.863281 -5.601563 3.585938 -5.605469 C 3.34375 -5.601563 3.121094 -5.554688 2.925781 -5.464844 C 2.722656 -5.367188 2.550781 -5.234375 2.410156 -5.070313 C 2.261719 -4.898438 2.148438 -4.695313 2.0625 -4.460938 C 1.972656 -4.21875 1.917969 -3.960938 1.898438 -3.683594 Z M 5.25 -3.683594 "/>
</symbol>
</g>
</defs>
<g id="surface91">
<path style=" stroke:none;fill-rule:evenodd;fill:rgb(100%,99.99969%,100%);fill-opacity:1;" d="M 0 15.359375 L 57.359375 15.359375 L 57.359375 0 L 0 0 Z M 0 15.359375 "/>
<g style="fill:rgb(0%,0%,0%);fill-opacity:1;">
  <use xlink:href="#glyph0-1" x="0" y="11.958984"/>
  <use xlink:href="#glyph0-2" x="7.147461" y="11.958984"/>
  <use xlink:href="#glyph0-3" x="14.294922" y="11.958984"/>
  <use xlink:href="#glyph0-4" x="21.442383" y="11.958984"/>
  <use xlink:href="#glyph0-5" x="28.589844" y="11.958984"/>
  <use xlink:href="#glyph0-6" x="35.737305" y="11.958984"/>
  <use xlink:href="#glyph0-7" x="42.884767" y="11.958984"/>
  <use xlink:href="#glyph0-5" x="50.032228" y="11.958984"/>
</g>
</g>
</svg>
