<?xml version="1.0" encoding="UTF-8"?>
<svg xmlns="http://www.w3.org/2000/svg" xmlns:xlink="http://www.w3.org/1999/xlink" width="550pt" height="356pt" viewBox="0 0 550 356" version="1.1">
<defs>
<g>
<symbol overflow="visible" id="glyph0-0">
<path style="stroke:none;" d="M 2.25 0 L 2.25 -11.25 L 11.25 -11.25 L 11.25 0 Z M 2.53125 -0.28125 L 10.96875 -0.28125 L 10.96875 -10.96875 L 2.53125 -10.96875 Z M 2.53125 -0.28125 "/>
</symbol>
<symbol overflow="visible" id="glyph0-1">
<path style="stroke:none;" d="M 4.9375 -12.9375 C 6.183594 -12.9375 7.160156 -12.492188 7.867188 -11.601563 C 8.703125 -10.546875 9.121094 -8.796875 9.125 -6.355469 C 9.121094 -3.914063 8.699219 -2.160156 7.859375 -1.097656 C 7.15625 -0.21875 6.183594 0.214844 4.9375 0.21875 C 3.683594 0.214844 2.671875 -0.261719 1.90625 -1.226563 C 1.136719 -2.1875 0.753906 -3.90625 0.757813 -6.382813 C 0.753906 -8.804688 1.175781 -10.550781 2.023438 -11.617188 C 2.714844 -12.496094 3.6875 -12.9375 4.9375 -12.9375 Z M 4.9375 -10.890625 C 4.636719 -10.886719 4.371094 -10.792969 4.140625 -10.605469 C 3.902344 -10.414063 3.71875 -10.070313 3.59375 -9.578125 C 3.421875 -8.9375 3.339844 -7.863281 3.339844 -6.355469 C 3.339844 -4.839844 3.414063 -3.800781 3.566406 -3.238281 C 3.71875 -2.671875 3.910156 -2.296875 4.144531 -2.109375 C 4.371094 -1.921875 4.636719 -1.828125 4.9375 -1.828125 C 5.234375 -1.828125 5.5 -1.921875 5.738281 -2.113281 C 5.96875 -2.300781 6.152344 -2.640625 6.285156 -3.136719 C 6.453125 -3.765625 6.539063 -4.839844 6.539063 -6.355469 C 6.539063 -7.863281 6.460938 -8.902344 6.308594 -9.46875 C 6.15625 -10.035156 5.964844 -10.414063 5.734375 -10.605469 C 5.5 -10.792969 5.234375 -10.886719 4.9375 -10.890625 Z M 4.9375 -10.890625 "/>
</symbol>
<symbol overflow="visible" id="glyph0-2">
<path style="stroke:none;" d="M 1.292969 0 L 1.292969 -2.46875 L 3.761719 -2.46875 L 3.761719 0 Z M 1.292969 0 "/>
</symbol>
<symbol overflow="visible" id="glyph0-3">
<path style="stroke:none;" d="M 7.085938 0 L 4.613281 0 L 4.613281 -9.308594 C 3.707031 -8.460938 2.644531 -7.835938 1.421875 -7.4375 L 1.421875 -9.675781 C 2.066406 -9.882813 2.765625 -10.285156 3.523438 -10.875 C 4.273438 -11.460938 4.792969 -12.148438 5.078125 -12.9375 L 7.085938 -12.9375 Z M 7.085938 0 "/>
</symbol>
<symbol overflow="visible" id="glyph0-4">
<path style="stroke:none;" d="M 9.105469 -2.292969 L 9.105469 0 L 0.449219 0 C 0.539063 -0.867188 0.820313 -1.6875 1.292969 -2.464844 C 1.757813 -3.238281 2.683594 -4.269531 4.070313 -5.554688 C 5.179688 -6.589844 5.863281 -7.292969 6.117188 -7.664063 C 6.453125 -8.171875 6.621094 -8.675781 6.625 -9.175781 C 6.621094 -9.722656 6.472656 -10.144531 6.179688 -10.445313 C 5.882813 -10.738281 5.476563 -10.886719 4.957031 -10.890625 C 4.441406 -10.886719 4.03125 -10.730469 3.726563 -10.421875 C 3.421875 -10.109375 3.246094 -9.59375 3.199219 -8.875 L 0.738281 -9.125 C 0.882813 -10.480469 1.339844 -11.457031 2.117188 -12.050781 C 2.886719 -12.640625 3.855469 -12.9375 5.019531 -12.9375 C 6.289063 -12.9375 7.289063 -12.59375 8.015625 -11.910156 C 8.742188 -11.222656 9.105469 -10.371094 9.105469 -9.351563 C 9.105469 -8.769531 9 -8.214844 8.792969 -7.691406 C 8.582031 -7.164063 8.253906 -6.617188 7.804688 -6.046875 C 7.503906 -5.664063 6.964844 -5.113281 6.1875 -4.402344 C 5.40625 -3.683594 4.910156 -3.210938 4.707031 -2.980469 C 4.496094 -2.742188 4.328125 -2.511719 4.203125 -2.292969 Z M 9.105469 -2.292969 "/>
</symbol>
<symbol overflow="visible" id="glyph0-5">
<path style="stroke:none;" d="M 0.675781 -3.417969 L 3.066406 -3.710938 C 3.136719 -3.097656 3.34375 -2.632813 3.679688 -2.3125 C 4.015625 -1.988281 4.417969 -1.828125 4.894531 -1.828125 C 5.402344 -1.828125 5.832031 -2.019531 6.183594 -2.40625 C 6.527344 -2.792969 6.703125 -3.316406 6.707031 -3.972656 C 6.703125 -4.59375 6.535156 -5.085938 6.203125 -5.449219 C 5.867188 -5.808594 5.460938 -5.988281 4.984375 -5.992188 C 4.664063 -5.988281 4.285156 -5.925781 3.851563 -5.808594 L 4.121094 -7.820313 C 4.785156 -7.800781 5.296875 -7.945313 5.652344 -8.257813 C 6 -8.5625 6.175781 -8.972656 6.179688 -9.484375 C 6.175781 -9.914063 6.046875 -10.257813 5.792969 -10.519531 C 5.53125 -10.773438 5.1875 -10.902344 4.765625 -10.90625 C 4.339844 -10.902344 3.980469 -10.757813 3.683594 -10.464844 C 3.382813 -10.171875 3.199219 -9.742188 3.136719 -9.183594 L 0.859375 -9.570313 C 1.015625 -10.347656 1.253906 -10.972656 1.574219 -11.4375 C 1.890625 -11.902344 2.335938 -12.265625 2.910156 -12.535156 C 3.480469 -12.800781 4.121094 -12.9375 4.835938 -12.9375 C 6.042969 -12.9375 7.015625 -12.550781 7.75 -11.777344 C 8.351563 -11.144531 8.652344 -10.429688 8.65625 -9.632813 C 8.652344 -8.5 8.035156 -7.597656 6.804688 -6.925781 C 7.539063 -6.765625 8.128906 -6.410156 8.574219 -5.859375 C 9.011719 -5.308594 9.234375 -4.644531 9.238281 -3.867188 C 9.234375 -2.734375 8.820313 -1.769531 7.996094 -0.976563 C 7.167969 -0.179688 6.140625 0.214844 4.914063 0.21875 C 3.746094 0.214844 2.777344 -0.117188 2.011719 -0.785156 C 1.238281 -1.457031 0.792969 -2.332031 0.675781 -3.417969 Z M 0.675781 -3.417969 "/>
</symbol>
<symbol overflow="visible" id="glyph0-6">
<path style="stroke:none;" d="M 5.609375 0 L 5.609375 -2.59375 L 0.335938 -2.59375 L 0.335938 -4.753906 L 5.921875 -12.9375 L 8 -12.9375 L 8 -4.765625 L 9.597656 -4.765625 L 9.597656 -2.59375 L 8 -2.59375 L 8 0 Z M 5.609375 -4.765625 L 5.609375 -9.167969 L 2.644531 -4.765625 Z M 5.609375 -4.765625 "/>
</symbol>
<symbol overflow="visible" id="glyph0-7">
<path style="stroke:none;" d="M 0.800781 -3.3125 L 3.261719 -3.570313 C 3.328125 -3.007813 3.535156 -2.566406 3.882813 -2.246094 C 4.226563 -1.917969 4.625 -1.757813 5.078125 -1.757813 C 5.589844 -1.757813 6.027344 -1.964844 6.386719 -2.386719 C 6.746094 -2.800781 6.925781 -3.433594 6.925781 -4.28125 C 6.925781 -5.070313 6.746094 -5.664063 6.394531 -6.058594 C 6.035156 -6.453125 5.574219 -6.648438 5.007813 -6.652344 C 4.296875 -6.648438 3.660156 -6.335938 3.101563 -5.710938 L 1.097656 -6.003906 L 2.363281 -12.710938 L 8.894531 -12.710938 L 8.894531 -10.398438 L 4.234375 -10.398438 L 3.851563 -8.210938 C 4.398438 -8.480469 4.960938 -8.617188 5.539063 -8.621094 C 6.628906 -8.617188 7.558594 -8.21875 8.320313 -7.425781 C 9.082031 -6.625 9.460938 -5.59375 9.464844 -4.324219 C 9.460938 -3.261719 9.15625 -2.3125 8.542969 -1.484375 C 7.703125 -0.347656 6.539063 0.214844 5.054688 0.21875 C 3.863281 0.214844 2.894531 -0.101563 2.144531 -0.738281 C 1.394531 -1.375 0.945313 -2.230469 0.800781 -3.3125 Z M 0.800781 -3.3125 "/>
</symbol>
<symbol overflow="visible" id="glyph0-8">
<path style="stroke:none;" d="M 9.132813 -9.730469 L 6.742188 -9.464844 C 6.679688 -9.953125 6.527344 -10.316406 6.28125 -10.554688 C 6.035156 -10.785156 5.714844 -10.902344 5.328125 -10.90625 C 4.800781 -10.902344 4.359375 -10.667969 4 -10.203125 C 3.636719 -9.730469 3.410156 -8.757813 3.320313 -7.277344 C 3.933594 -8.003906 4.699219 -8.367188 5.617188 -8.367188 C 6.644531 -8.367188 7.527344 -7.972656 8.265625 -7.1875 C 8.996094 -6.402344 9.363281 -5.390625 9.367188 -4.148438 C 9.363281 -2.828125 8.976563 -1.769531 8.207031 -0.976563 C 7.429688 -0.179688 6.4375 0.214844 5.230469 0.21875 C 3.925781 0.214844 2.855469 -0.285156 2.019531 -1.296875 C 1.179688 -2.304688 0.761719 -3.960938 0.765625 -6.265625 C 0.761719 -8.625 1.199219 -10.328125 2.074219 -11.371094 C 2.945313 -12.414063 4.078125 -12.9375 5.476563 -12.9375 C 6.453125 -12.9375 7.261719 -12.660156 7.90625 -12.113281 C 8.542969 -11.5625 8.953125 -10.769531 9.132813 -9.730469 Z M 3.53125 -4.34375 C 3.527344 -3.535156 3.710938 -2.914063 4.085938 -2.480469 C 4.453125 -2.042969 4.875 -1.828125 5.351563 -1.828125 C 5.804688 -1.828125 6.1875 -2.003906 6.496094 -2.363281 C 6.796875 -2.714844 6.949219 -3.300781 6.953125 -4.121094 C 6.949219 -4.957031 6.785156 -5.570313 6.460938 -5.960938 C 6.128906 -6.347656 5.71875 -6.542969 5.230469 -6.546875 C 4.75 -6.542969 4.347656 -6.359375 4.023438 -5.988281 C 3.691406 -5.613281 3.527344 -5.0625 3.53125 -4.34375 Z M 3.53125 -4.34375 "/>
</symbol>
<symbol overflow="visible" id="glyph0-9">
<path style="stroke:none;" d="M 0.765625 -10.414063 L 0.765625 -12.710938 L 9.210938 -12.710938 L 9.210938 -10.914063 C 8.511719 -10.226563 7.800781 -9.242188 7.082031 -7.960938 C 6.359375 -6.675781 5.808594 -5.3125 5.433594 -3.871094 C 5.050781 -2.421875 4.867188 -1.132813 4.878906 0 L 2.496094 0 C 2.535156 -1.78125 2.902344 -3.597656 3.597656 -5.449219 C 4.292969 -7.300781 5.21875 -8.953125 6.382813 -10.414063 Z M 0.765625 -10.414063 "/>
</symbol>
<symbol overflow="visible" id="glyph1-0">
<path style="stroke:none;" d="M 1.0625 0 L 1.0625 -13.597656 L 7.4375 -13.597656 L 7.4375 0 Z M 2.125 -1.0625 L 6.375 -1.0625 L 6.375 -12.535156 L 2.125 -12.535156 Z M 2.125 -1.0625 "/>
</symbol>
<symbol overflow="visible" id="glyph1-1">
<path style="stroke:none;" d="M 9.339844 -8.824219 L 8.941406 -6.941406 L 6.441406 -6.941406 C 5.847656 -6.9375 5.367188 -6.777344 4.992188 -6.464844 C 4.617188 -6.144531 4.347656 -5.710938 4.191406 -5.15625 L 6.675781 -5.15625 L 6.375 -3.742188 L 3.894531 -3.742188 C 3.875 -3.613281 3.867188 -3.492188 3.867188 -3.378906 C 3.867188 -2.878906 3.996094 -2.503906 4.253906 -2.257813 C 4.511719 -2.003906 4.886719 -1.878906 5.378906 -1.882813 L 7.859375 -1.882813 L 7.460938 0 L 4.964844 0 C 4.457031 0 3.992188 -0.0507813 3.5625 -0.152344 C 3.132813 -0.253906 2.761719 -0.421875 2.453125 -0.65625 C 2.136719 -0.886719 1.890625 -1.191406 1.71875 -1.570313 C 1.539063 -1.949219 1.453125 -2.417969 1.453125 -2.980469 C 1.453125 -3.226563 1.464844 -3.472656 1.496094 -3.714844 C 1.523438 -3.953125 1.570313 -4.195313 1.628906 -4.441406 C 1.78125 -5.125 2.003906 -5.738281 2.296875 -6.28125 C 2.589844 -6.824219 2.953125 -7.28125 3.394531 -7.660156 C 3.828125 -8.035156 4.335938 -8.324219 4.914063 -8.523438 C 5.488281 -8.722656 6.136719 -8.824219 6.855469 -8.824219 Z M 9.339844 -8.824219 "/>
</symbol>
<symbol overflow="visible" id="glyph2-0">
<path style="stroke:none;" d="M 1.601563 0 L 1.601563 -8 L 8 -8 L 8 0 Z M 1.800781 -0.199219 L 7.800781 -0.199219 L 7.800781 -7.800781 L 1.800781 -7.800781 Z M 1.800781 -0.199219 "/>
</symbol>
<symbol overflow="visible" id="glyph2-1">
<path style="stroke:none;" d="M 2.425781 -9.164063 L 4.21875 -9.164063 L 3.882813 -7.539063 L 2.085938 -7.539063 Z M 1.898438 -6.636719 L 3.695313 -6.636719 L 2.304688 0 L 0.511719 0 Z M 1.898438 -6.636719 "/>
</symbol>
<symbol overflow="visible" id="glyph3-0">
<path style="stroke:none;" d="M 0 -2.25 L -11.25 -2.25 L -11.25 -11.25 L 0 -11.25 Z M -0.28125 -2.53125 L -0.28125 -10.96875 L -10.96875 -10.96875 L -10.96875 -2.53125 Z M -0.28125 -2.53125 "/>
</symbol>
<symbol overflow="visible" id="glyph3-1">
<path style="stroke:none;" d="M 0 -1.308594 L -12.882813 -1.308594 L -12.882813 -5.484375 C -12.878906 -7.066406 -12.816406 -8.097656 -12.691406 -8.578125 C -12.496094 -9.316406 -12.074219 -9.933594 -11.429688 -10.433594 C -10.78125 -10.929688 -9.945313 -11.179688 -8.921875 -11.179688 C -8.128906 -11.179688 -7.464844 -11.035156 -6.925781 -10.75 C -6.386719 -10.460938 -5.960938 -10.097656 -5.65625 -9.65625 C -5.34375 -9.210938 -5.140625 -8.757813 -5.046875 -8.304688 C -4.917969 -7.679688 -4.855469 -6.78125 -4.859375 -5.609375 L -4.859375 -3.910156 L 0 -3.910156 Z M -10.703125 -3.910156 L -7.046875 -3.910156 L -7.046875 -5.335938 C -7.042969 -6.359375 -7.109375 -7.042969 -7.25 -7.390625 C -7.382813 -7.734375 -7.59375 -8.007813 -7.882813 -8.203125 C -8.164063 -8.398438 -8.5 -8.496094 -8.886719 -8.5 C -9.351563 -8.496094 -9.738281 -8.359375 -10.046875 -8.085938 C -10.347656 -7.808594 -10.539063 -7.457031 -10.617188 -7.039063 C -10.671875 -6.726563 -10.699219 -6.105469 -10.703125 -5.167969 Z M -10.703125 -3.910156 "/>
</symbol>
<symbol overflow="visible" id="glyph3-2">
<path style="stroke:none;" d="M 0 -3.65625 L 0 -1.1875 L -9.335938 -1.1875 L -9.335938 -3.480469 L -8.007813 -3.480469 C -8.628906 -3.871094 -9.042969 -4.222656 -9.246094 -4.539063 C -9.445313 -4.847656 -9.542969 -5.203125 -9.546875 -5.609375 C -9.542969 -6.167969 -9.386719 -6.710938 -9.078125 -7.234375 L -6.925781 -6.46875 C -7.191406 -6.050781 -7.324219 -5.664063 -7.328125 -5.308594 C -7.324219 -4.960938 -7.230469 -4.667969 -7.042969 -4.429688 C -6.851563 -4.1875 -6.507813 -3.996094 -6.011719 -3.863281 C -5.511719 -3.722656 -4.46875 -3.65625 -2.882813 -3.65625 Z M 0 -3.65625 "/>
</symbol>
<symbol overflow="visible" id="glyph3-3">
<path style="stroke:none;" d="M -4.796875 -0.71875 C -5.617188 -0.714844 -6.410156 -0.917969 -7.179688 -1.324219 C -7.945313 -1.730469 -8.53125 -2.300781 -8.9375 -3.042969 C -9.339844 -3.78125 -9.542969 -4.609375 -9.546875 -5.527344 C -9.542969 -6.9375 -9.085938 -8.097656 -8.167969 -9 C -7.25 -9.898438 -6.089844 -10.347656 -4.695313 -10.351563 C -3.277344 -10.347656 -2.105469 -9.890625 -1.179688 -8.984375 C -0.25 -8.070313 0.210938 -6.925781 0.210938 -5.546875 C 0.210938 -4.6875 0.0195313 -3.871094 -0.367188 -3.097656 C -0.753906 -2.320313 -1.320313 -1.730469 -2.070313 -1.324219 C -2.8125 -0.917969 -3.722656 -0.714844 -4.796875 -0.71875 Z M -4.667969 -3.25 C -3.738281 -3.246094 -3.027344 -3.464844 -2.539063 -3.910156 C -2.042969 -4.347656 -1.796875 -4.890625 -1.800781 -5.539063 C -1.796875 -6.179688 -2.042969 -6.71875 -2.539063 -7.15625 C -3.027344 -7.589844 -3.742188 -7.808594 -4.683594 -7.8125 C -5.59375 -7.808594 -6.296875 -7.589844 -6.792969 -7.15625 C -7.28125 -6.71875 -7.527344 -6.179688 -7.53125 -5.539063 C -7.527344 -4.890625 -7.28125 -4.347656 -6.792969 -3.910156 C -6.296875 -3.464844 -5.589844 -3.246094 -4.667969 -3.25 Z M -4.667969 -3.25 "/>
</symbol>
<symbol overflow="visible" id="glyph3-4">
<path style="stroke:none;" d="M 0 -1.1875 L -12.882813 -1.1875 L -12.882813 -3.65625 L -8.242188 -3.65625 C -9.109375 -4.414063 -9.542969 -5.316406 -9.546875 -6.363281 C -9.542969 -7.5 -9.132813 -8.4375 -8.308594 -9.183594 C -7.484375 -9.925781 -6.300781 -10.300781 -4.765625 -10.300781 C -3.167969 -10.300781 -1.941406 -9.917969 -1.082031 -9.160156 C -0.21875 -8.398438 0.210938 -7.480469 0.210938 -6.398438 C 0.210938 -5.863281 0.078125 -5.335938 -0.1875 -4.820313 C -0.453125 -4.300781 -0.847656 -3.855469 -1.371094 -3.480469 L 0 -3.480469 Z M -4.867188 -3.640625 C -3.898438 -3.636719 -3.183594 -3.789063 -2.726563 -4.09375 C -2.066406 -4.519531 -1.738281 -5.089844 -1.742188 -5.800781 C -1.738281 -6.34375 -1.972656 -6.804688 -2.4375 -7.191406 C -2.902344 -7.574219 -3.636719 -7.769531 -4.640625 -7.769531 C -5.707031 -7.769531 -6.476563 -7.574219 -6.949219 -7.1875 C -7.417969 -6.800781 -7.652344 -6.304688 -7.65625 -5.703125 C -7.652344 -5.109375 -7.421875 -4.617188 -6.964844 -4.226563 C -6.5 -3.832031 -5.800781 -3.636719 -4.867188 -3.640625 Z M -4.867188 -3.640625 "/>
</symbol>
<symbol overflow="visible" id="glyph3-5">
<path style="stroke:none;" d="M -6.484375 -3.136719 L -6.890625 -0.898438 C -7.789063 -1.144531 -8.457031 -1.578125 -8.894531 -2.195313 C -9.328125 -2.808594 -9.542969 -3.722656 -9.546875 -4.9375 C -9.542969 -6.039063 -9.414063 -6.859375 -9.152344 -7.402344 C -8.890625 -7.9375 -8.558594 -8.316406 -8.160156 -8.539063 C -7.757813 -8.753906 -7.019531 -8.863281 -5.949219 -8.867188 L -3.066406 -8.84375 C -2.242188 -8.839844 -1.636719 -8.878906 -1.25 -8.960938 C -0.859375 -9.035156 -0.445313 -9.183594 0 -9.40625 L 0 -6.960938 C -0.164063 -6.894531 -0.40625 -6.8125 -0.730469 -6.722656 C -0.875 -6.679688 -0.972656 -6.652344 -1.019531 -6.636719 C -0.609375 -6.210938 -0.300781 -5.757813 -0.0976563 -5.28125 C 0.109375 -4.796875 0.210938 -4.285156 0.210938 -3.742188 C 0.210938 -2.78125 -0.046875 -2.023438 -0.570313 -1.472656 C -1.085938 -0.914063 -1.746094 -0.636719 -2.546875 -0.640625 C -3.074219 -0.636719 -3.542969 -0.765625 -3.957031 -1.019531 C -4.367188 -1.269531 -4.683594 -1.621094 -4.90625 -2.078125 C -5.125 -2.527344 -5.320313 -3.183594 -5.484375 -4.042969 C -5.699219 -5.195313 -5.898438 -5.992188 -6.089844 -6.441406 L -6.335938 -6.441406 C -6.804688 -6.4375 -7.144531 -6.320313 -7.351563 -6.089844 C -7.550781 -5.851563 -7.652344 -5.410156 -7.65625 -4.765625 C -7.652344 -4.320313 -7.566406 -3.976563 -7.394531 -3.734375 C -7.222656 -3.484375 -6.917969 -3.285156 -6.484375 -3.136719 Z M -4.484375 -6.441406 C -4.375 -6.121094 -4.25 -5.621094 -4.101563 -4.9375 C -3.953125 -4.25 -3.808594 -3.800781 -3.671875 -3.59375 C -3.441406 -3.265625 -3.152344 -3.105469 -2.804688 -3.109375 C -2.457031 -3.105469 -2.15625 -3.234375 -1.90625 -3.496094 C -1.652344 -3.75 -1.527344 -4.078125 -1.53125 -4.484375 C -1.527344 -4.921875 -1.675781 -5.347656 -1.96875 -5.757813 C -2.191406 -6.050781 -2.460938 -6.246094 -2.785156 -6.34375 C -2.992188 -6.40625 -3.394531 -6.4375 -3.992188 -6.441406 Z M -4.484375 -6.441406 "/>
</symbol>
<symbol overflow="visible" id="glyph3-6">
<path style="stroke:none;" d="M -10.601563 -1.292969 L -12.882813 -1.292969 L -12.882813 -3.761719 L -10.601563 -3.761719 Z M 0 -1.292969 L -9.335938 -1.292969 L -9.335938 -3.761719 L 0 -3.761719 Z M 0 -1.292969 "/>
</symbol>
<symbol overflow="visible" id="glyph3-7">
<path style="stroke:none;" d="M 0 -1.292969 L -12.882813 -1.292969 L -12.882813 -3.761719 L 0 -3.761719 Z M 0 -1.292969 "/>
</symbol>
<symbol overflow="visible" id="glyph3-8">
<path style="stroke:none;" d="M -9.335938 -5.570313 L -7.367188 -5.570313 L -7.367188 -3.882813 L -3.601563 -3.882813 C -2.839844 -3.878906 -2.394531 -3.894531 -2.269531 -3.929688 C -2.140625 -3.960938 -2.039063 -4.035156 -1.957031 -4.152344 C -1.875 -4.265625 -1.832031 -4.40625 -1.835938 -4.570313 C -1.832031 -4.796875 -1.914063 -5.125 -2.074219 -5.5625 L -0.15625 -5.773438 C 0.0898438 -5.195313 0.210938 -4.546875 0.210938 -3.824219 C 0.210938 -3.375 0.136719 -2.972656 -0.0117188 -2.617188 C -0.160156 -2.257813 -0.351563 -1.996094 -0.59375 -1.832031 C -0.828125 -1.664063 -1.148438 -1.546875 -1.554688 -1.484375 C -1.835938 -1.429688 -2.417969 -1.40625 -3.296875 -1.40625 L -7.367188 -1.40625 L -7.367188 -0.273438 L -9.335938 -0.273438 L -9.335938 -1.40625 L -11.1875 -1.40625 L -12.628906 -3.882813 L -9.335938 -3.882813 Z M -9.335938 -5.570313 "/>
</symbol>
<symbol overflow="visible" id="glyph3-9">
<path style="stroke:none;" d="M -9.335938 -0.125 L -9.335938 -2.75 L -2.707031 -4.984375 L -9.335938 -7.164063 L -9.335938 -9.71875 L -0.351563 -6.425781 L 1.273438 -5.835938 C 1.816406 -5.617188 2.234375 -5.410156 2.523438 -5.214844 C 2.808594 -5.019531 3.039063 -4.792969 3.21875 -4.539063 C 3.394531 -4.28125 3.535156 -3.96875 3.636719 -3.597656 C 3.734375 -3.222656 3.785156 -2.800781 3.789063 -2.335938 C 3.785156 -1.859375 3.734375 -1.394531 3.640625 -0.941406 L 1.703125 -0.71875 C 1.777344 -1.105469 1.816406 -1.453125 1.820313 -1.765625 C 1.816406 -2.335938 1.648438 -2.761719 1.3125 -3.039063 C 0.976563 -3.3125 0.546875 -3.523438 0.0273438 -3.671875 Z M -9.335938 -0.125 "/>
</symbol>
<symbol overflow="visible" id="glyph3-10">
<path style="stroke:none;" d="M -12.882813 -1.300781 L -12.882813 -6.054688 C -12.878906 -7.125 -12.796875 -7.945313 -12.640625 -8.507813 C -12.414063 -9.261719 -12.019531 -9.90625 -11.453125 -10.449219 C -10.882813 -10.984375 -10.1875 -11.394531 -9.363281 -11.679688 C -8.539063 -11.957031 -7.523438 -12.097656 -6.320313 -12.101563 C -5.253906 -12.097656 -4.339844 -11.96875 -3.578125 -11.707031 C -2.636719 -11.382813 -1.878906 -10.921875 -1.300781 -10.328125 C -0.859375 -9.871094 -0.515625 -9.261719 -0.273438 -8.5 C -0.0898438 -7.921875 0 -7.152344 0 -6.195313 L 0 -1.300781 Z M -10.703125 -3.902344 L -2.171875 -3.902344 L -2.171875 -5.84375 C -2.167969 -6.566406 -2.207031 -7.09375 -2.292969 -7.417969 C -2.394531 -7.839844 -2.574219 -8.1875 -2.828125 -8.46875 C -3.078125 -8.742188 -3.492188 -8.96875 -4.070313 -9.148438 C -4.644531 -9.320313 -5.433594 -9.410156 -6.433594 -9.414063 C -7.429688 -9.410156 -8.191406 -9.320313 -8.726563 -9.148438 C -9.257813 -8.96875 -9.675781 -8.722656 -9.972656 -8.410156 C -10.269531 -8.089844 -10.472656 -7.691406 -10.582031 -7.207031 C -10.660156 -6.84375 -10.699219 -6.128906 -10.703125 -5.070313 Z M -10.703125 -3.902344 "/>
</symbol>
<symbol overflow="visible" id="glyph3-11">
<path style="stroke:none;" d="M -2.96875 -6.695313 L -2.558594 -9.15625 C -1.652344 -8.839844 -0.964844 -8.339844 -0.496094 -7.660156 C -0.0234375 -6.972656 0.210938 -6.121094 0.210938 -5.097656 C 0.210938 -3.472656 -0.316406 -2.269531 -1.378906 -1.492188 C -2.226563 -0.875 -3.300781 -0.566406 -4.597656 -0.570313 C -6.140625 -0.566406 -7.351563 -0.972656 -8.230469 -1.78125 C -9.105469 -2.589844 -9.542969 -3.613281 -9.546875 -4.851563 C -9.542969 -6.238281 -9.085938 -7.332031 -8.167969 -8.136719 C -7.25 -8.9375 -5.84375 -9.320313 -3.953125 -9.289063 L -3.953125 -3.101563 C -3.21875 -3.117188 -2.648438 -3.316406 -2.242188 -3.699219 C -1.832031 -4.078125 -1.628906 -4.554688 -1.632813 -5.125 C -1.628906 -5.507813 -1.734375 -5.832031 -1.949219 -6.097656 C -2.15625 -6.359375 -2.496094 -6.558594 -2.96875 -6.695313 Z M -5.46875 -6.835938 C -6.179688 -6.816406 -6.722656 -6.632813 -7.097656 -6.285156 C -7.464844 -5.929688 -7.652344 -5.5 -7.65625 -5 C -7.652344 -4.457031 -7.457031 -4.011719 -7.066406 -3.664063 C -6.671875 -3.308594 -6.136719 -3.136719 -5.46875 -3.148438 Z M -5.46875 -6.835938 "/>
</symbol>
<symbol overflow="visible" id="glyph3-12">
<path style="stroke:none;" d="M 0 -9.78125 L 0 -7.3125 L -4.765625 -7.3125 C -5.765625 -7.3125 -6.417969 -7.257813 -6.71875 -7.152344 C -7.011719 -7.046875 -7.242188 -6.875 -7.410156 -6.640625 C -7.570313 -6.398438 -7.652344 -6.113281 -7.65625 -5.78125 C -7.652344 -5.351563 -7.535156 -4.96875 -7.304688 -4.628906 C -7.066406 -4.289063 -6.753906 -4.054688 -6.371094 -3.929688 C -5.980469 -3.800781 -5.265625 -3.738281 -4.226563 -3.742188 L 0 -3.742188 L 0 -1.273438 L -9.335938 -1.273438 L -9.335938 -3.570313 L -7.960938 -3.570313 C -9.015625 -4.378906 -9.542969 -5.40625 -9.546875 -6.644531 C -9.542969 -7.1875 -9.445313 -7.683594 -9.25 -8.136719 C -9.050781 -8.585938 -8.800781 -8.925781 -8.5 -9.160156 C -8.191406 -9.386719 -7.84375 -9.550781 -7.460938 -9.644531 C -7.070313 -9.734375 -6.519531 -9.777344 -5.800781 -9.78125 Z M 0 -9.78125 "/>
</symbol>
<symbol overflow="visible" id="glyph3-13">
<path style="stroke:none;" d="M -2.664063 -0.421875 L -3.039063 -2.898438 C -2.558594 -3.003906 -2.195313 -3.21875 -1.945313 -3.539063 C -1.695313 -3.859375 -1.570313 -4.308594 -1.574219 -4.894531 C -1.570313 -5.527344 -1.6875 -6.007813 -1.925781 -6.335938 C -2.085938 -6.550781 -2.304688 -6.660156 -2.585938 -6.664063 C -2.769531 -6.660156 -2.925781 -6.601563 -3.050781 -6.484375 C -3.164063 -6.359375 -3.273438 -6.085938 -3.375 -5.660156 C -3.8125 -3.667969 -4.210938 -2.402344 -4.578125 -1.871094 C -5.078125 -1.128906 -5.78125 -0.761719 -6.679688 -0.765625 C -7.484375 -0.761719 -8.164063 -1.082031 -8.71875 -1.722656 C -9.269531 -2.359375 -9.542969 -3.347656 -9.546875 -4.695313 C -9.542969 -5.96875 -9.335938 -6.917969 -8.921875 -7.539063 C -8.503906 -8.160156 -7.886719 -8.589844 -7.074219 -8.824219 L -6.644531 -6.496094 C -7.003906 -6.390625 -7.28125 -6.199219 -7.476563 -5.925781 C -7.671875 -5.644531 -7.769531 -5.25 -7.769531 -4.738281 C -7.769531 -4.085938 -7.675781 -3.621094 -7.496094 -3.339844 C -7.363281 -3.152344 -7.199219 -3.058594 -6.996094 -3.058594 C -6.820313 -3.058594 -6.667969 -3.140625 -6.546875 -3.304688 C -6.378906 -3.527344 -6.148438 -4.296875 -5.851563 -5.613281 C -5.550781 -6.925781 -5.183594 -7.84375 -4.753906 -8.367188 C -4.308594 -8.882813 -3.699219 -9.140625 -2.917969 -9.140625 C -2.058594 -9.140625 -1.320313 -8.78125 -0.710938 -8.066406 C -0.09375 -7.351563 0.210938 -6.292969 0.210938 -4.894531 C 0.210938 -3.621094 -0.046875 -2.617188 -0.5625 -1.875 C -1.078125 -1.132813 -1.777344 -0.648438 -2.664063 -0.421875 Z M -2.664063 -0.421875 "/>
</symbol>
<symbol overflow="visible" id="glyph4-0">
<path style="stroke:none;" d="M 2 0 L 2 -10 L 10 -10 L 10 0 Z M 2.25 -0.25 L 9.75 -0.25 L 9.75 -9.75 L 2.25 -9.75 Z M 2.25 -0.25 "/>
</symbol>
<symbol overflow="visible" id="glyph4-1">
<path style="stroke:none;" d="M 11.492188 0 L 8.976563 0 L 7.976563 -2.601563 L 3.398438 -2.601563 L 2.453125 0 L 0 0 L 4.460938 -11.453125 L 6.90625 -11.453125 Z M 7.234375 -4.53125 L 5.65625 -8.78125 L 4.109375 -4.53125 Z M 7.234375 -4.53125 "/>
</symbol>
</g>
<clipPath id="clip1">
  <path d="M 63 75 L 132 75 L 132 305.28125 L 63 305.28125 Z M 63 75 "/>
</clipPath>
<clipPath id="clip2">
  <path d="M 131 85 L 199 85 L 199 305.28125 L 131 305.28125 Z M 131 85 "/>
</clipPath>
<clipPath id="clip3">
  <path d="M 131 85 L 200 85 L 200 305.28125 L 131 305.28125 Z M 131 85 "/>
</clipPath>
<clipPath id="clip4">
  <path d="M 198 54 L 267 54 L 267 305.28125 L 198 305.28125 Z M 198 54 "/>
</clipPath>
<clipPath id="clip5">
  <path d="M 266 16 L 334 16 L 334 305.28125 L 266 305.28125 Z M 266 16 "/>
</clipPath>
<clipPath id="clip6">
  <path d="M 266 15 L 335 15 L 335 305.28125 L 266 305.28125 Z M 266 15 "/>
</clipPath>
<clipPath id="clip7">
  <path d="M 333 61 L 402 61 L 402 305.28125 L 333 305.28125 Z M 333 61 "/>
</clipPath>
<clipPath id="clip8">
  <path d="M 401 51 L 469 51 L 469 305.28125 L 401 305.28125 Z M 401 51 "/>
</clipPath>
<clipPath id="clip9">
  <path d="M 401 50 L 470 50 L 470 305.28125 L 401 305.28125 Z M 401 50 "/>
</clipPath>
<clipPath id="clip10">
  <path d="M 468 51 L 537 51 L 537 305.28125 L 468 305.28125 Z M 468 51 "/>
</clipPath>
<clipPath id="clip11">
  <path d="M 468 50 L 537 50 L 537 305.28125 L 468 305.28125 Z M 468 50 "/>
</clipPath>
</defs>
<g id="surface1">
<path style=" stroke:none;fill-rule:evenodd;fill:rgb(100%,99.99969%,100%);fill-opacity:1;" d="M 0 355.441406 L 550.078125 355.441406 L 550.078125 0 L 0 0 Z M 0 355.441406 "/>
<g clip-path="url(#clip1)" clip-rule="nonzero">
<path style="fill-rule:evenodd;fill:rgb(100%,79.375%,25%);fill-opacity:1;stroke-width:0.5;stroke-linecap:square;stroke-linejoin:miter;stroke:rgb(0%,0%,0%);stroke-opacity:0.637;stroke-miterlimit:3.25;" d="M 63.976563 305.195313 L 63.976563 75.398438 L 131.476563 75.398438 L 131.476563 305.195313 Z M 63.976563 305.195313 "/>
</g>
<g clip-path="url(#clip2)" clip-rule="nonzero">
<path style=" stroke:none;fill-rule:evenodd;fill:rgb(100%,79.375%,25%);fill-opacity:1;" d="M 131.476563 305.195313 L 131.476563 85.84375 L 198.980469 85.84375 L 198.980469 305.195313 Z M 131.476563 305.195313 "/>
</g>
<g clip-path="url(#clip3)" clip-rule="nonzero">
<path style="fill:none;stroke-width:0.5;stroke-linecap:square;stroke-linejoin:miter;stroke:rgb(0%,0%,0%);stroke-opacity:0.637;stroke-miterlimit:3.25;" d="M 131.476563 305.195313 L 131.476563 85.84375 L 198.980469 85.84375 L 198.980469 305.195313 Z M 131.476563 305.195313 "/>
</g>
<g clip-path="url(#clip4)" clip-rule="nonzero">
<path style="fill-rule:evenodd;fill:rgb(100%,79.375%,25%);fill-opacity:1;stroke-width:0.5;stroke-linecap:square;stroke-linejoin:miter;stroke:rgb(0%,0%,0%);stroke-opacity:0.637;stroke-miterlimit:3.25;" d="M 198.980469 305.195313 L 198.980469 54.507813 L 266.480469 54.507813 L 266.480469 305.195313 Z M 198.980469 305.195313 "/>
</g>
<g clip-path="url(#clip5)" clip-rule="nonzero">
<path style=" stroke:none;fill-rule:evenodd;fill:rgb(100%,79.375%,25%);fill-opacity:1;" d="M 266.480469 305.195313 L 266.480469 16.210938 L 333.984375 16.210938 L 333.984375 305.195313 Z M 266.480469 305.195313 "/>
</g>
<g clip-path="url(#clip6)" clip-rule="nonzero">
<path style="fill:none;stroke-width:0.5;stroke-linecap:square;stroke-linejoin:miter;stroke:rgb(0%,0%,0%);stroke-opacity:0.637;stroke-miterlimit:3.25;" d="M 266.480469 305.195313 L 266.480469 16.210938 L 333.984375 16.210938 L 333.984375 305.195313 Z M 266.480469 305.195313 "/>
</g>
<g clip-path="url(#clip7)" clip-rule="nonzero">
<path style="fill-rule:evenodd;fill:rgb(100%,79.375%,25%);fill-opacity:1;stroke-width:0.5;stroke-linecap:square;stroke-linejoin:miter;stroke:rgb(0%,0%,0%);stroke-opacity:0.637;stroke-miterlimit:3.25;" d="M 333.984375 305.195313 L 333.984375 61.472656 L 401.484375 61.472656 L 401.484375 305.195313 Z M 333.984375 305.195313 "/>
</g>
<g clip-path="url(#clip8)" clip-rule="nonzero">
<path style=" stroke:none;fill-rule:evenodd;fill:rgb(100%,79.375%,25%);fill-opacity:1;" d="M 401.484375 305.195313 L 401.484375 51.027344 L 468.988281 51.027344 L 468.988281 305.195313 Z M 401.484375 305.195313 "/>
</g>
<g clip-path="url(#clip9)" clip-rule="nonzero">
<path style="fill:none;stroke-width:0.5;stroke-linecap:square;stroke-linejoin:miter;stroke:rgb(0%,0%,0%);stroke-opacity:0.637;stroke-miterlimit:3.25;" d="M 401.484375 305.195313 L 401.484375 51.027344 L 468.988281 51.027344 L 468.988281 305.195313 Z M 401.484375 305.195313 "/>
</g>
<g clip-path="url(#clip10)" clip-rule="nonzero">
<path style=" stroke:none;fill-rule:evenodd;fill:rgb(100%,79.375%,25%);fill-opacity:1;" d="M 468.988281 305.195313 L 468.988281 51.027344 L 536.488281 51.027344 L 536.488281 305.195313 Z M 468.988281 305.195313 "/>
</g>
<g clip-path="url(#clip11)" clip-rule="nonzero">
<path style="fill:none;stroke-width:0.5;stroke-linecap:square;stroke-linejoin:miter;stroke:rgb(0%,0%,0%);stroke-opacity:0.637;stroke-miterlimit:3.25;" d="M 468.988281 305.195313 L 468.988281 51.027344 L 536.488281 51.027344 L 536.488281 305.195313 Z M 468.988281 305.195313 "/>
</g>
<path style="fill:none;stroke-width:2;stroke-linecap:square;stroke-linejoin:miter;stroke:rgb(0%,0%,100%);stroke-opacity:1;stroke-miterlimit:3.25;" d="M 63.976563 56.5 L 536.488281 56.5 "/>
<path style="fill:none;stroke-width:2;stroke-linecap:square;stroke-linejoin:miter;stroke:rgb(0%,0%,0%);stroke-opacity:1;stroke-miterlimit:3.25;" d="M 546.332031 305.195313 L 54.132813 305.195313 "/>
<path style="fill:none;stroke-width:2;stroke-linecap:square;stroke-linejoin:miter;stroke:rgb(0%,0%,0%);stroke-opacity:1;stroke-miterlimit:3.25;" d="M 54.132813 305.195313 L 54.132813 1 "/>
<path style="fill:none;stroke-width:2;stroke-linecap:butt;stroke-linejoin:miter;stroke:rgb(0%,0%,0%);stroke-opacity:1;stroke-miterlimit:3.25;" d="M 63.976563 305.195313 L 63.976563 301.195313 "/>
<g style="fill:rgb(0%,0%,0%);fill-opacity:1;">
  <use xlink:href="#glyph0-1" x="51.464625" y="324.49184"/>
  <use xlink:href="#glyph0-2" x="61.475367" y="324.49184"/>
  <use xlink:href="#glyph0-1" x="66.476343" y="324.49184"/>
</g>
<path style="fill:none;stroke-width:2;stroke-linecap:butt;stroke-linejoin:miter;stroke:rgb(0%,0%,0%);stroke-opacity:1;stroke-miterlimit:3.25;" d="M 77.476563 305.195313 L 77.476563 302.796875 "/>
<path style="fill:none;stroke-width:2;stroke-linecap:butt;stroke-linejoin:miter;stroke:rgb(0%,0%,0%);stroke-opacity:1;stroke-miterlimit:3.25;" d="M 90.976563 305.195313 L 90.976563 302.796875 "/>
<path style="fill:none;stroke-width:2;stroke-linecap:butt;stroke-linejoin:miter;stroke:rgb(0%,0%,0%);stroke-opacity:1;stroke-miterlimit:3.25;" d="M 104.476563 305.195313 L 104.476563 302.796875 "/>
<path style="fill:none;stroke-width:2;stroke-linecap:butt;stroke-linejoin:miter;stroke:rgb(0%,0%,0%);stroke-opacity:1;stroke-miterlimit:3.25;" d="M 117.976563 305.195313 L 117.976563 302.796875 "/>
<path style="fill:none;stroke-width:2;stroke-linecap:butt;stroke-linejoin:miter;stroke:rgb(0%,0%,0%);stroke-opacity:1;stroke-miterlimit:3.25;" d="M 131.476563 305.195313 L 131.476563 301.195313 "/>
<g style="fill:rgb(0%,0%,0%);fill-opacity:1;">
  <use xlink:href="#glyph0-1" x="118.966469" y="324.49184"/>
  <use xlink:href="#glyph0-2" x="128.977212" y="324.49184"/>
  <use xlink:href="#glyph0-3" x="133.978188" y="324.49184"/>
</g>
<path style="fill:none;stroke-width:2;stroke-linecap:butt;stroke-linejoin:miter;stroke:rgb(0%,0%,0%);stroke-opacity:1;stroke-miterlimit:3.25;" d="M 144.976563 305.195313 L 144.976563 302.796875 "/>
<path style="fill:none;stroke-width:2;stroke-linecap:butt;stroke-linejoin:miter;stroke:rgb(0%,0%,0%);stroke-opacity:1;stroke-miterlimit:3.25;" d="M 158.476563 305.195313 L 158.476563 302.796875 "/>
<path style="fill:none;stroke-width:2;stroke-linecap:butt;stroke-linejoin:miter;stroke:rgb(0%,0%,0%);stroke-opacity:1;stroke-miterlimit:3.25;" d="M 171.980469 305.195313 L 171.980469 302.796875 "/>
<path style="fill:none;stroke-width:2;stroke-linecap:butt;stroke-linejoin:miter;stroke:rgb(0%,0%,0%);stroke-opacity:1;stroke-miterlimit:3.25;" d="M 185.480469 305.195313 L 185.480469 302.796875 "/>
<path style="fill:none;stroke-width:2;stroke-linecap:butt;stroke-linejoin:miter;stroke:rgb(0%,0%,0%);stroke-opacity:1;stroke-miterlimit:3.25;" d="M 198.980469 305.195313 L 198.980469 301.195313 "/>
<g style="fill:rgb(0%,0%,0%);fill-opacity:1;">
  <use xlink:href="#glyph0-1" x="186.468314" y="324.49184"/>
  <use xlink:href="#glyph0-2" x="196.479057" y="324.49184"/>
  <use xlink:href="#glyph0-4" x="201.480033" y="324.49184"/>
</g>
<path style="fill:none;stroke-width:2;stroke-linecap:butt;stroke-linejoin:miter;stroke:rgb(0%,0%,0%);stroke-opacity:1;stroke-miterlimit:3.25;" d="M 212.480469 305.195313 L 212.480469 302.796875 "/>
<path style="fill:none;stroke-width:2;stroke-linecap:butt;stroke-linejoin:miter;stroke:rgb(0%,0%,0%);stroke-opacity:1;stroke-miterlimit:3.25;" d="M 225.980469 305.195313 L 225.980469 302.796875 "/>
<path style="fill:none;stroke-width:2;stroke-linecap:butt;stroke-linejoin:miter;stroke:rgb(0%,0%,0%);stroke-opacity:1;stroke-miterlimit:3.25;" d="M 239.480469 305.195313 L 239.480469 302.796875 "/>
<path style="fill:none;stroke-width:2;stroke-linecap:butt;stroke-linejoin:miter;stroke:rgb(0%,0%,0%);stroke-opacity:1;stroke-miterlimit:3.25;" d="M 252.980469 305.195313 L 252.980469 302.796875 "/>
<path style="fill:none;stroke-width:2;stroke-linecap:butt;stroke-linejoin:miter;stroke:rgb(0%,0%,0%);stroke-opacity:1;stroke-miterlimit:3.25;" d="M 266.480469 305.195313 L 266.480469 301.195313 "/>
<g style="fill:rgb(0%,0%,0%);fill-opacity:1;">
  <use xlink:href="#glyph0-1" x="253.970159" y="324.49184"/>
  <use xlink:href="#glyph0-2" x="263.980902" y="324.49184"/>
  <use xlink:href="#glyph0-5" x="268.981878" y="324.49184"/>
</g>
<path style="fill:none;stroke-width:2;stroke-linecap:butt;stroke-linejoin:miter;stroke:rgb(0%,0%,0%);stroke-opacity:1;stroke-miterlimit:3.25;" d="M 279.980469 305.195313 L 279.980469 302.796875 "/>
<path style="fill:none;stroke-width:2;stroke-linecap:butt;stroke-linejoin:miter;stroke:rgb(0%,0%,0%);stroke-opacity:1;stroke-miterlimit:3.25;" d="M 293.480469 305.195313 L 293.480469 302.796875 "/>
<path style="fill:none;stroke-width:2;stroke-linecap:butt;stroke-linejoin:miter;stroke:rgb(0%,0%,0%);stroke-opacity:1;stroke-miterlimit:3.25;" d="M 306.984375 305.195313 L 306.984375 302.796875 "/>
<path style="fill:none;stroke-width:2;stroke-linecap:butt;stroke-linejoin:miter;stroke:rgb(0%,0%,0%);stroke-opacity:1;stroke-miterlimit:3.25;" d="M 320.484375 305.195313 L 320.484375 302.796875 "/>
<path style="fill:none;stroke-width:2;stroke-linecap:butt;stroke-linejoin:miter;stroke:rgb(0%,0%,0%);stroke-opacity:1;stroke-miterlimit:3.25;" d="M 333.984375 305.195313 L 333.984375 301.195313 "/>
<g style="fill:rgb(0%,0%,0%);fill-opacity:1;">
  <use xlink:href="#glyph0-1" x="321.472004" y="324.49184"/>
  <use xlink:href="#glyph0-2" x="331.482746" y="324.49184"/>
  <use xlink:href="#glyph0-6" x="336.483723" y="324.49184"/>
</g>
<path style="fill:none;stroke-width:2;stroke-linecap:butt;stroke-linejoin:miter;stroke:rgb(0%,0%,0%);stroke-opacity:1;stroke-miterlimit:3.25;" d="M 347.484375 305.195313 L 347.484375 302.796875 "/>
<path style="fill:none;stroke-width:2;stroke-linecap:butt;stroke-linejoin:miter;stroke:rgb(0%,0%,0%);stroke-opacity:1;stroke-miterlimit:3.25;" d="M 360.984375 305.195313 L 360.984375 302.796875 "/>
<path style="fill:none;stroke-width:2;stroke-linecap:butt;stroke-linejoin:miter;stroke:rgb(0%,0%,0%);stroke-opacity:1;stroke-miterlimit:3.25;" d="M 374.484375 305.195313 L 374.484375 302.796875 "/>
<path style="fill:none;stroke-width:2;stroke-linecap:butt;stroke-linejoin:miter;stroke:rgb(0%,0%,0%);stroke-opacity:1;stroke-miterlimit:3.25;" d="M 387.984375 305.195313 L 387.984375 302.796875 "/>
<path style="fill:none;stroke-width:2;stroke-linecap:butt;stroke-linejoin:miter;stroke:rgb(0%,0%,0%);stroke-opacity:1;stroke-miterlimit:3.25;" d="M 401.484375 305.195313 L 401.484375 301.195313 "/>
<g style="fill:rgb(0%,0%,0%);fill-opacity:1;">
  <use xlink:href="#glyph0-1" x="388.973849" y="324.49184"/>
  <use xlink:href="#glyph0-2" x="398.984591" y="324.49184"/>
  <use xlink:href="#glyph0-7" x="403.985568" y="324.49184"/>
</g>
<path style="fill:none;stroke-width:2;stroke-linecap:butt;stroke-linejoin:miter;stroke:rgb(0%,0%,0%);stroke-opacity:1;stroke-miterlimit:3.25;" d="M 414.984375 305.195313 L 414.984375 302.796875 "/>
<path style="fill:none;stroke-width:2;stroke-linecap:butt;stroke-linejoin:miter;stroke:rgb(0%,0%,0%);stroke-opacity:1;stroke-miterlimit:3.25;" d="M 428.484375 305.195313 L 428.484375 302.796875 "/>
<path style="fill:none;stroke-width:2;stroke-linecap:butt;stroke-linejoin:miter;stroke:rgb(0%,0%,0%);stroke-opacity:1;stroke-miterlimit:3.25;" d="M 441.984375 305.195313 L 441.984375 302.796875 "/>
<path style="fill:none;stroke-width:2;stroke-linecap:butt;stroke-linejoin:miter;stroke:rgb(0%,0%,0%);stroke-opacity:1;stroke-miterlimit:3.25;" d="M 455.488281 305.195313 L 455.488281 302.796875 "/>
<path style="fill:none;stroke-width:2;stroke-linecap:butt;stroke-linejoin:miter;stroke:rgb(0%,0%,0%);stroke-opacity:1;stroke-miterlimit:3.25;" d="M 468.988281 305.195313 L 468.988281 301.195313 "/>
<g style="fill:rgb(0%,0%,0%);fill-opacity:1;">
  <use xlink:href="#glyph0-1" x="456.475694" y="324.49184"/>
  <use xlink:href="#glyph0-2" x="466.486436" y="324.49184"/>
  <use xlink:href="#glyph0-8" x="471.487413" y="324.49184"/>
</g>
<path style="fill:none;stroke-width:2;stroke-linecap:butt;stroke-linejoin:miter;stroke:rgb(0%,0%,0%);stroke-opacity:1;stroke-miterlimit:3.25;" d="M 482.488281 305.195313 L 482.488281 302.796875 "/>
<path style="fill:none;stroke-width:2;stroke-linecap:butt;stroke-linejoin:miter;stroke:rgb(0%,0%,0%);stroke-opacity:1;stroke-miterlimit:3.25;" d="M 495.988281 305.195313 L 495.988281 302.796875 "/>
<path style="fill:none;stroke-width:2;stroke-linecap:butt;stroke-linejoin:miter;stroke:rgb(0%,0%,0%);stroke-opacity:1;stroke-miterlimit:3.25;" d="M 509.488281 305.195313 L 509.488281 302.796875 "/>
<path style="fill:none;stroke-width:2;stroke-linecap:butt;stroke-linejoin:miter;stroke:rgb(0%,0%,0%);stroke-opacity:1;stroke-miterlimit:3.25;" d="M 522.988281 305.195313 L 522.988281 302.796875 "/>
<path style="fill:none;stroke-width:2;stroke-linecap:butt;stroke-linejoin:miter;stroke:rgb(0%,0%,0%);stroke-opacity:1;stroke-miterlimit:3.25;" d="M 536.488281 305.195313 L 536.488281 301.195313 "/>
<g style="fill:rgb(0%,0%,0%);fill-opacity:1;">
  <use xlink:href="#glyph0-1" x="523.977539" y="324.49184"/>
  <use xlink:href="#glyph0-2" x="533.988281" y="324.49184"/>
  <use xlink:href="#glyph0-9" x="538.989258" y="324.49184"/>
</g>
<path style="fill:none;stroke-width:2;stroke-linecap:butt;stroke-linejoin:miter;stroke:rgb(0%,0%,0%);stroke-opacity:1;stroke-miterlimit:3.25;" d="M 54.132813 305.195313 L 58.132813 305.195313 "/>
<g style="fill:rgb(0%,0%,0%);fill-opacity:1;">
  <use xlink:href="#glyph0-1" x="26.109375" y="311.437152"/>
  <use xlink:href="#glyph0-2" x="36.120117" y="311.437152"/>
  <use xlink:href="#glyph0-1" x="41.121094" y="311.437152"/>
</g>
<path style="fill:none;stroke-width:2;stroke-linecap:butt;stroke-linejoin:miter;stroke:rgb(0%,0%,0%);stroke-opacity:1;stroke-miterlimit:3.25;" d="M 54.132813 287.789063 L 56.53125 287.789063 "/>
<path style="fill:none;stroke-width:2;stroke-linecap:butt;stroke-linejoin:miter;stroke:rgb(0%,0%,0%);stroke-opacity:1;stroke-miterlimit:3.25;" d="M 54.132813 270.378906 L 56.53125 270.378906 "/>
<path style="fill:none;stroke-width:2;stroke-linecap:butt;stroke-linejoin:miter;stroke:rgb(0%,0%,0%);stroke-opacity:1;stroke-miterlimit:3.25;" d="M 54.132813 252.96875 L 56.53125 252.96875 "/>
<path style="fill:none;stroke-width:2;stroke-linecap:butt;stroke-linejoin:miter;stroke:rgb(0%,0%,0%);stroke-opacity:1;stroke-miterlimit:3.25;" d="M 54.132813 235.5625 L 56.53125 235.5625 "/>
<path style="fill:none;stroke-width:2;stroke-linecap:butt;stroke-linejoin:miter;stroke:rgb(0%,0%,0%);stroke-opacity:1;stroke-miterlimit:3.25;" d="M 54.132813 218.152344 L 58.132813 218.152344 "/>
<g style="fill:rgb(0%,0%,0%);fill-opacity:1;">
  <use xlink:href="#glyph0-1" x="26.109375" y="224.392854"/>
  <use xlink:href="#glyph0-2" x="36.120117" y="224.392854"/>
  <use xlink:href="#glyph0-7" x="41.121094" y="224.392854"/>
</g>
<path style="fill:none;stroke-width:2;stroke-linecap:butt;stroke-linejoin:miter;stroke:rgb(0%,0%,0%);stroke-opacity:1;stroke-miterlimit:3.25;" d="M 54.132813 200.742188 L 56.53125 200.742188 "/>
<path style="fill:none;stroke-width:2;stroke-linecap:butt;stroke-linejoin:miter;stroke:rgb(0%,0%,0%);stroke-opacity:1;stroke-miterlimit:3.25;" d="M 54.132813 183.335938 L 56.53125 183.335938 "/>
<path style="fill:none;stroke-width:2;stroke-linecap:butt;stroke-linejoin:miter;stroke:rgb(0%,0%,0%);stroke-opacity:1;stroke-miterlimit:3.25;" d="M 54.132813 165.925781 L 56.53125 165.925781 "/>
<path style="fill:none;stroke-width:2;stroke-linecap:butt;stroke-linejoin:miter;stroke:rgb(0%,0%,0%);stroke-opacity:1;stroke-miterlimit:3.25;" d="M 54.132813 148.515625 L 56.53125 148.515625 "/>
<path style="fill:none;stroke-width:2;stroke-linecap:butt;stroke-linejoin:miter;stroke:rgb(0%,0%,0%);stroke-opacity:1;stroke-miterlimit:3.25;" d="M 54.132813 131.109375 L 58.132813 131.109375 "/>
<g style="fill:rgb(0%,0%,0%);fill-opacity:1;">
  <use xlink:href="#glyph0-3" x="26.109375" y="137.348555"/>
  <use xlink:href="#glyph0-2" x="36.120117" y="137.348555"/>
  <use xlink:href="#glyph0-1" x="41.121094" y="137.348555"/>
</g>
<path style="fill:none;stroke-width:2;stroke-linecap:butt;stroke-linejoin:miter;stroke:rgb(0%,0%,0%);stroke-opacity:1;stroke-miterlimit:3.25;" d="M 54.132813 113.699219 L 56.53125 113.699219 "/>
<path style="fill:none;stroke-width:2;stroke-linecap:butt;stroke-linejoin:miter;stroke:rgb(0%,0%,0%);stroke-opacity:1;stroke-miterlimit:3.25;" d="M 54.132813 96.289063 L 56.53125 96.289063 "/>
<path style="fill:none;stroke-width:2;stroke-linecap:butt;stroke-linejoin:miter;stroke:rgb(0%,0%,0%);stroke-opacity:1;stroke-miterlimit:3.25;" d="M 54.132813 78.882813 L 56.53125 78.882813 "/>
<path style="fill:none;stroke-width:2;stroke-linecap:butt;stroke-linejoin:miter;stroke:rgb(0%,0%,0%);stroke-opacity:1;stroke-miterlimit:3.25;" d="M 54.132813 61.472656 L 56.53125 61.472656 "/>
<path style="fill:none;stroke-width:2;stroke-linecap:butt;stroke-linejoin:miter;stroke:rgb(0%,0%,0%);stroke-opacity:1;stroke-miterlimit:3.25;" d="M 54.132813 44.0625 L 58.132813 44.0625 "/>
<g style="fill:rgb(0%,0%,0%);fill-opacity:1;">
  <use xlink:href="#glyph0-3" x="26.109375" y="50.304256"/>
  <use xlink:href="#glyph0-2" x="36.120117" y="50.304256"/>
  <use xlink:href="#glyph0-7" x="41.121094" y="50.304256"/>
</g>
<path style="fill:none;stroke-width:2;stroke-linecap:butt;stroke-linejoin:miter;stroke:rgb(0%,0%,0%);stroke-opacity:1;stroke-miterlimit:3.25;" d="M 54.132813 26.65625 L 56.53125 26.65625 "/>
<path style="fill:none;stroke-width:2;stroke-linecap:butt;stroke-linejoin:miter;stroke:rgb(0%,0%,0%);stroke-opacity:1;stroke-miterlimit:3.25;" d="M 54.132813 9.246094 L 56.53125 9.246094 "/>
<g style="fill:rgb(0%,0%,0%);fill-opacity:1;">
  <use xlink:href="#glyph1-1" x="293.801404" y="350.601215"/>
</g>
<g style="fill:rgb(0%,0%,0%);fill-opacity:1;">
  <use xlink:href="#glyph2-1" x="301.94447" y="353.919965"/>
</g>
<g style="fill:rgb(0%,0%,0%);fill-opacity:1;">
  <use xlink:href="#glyph3-1" x="16.294922" y="234.617014"/>
  <use xlink:href="#glyph3-2" x="16.294922" y="222.611154"/>
  <use xlink:href="#glyph3-3" x="16.294922" y="215.606272"/>
  <use xlink:href="#glyph3-4" x="16.294922" y="204.611154"/>
  <use xlink:href="#glyph3-5" x="16.294922" y="193.616037"/>
  <use xlink:href="#glyph3-4" x="16.294922" y="183.605295"/>
  <use xlink:href="#glyph3-6" x="16.294922" y="172.610178"/>
  <use xlink:href="#glyph3-7" x="16.294922" y="167.609201"/>
  <use xlink:href="#glyph3-6" x="16.294922" y="162.608225"/>
  <use xlink:href="#glyph3-8" x="16.294922" y="157.607248"/>
  <use xlink:href="#glyph3-9" x="16.294922" y="151.613107"/>
</g>
<g style="fill:rgb(0%,0%,0%);fill-opacity:1;">
  <use xlink:href="#glyph3-10" x="16.294922" y="136.601389"/>
  <use xlink:href="#glyph3-11" x="16.294922" y="123.602365"/>
  <use xlink:href="#glyph3-12" x="16.294922" y="113.591623"/>
  <use xlink:href="#glyph3-13" x="16.294922" y="102.596506"/>
  <use xlink:href="#glyph3-6" x="16.294922" y="92.585764"/>
  <use xlink:href="#glyph3-8" x="16.294922" y="87.584787"/>
  <use xlink:href="#glyph3-9" x="16.294922" y="81.590647"/>
</g>
<g style="fill:rgb(0%,0%,0%);fill-opacity:1;">
  <use xlink:href="#glyph4-1" x="91.949434" y="23.497607"/>
</g>
</g>
</svg>
